M48
; DRILL file {KiCad 8.0.6-8.0.6-0~ubuntu22.04.1} date 2024-11-04T20:44:23+0000
; FORMAT={2:4/ absolute / inch / suppress leading zeros}
; #@! TF.CreationDate,2024-11-04T20:44:23+00:00
; #@! TF.GenerationSoftware,Kicad,Pcbnew,8.0.6-8.0.6-0~ubuntu22.04.1
; #@! TF.FileFunction,MixedPlating,1,2
FMAT,2
INCH,TZ
; #@! TA.AperFunction,Plated,PTH,ComponentDrill
T1C0.0118
%
G90
G05
T1
X3780Y7795
X3780Y7402
X3780Y21969
X3780Y17362
X3780Y17047
X3780Y15827
X3780Y15433
X3780Y15039
X3780Y14646
X3780Y14252
X3780Y13858
X3780Y13465
X3780Y13071
X3780Y10315
X3809Y3067
X3809Y2673
X3937Y6417
X4882Y6417
X5354Y6417
X5827Y6417
X6142Y21969
X6299Y6417
X6457Y21969
X6772Y21969
X6772Y6417
X7244Y6417
X7717Y6417
X8189Y6417
X8661Y6417
X9134Y6417
X9488Y5610
X9488Y5138
X9488Y4665
X9488Y4193
X9606Y6417
X9843Y21969
X10079Y6417
X10157Y21969
X10472Y21969
X10551Y6417
X10787Y21969
X11024Y6417
X11102Y21969
X11496Y6417
X11969Y6417
X12441Y6417
X12913Y6417
X13268Y21969
X13386Y6417
X13583Y21969
X13858Y6417
X13898Y21969
X14213Y21969
X14331Y6417
X14528Y21969
X14803Y6417
X14843Y21969
X15157Y21969
X15276Y6417
X15472Y21969
X15748Y6417
X15787Y21969
X16102Y21969
X16220Y6417
X16417Y21969
X16693Y6417
X16732Y21969
X17047Y21969
X17165Y6417
X17362Y21969
X17638Y6417
X17677Y21969
X17992Y21969
X18071Y6417
X18307Y21969
X18543Y6417
X18622Y21969
X18937Y21969
X19016Y6417
X19252Y21969
X19488Y6417
X19567Y21969
X19882Y21969
X19961Y6417
X20197Y19370
X20197Y19055
X20197Y17480
X20197Y17165
X20197Y16850
X20197Y15591
X20197Y15276
X20197Y11811
X20197Y7598
X20197Y21969
X20197Y20945
X20197Y20630
X20197Y20315
X20197Y20000
X20197Y19685
X20197Y18740
X20197Y18425
X20197Y18110
X20197Y17795
X20197Y16535
X20197Y16220
X20197Y15906
X20197Y14961
X20197Y14646
X20197Y14331
X20197Y14016
X20197Y13701
X20197Y13386
X20197Y13071
X20197Y12756
X20197Y12441
X20197Y12126
X20197Y11496
X20197Y11181
X20197Y10866
X20197Y10551
X20197Y10236
X20197Y7283
M30
