M48
; DRILL file {KiCad 8.0.6-8.0.6-0~ubuntu22.04.1} date 2024-11-07T20:55:43+0000
; FORMAT={2:4/ absolute / inch / suppress leading zeros}
; #@! TF.CreationDate,2024-11-07T20:55:43+00:00
; #@! TF.GenerationSoftware,Kicad,Pcbnew,8.0.6-8.0.6-0~ubuntu22.04.1
; #@! TF.FileFunction,MixedPlating,1,4
FMAT,2
INCH,TZ
; #@! TA.AperFunction,Plated,PTH,ComponentDrill
T1C0.0118
; #@! TA.AperFunction,Plated,PTH,ComponentDrill
T2C0.0118
; #@! TA.AperFunction,Plated,PTH,ViaDrill
T3C0.0394
; #@! TA.AperFunction,Plated,PTH,ComponentDrill
T4C0.0394
; #@! TA.AperFunction,Plated,PTH,ComponentDrill
T5C0.0433
; #@! TA.AperFunction,Plated,PTH,ComponentDrill
T6C0.0866
; #@! TA.AperFunction,NonPlated,NPTH,ComponentDrill
T7C0.0866
; #@! TA.AperFunction,NonPlated,NPTH,ComponentDrill
T8C0.1457
%
G90
G05
T1
X54242Y29250
X55767Y28000
X55846Y29132
X55852Y27655
X55852Y28384
X55882Y27321
X56059Y26681
X56575Y28216
X56575Y27193
X56575Y26425
T2
X34923Y14186
X34923Y13793
X40602Y16730
X40602Y16257
X40602Y15785
X40602Y15312
X47732Y22537
X47732Y22143
X47732Y21749
X47732Y20852
X47732Y20452
X58201Y19525
X58201Y19131
X58201Y18738
X58201Y18344
X60157Y32064
X60157Y31671
T3
X1383Y38708
X1383Y34426
X1383Y29082
X1383Y24771
X1383Y20873
X1383Y16730
X1383Y12783
X1383Y9082
X1442Y6395
X6639Y45942
X10920Y45942
X15103Y45942
X19601Y45942
X24247Y45942
X28292Y45942
X32574Y45952
X36757Y45952
X41255Y45952
X45398Y45932
X49946Y45952
X54089Y45932
X58637Y45952
X63706Y39289
X63706Y35007
X63706Y29663
X63706Y25352
X63706Y21454
X63706Y17310
X63706Y13363
X63706Y9663
X63706Y6523
T4
X53878Y38147
X53878Y37419
X53878Y35470
X53878Y30726
X59980Y37970
X59980Y35450
X59980Y34702
X59980Y33009
X59980Y30549
T5
X15890Y8008
X15890Y7008
X15890Y4626
X15890Y3626
X16890Y8008
X16890Y7008
X16890Y4626
X16890Y3626
X17890Y8008
X17890Y7008
X17890Y4626
X17890Y3626
X18890Y8008
X18890Y7008
X18890Y4626
X18890Y3626
X19890Y8008
X19890Y7008
X19890Y4626
X19890Y3626
X20890Y8008
X20890Y7008
X20890Y4626
X20890Y3626
X21890Y8008
X21890Y7008
X21890Y4626
X21890Y3626
X22890Y8008
X22890Y7008
X22890Y4626
X22890Y3626
X23890Y8008
X23890Y7008
X23890Y4626
X23890Y3626
X24890Y8008
X24890Y7008
X24890Y4626
X24890Y3626
X25890Y8008
X25890Y7008
X25890Y4626
X25890Y3626
X26890Y8008
X26890Y7008
X26890Y4626
X26890Y3626
X27890Y8008
X27890Y7008
X27890Y4626
X27890Y3626
X28890Y8008
X28890Y7008
X28890Y4626
X28890Y3626
X29890Y8008
X29890Y7008
X29890Y4626
X29890Y3626
X30890Y8008
X30890Y7008
X30890Y4626
X30890Y3626
X31890Y8008
X31890Y7008
X31890Y4626
X31890Y3626
X32890Y8008
X32890Y7008
X32890Y4626
X32890Y3626
X33890Y8008
X33890Y7008
X33890Y4626
X33890Y3626
X40177Y8008
X40177Y7008
X40177Y4626
X40177Y3626
X41177Y8008
X41177Y7008
X41177Y4626
X41177Y3626
X42177Y8008
X42177Y7008
X42177Y4626
X42177Y3626
X43177Y8008
X43177Y7008
X43177Y4626
X43177Y3626
X44177Y8008
X44177Y7008
X44177Y4626
X44177Y3626
X45177Y8008
X45177Y7008
X45177Y4626
X45177Y3626
X46177Y8008
X46177Y7008
X46177Y4626
X46177Y3626
X47177Y8008
X47177Y7008
X47177Y4626
X47177Y3626
T6
X10496Y8008
X10496Y4807
X11638Y5724
X12780Y8008
X12780Y4807
X50260Y8008
X50260Y4807
X51402Y5724
X52543Y8008
X52543Y4807
X53724Y5724
X54866Y8008
X54866Y4807
T7
X8665Y5909
X56618Y5909
T8
X7701Y2839
X37031Y2839
X57583Y2839
M30
