G04 #@! TF.GenerationSoftware,KiCad,Pcbnew,8.0.6-8.0.6-0~ubuntu22.04.1*
G04 #@! TF.CreationDate,2024-11-07T20:55:43+00:00*
G04 #@! TF.ProjectId,lowimp121,6c6f7769-6d70-4313-9231-2e6b69636164,d*
G04 #@! TF.SameCoordinates,PX754d4c0PYd09dc30*
G04 #@! TF.FileFunction,Profile,NP*
%FSLAX46Y46*%
G04 Gerber Fmt 4.6, Leading zero omitted, Abs format (unit mm)*
G04 Created by KiCad (PCBNEW 8.0.6-8.0.6-0~ubuntu22.04.1) date 2024-11-07 20:55:43*
%MOMM*%
%LPD*%
G01*
G04 APERTURE LIST*
G04 #@! TA.AperFunction,Profile*
%ADD10C,0.200000*%
G04 #@! TD*
G04 APERTURE END LIST*
D10*
X138872000Y1718000D02*
X150227200Y3718000D01*
X13772000Y115858000D02*
X13772000Y118303787D01*
X3212000Y81868000D02*
G75*
G02*
X3212000Y78868000I200J-1500000D01*
G01*
X161052000Y106858001D02*
G75*
G02*
X152052001Y115858001I0J8999999D01*
G01*
X15612000Y3718000D02*
X15612000Y9926001D01*
X11112000Y14368002D02*
G75*
G02*
X15612011Y9926001I-46900J-4547902D01*
G01*
X162612000Y81868001D02*
X164912000Y81868001D01*
X150212000Y9806001D02*
G75*
G02*
X154799200Y14368071I4569300J-7201D01*
G01*
X912000Y15782214D02*
X912000Y78868000D01*
X4772000Y106858000D02*
X2326214Y106858000D01*
X150637787Y119718001D02*
X15186214Y119718000D01*
X163497787Y14368000D02*
X154799200Y14368000D01*
X3212000Y78868000D02*
X912000Y78868000D01*
X150227200Y3718000D02*
X150212000Y9806001D01*
X138872000Y1718000D02*
X26952000Y1718000D01*
X164912000Y15782214D02*
X164912000Y78868001D01*
X13772000Y118303787D02*
X15186214Y119718000D01*
X164912000Y81868001D02*
X164912000Y105443787D01*
X152052000Y118303787D02*
X150637787Y119718000D01*
X3212000Y81868000D02*
X912000Y81868000D01*
X26952000Y1718000D02*
X15612000Y3718000D01*
X164912001Y105443787D02*
X163497787Y106858001D01*
X161052000Y106858001D02*
X163497787Y106858001D01*
X162612000Y78868001D02*
X164912000Y78868001D01*
X164912000Y15782214D02*
X163497787Y14368001D01*
X13772000Y115858000D02*
G75*
G02*
X4772000Y106858000I-9000000J0D01*
G01*
X912000Y105443787D02*
X2326214Y106858000D01*
X152052000Y115858001D02*
X152052000Y118303787D01*
X162612000Y78868001D02*
G75*
G02*
X162612000Y81867999I0J1499999D01*
G01*
X912000Y81868001D02*
X912000Y105443787D01*
X912000Y15782214D02*
X2326214Y14368001D01*
X2326214Y14368000D02*
X11112000Y14368000D01*
M02*
