G04 #@! TF.GenerationSoftware,KiCad,Pcbnew,8.0.6-8.0.6-0~ubuntu22.04.1*
G04 #@! TF.CreationDate,2024-11-07T13:32:39+00:00*
G04 #@! TF.ProjectId,lowimp121,6c6f7769-6d70-4313-9231-2e6b69636164,d*
G04 #@! TF.SameCoordinates,PX754d4c0PYd09dc30*
G04 #@! TF.FileFunction,Soldermask,Bot*
G04 #@! TF.FilePolarity,Negative*
%FSLAX46Y46*%
G04 Gerber Fmt 4.6, Leading zero omitted, Abs format (unit mm)*
G04 Created by KiCad (PCBNEW 8.0.6-8.0.6-0~ubuntu22.04.1) date 2024-11-07 13:32:39*
%MOMM*%
%LPD*%
G01*
G04 APERTURE LIST*
%ADD10C,3.700000*%
%ADD11C,2.200000*%
%ADD12C,2.600000*%
%ADD13C,1.500000*%
%ADD14C,0.600000*%
%ADD15C,0.599999*%
G04 APERTURE END LIST*
G04 #@! TO.C,M3*
G36*
G01*
X119104448Y50467198D02*
X118854448Y50467198D01*
G75*
G02*
X118729448Y50592198I0J125000D01*
G01*
X118729448Y50592198D01*
G75*
G02*
X118854448Y50717198I125000J0D01*
G01*
X119104448Y50717198D01*
G75*
G02*
X119229448Y50592198I0J-125000D01*
G01*
X119229448Y50592198D01*
G75*
G02*
X119104448Y50467198I-125000J0D01*
G01*
G37*
G36*
G01*
X119104448Y49807197D02*
X118854448Y49807197D01*
G75*
G02*
X118729448Y49932197I0J125000D01*
G01*
X118729448Y49932197D01*
G75*
G02*
X118854448Y50057197I125000J0D01*
G01*
X119104448Y50057197D01*
G75*
G02*
X119229448Y49932197I0J-125000D01*
G01*
X119229448Y49932197D01*
G75*
G02*
X119104448Y49807197I-125000J0D01*
G01*
G37*
G36*
G01*
X119104448Y49147196D02*
X118854448Y49147196D01*
G75*
G02*
X118729448Y49272196I0J125000D01*
G01*
X118729448Y49272196D01*
G75*
G02*
X118854448Y49397196I125000J0D01*
G01*
X119104448Y49397196D01*
G75*
G02*
X119229448Y49272196I0J-125000D01*
G01*
X119229448Y49272196D01*
G75*
G02*
X119104448Y49147196I-125000J0D01*
G01*
G37*
G36*
G01*
X119104448Y48487195D02*
X118854448Y48487195D01*
G75*
G02*
X118729448Y48612195I0J125000D01*
G01*
X118729448Y48612195D01*
G75*
G02*
X118854448Y48737195I125000J0D01*
G01*
X119104448Y48737195D01*
G75*
G02*
X119229448Y48612195I0J-125000D01*
G01*
X119229448Y48612195D01*
G75*
G02*
X119104448Y48487195I-125000J0D01*
G01*
G37*
G36*
G01*
X119104448Y45187188D02*
X118854448Y45187188D01*
G75*
G02*
X118729448Y45312188I0J125000D01*
G01*
X118729448Y45312188D01*
G75*
G02*
X118854448Y45437188I125000J0D01*
G01*
X119104448Y45437188D01*
G75*
G02*
X119229448Y45312188I0J-125000D01*
G01*
X119229448Y45312188D01*
G75*
G02*
X119104448Y45187188I-125000J0D01*
G01*
G37*
G36*
G01*
X90334446Y58685991D02*
X90334446Y58435991D01*
G75*
G02*
X90209446Y58310991I-125000J0D01*
G01*
X90209446Y58310991D01*
G75*
G02*
X90084446Y58435991I0J125000D01*
G01*
X90084446Y58685991D01*
G75*
G02*
X90209446Y58810991I125000J0D01*
G01*
X90209446Y58810991D01*
G75*
G02*
X90334446Y58685991I0J-125000D01*
G01*
G37*
G36*
G01*
X91184450Y58435991D02*
X91184450Y58685991D01*
G75*
G02*
X91309450Y58810991I125000J0D01*
G01*
X91309450Y58810991D01*
G75*
G02*
X91434450Y58685991I0J-125000D01*
G01*
X91434450Y58435991D01*
G75*
G02*
X91309450Y58310991I-125000J0D01*
G01*
X91309450Y58310991D01*
G75*
G02*
X91184450Y58435991I0J125000D01*
G01*
G37*
G36*
G01*
X92284451Y58435991D02*
X92284451Y58685991D01*
G75*
G02*
X92409451Y58810991I125000J0D01*
G01*
X92409451Y58810991D01*
G75*
G02*
X92534451Y58685991I0J-125000D01*
G01*
X92534451Y58435991D01*
G75*
G02*
X92409451Y58310991I-125000J0D01*
G01*
X92409451Y58310991D01*
G75*
G02*
X92284451Y58435991I0J125000D01*
G01*
G37*
G36*
G01*
X93384448Y58435991D02*
X93384448Y58685991D01*
G75*
G02*
X93509448Y58810991I125000J0D01*
G01*
X93509448Y58810991D01*
G75*
G02*
X93634448Y58685991I0J-125000D01*
G01*
X93634448Y58435991D01*
G75*
G02*
X93509448Y58310991I-125000J0D01*
G01*
X93509448Y58310991D01*
G75*
G02*
X93384448Y58435991I0J125000D01*
G01*
G37*
G36*
G01*
X94484446Y58435991D02*
X94484446Y58685991D01*
G75*
G02*
X94609446Y58810991I125000J0D01*
G01*
X94609446Y58810991D01*
G75*
G02*
X94734446Y58685991I0J-125000D01*
G01*
X94734446Y58435991D01*
G75*
G02*
X94609446Y58310991I-125000J0D01*
G01*
X94609446Y58310991D01*
G75*
G02*
X94484446Y58435991I0J125000D01*
G01*
G37*
G36*
G01*
X95584444Y58435991D02*
X95584444Y58685991D01*
G75*
G02*
X95709444Y58810991I125000J0D01*
G01*
X95709444Y58810991D01*
G75*
G02*
X95834444Y58685991I0J-125000D01*
G01*
X95834444Y58435991D01*
G75*
G02*
X95709444Y58310991I-125000J0D01*
G01*
X95709444Y58310991D01*
G75*
G02*
X95584444Y58435991I0J125000D01*
G01*
G37*
G36*
G01*
X96684442Y58435991D02*
X96684442Y58685991D01*
G75*
G02*
X96809442Y58810991I125000J0D01*
G01*
X96809442Y58810991D01*
G75*
G02*
X96934442Y58685991I0J-125000D01*
G01*
X96934442Y58435991D01*
G75*
G02*
X96809442Y58310991I-125000J0D01*
G01*
X96809442Y58310991D01*
G75*
G02*
X96684442Y58435991I0J125000D01*
G01*
G37*
G36*
G01*
X97784440Y58435991D02*
X97784440Y58685991D01*
G75*
G02*
X97909440Y58810991I125000J0D01*
G01*
X97909440Y58810991D01*
G75*
G02*
X98034440Y58685991I0J-125000D01*
G01*
X98034440Y58435991D01*
G75*
G02*
X97909440Y58310991I-125000J0D01*
G01*
X97909440Y58310991D01*
G75*
G02*
X97784440Y58435991I0J125000D01*
G01*
G37*
G36*
G01*
X98884437Y58435991D02*
X98884437Y58685991D01*
G75*
G02*
X99009437Y58810991I125000J0D01*
G01*
X99009437Y58810991D01*
G75*
G02*
X99134437Y58685991I0J-125000D01*
G01*
X99134437Y58435991D01*
G75*
G02*
X99009437Y58310991I-125000J0D01*
G01*
X99009437Y58310991D01*
G75*
G02*
X98884437Y58435991I0J125000D01*
G01*
G37*
G36*
G01*
X99984435Y58435991D02*
X99984435Y58685991D01*
G75*
G02*
X100109435Y58810991I125000J0D01*
G01*
X100109435Y58810991D01*
G75*
G02*
X100234435Y58685991I0J-125000D01*
G01*
X100234435Y58435991D01*
G75*
G02*
X100109435Y58310991I-125000J0D01*
G01*
X100109435Y58310991D01*
G75*
G02*
X99984435Y58435991I0J125000D01*
G01*
G37*
G36*
G01*
X101084433Y58435991D02*
X101084433Y58685991D01*
G75*
G02*
X101209433Y58810991I125000J0D01*
G01*
X101209433Y58810991D01*
G75*
G02*
X101334433Y58685991I0J-125000D01*
G01*
X101334433Y58435991D01*
G75*
G02*
X101209433Y58310991I-125000J0D01*
G01*
X101209433Y58310991D01*
G75*
G02*
X101084433Y58435991I0J125000D01*
G01*
G37*
G36*
G01*
X102184431Y58435991D02*
X102184431Y58685991D01*
G75*
G02*
X102309431Y58810991I125000J0D01*
G01*
X102309431Y58810991D01*
G75*
G02*
X102434431Y58685991I0J-125000D01*
G01*
X102434431Y58435991D01*
G75*
G02*
X102309431Y58310991I-125000J0D01*
G01*
X102309431Y58310991D01*
G75*
G02*
X102184431Y58435991I0J125000D01*
G01*
G37*
G36*
G01*
X103284429Y58435991D02*
X103284429Y58685991D01*
G75*
G02*
X103409429Y58810991I125000J0D01*
G01*
X103409429Y58810991D01*
G75*
G02*
X103534429Y58685991I0J-125000D01*
G01*
X103534429Y58435991D01*
G75*
G02*
X103409429Y58310991I-125000J0D01*
G01*
X103409429Y58310991D01*
G75*
G02*
X103284429Y58435991I0J125000D01*
G01*
G37*
G36*
G01*
X104384426Y58435991D02*
X104384426Y58685991D01*
G75*
G02*
X104509426Y58810991I125000J0D01*
G01*
X104509426Y58810991D01*
G75*
G02*
X104634426Y58685991I0J-125000D01*
G01*
X104634426Y58435991D01*
G75*
G02*
X104509426Y58310991I-125000J0D01*
G01*
X104509426Y58310991D01*
G75*
G02*
X104384426Y58435991I0J125000D01*
G01*
G37*
G36*
G01*
X105484424Y58435991D02*
X105484424Y58685991D01*
G75*
G02*
X105609424Y58810991I125000J0D01*
G01*
X105609424Y58810991D01*
G75*
G02*
X105734424Y58685991I0J-125000D01*
G01*
X105734424Y58435991D01*
G75*
G02*
X105609424Y58310991I-125000J0D01*
G01*
X105609424Y58310991D01*
G75*
G02*
X105484424Y58435991I0J125000D01*
G01*
G37*
G36*
G01*
X106584422Y58435991D02*
X106584422Y58685991D01*
G75*
G02*
X106709422Y58810991I125000J0D01*
G01*
X106709422Y58810991D01*
G75*
G02*
X106834422Y58685991I0J-125000D01*
G01*
X106834422Y58435991D01*
G75*
G02*
X106709422Y58310991I-125000J0D01*
G01*
X106709422Y58310991D01*
G75*
G02*
X106584422Y58435991I0J125000D01*
G01*
G37*
G36*
G01*
X107684420Y58435991D02*
X107684420Y58685991D01*
G75*
G02*
X107809420Y58810991I125000J0D01*
G01*
X107809420Y58810991D01*
G75*
G02*
X107934420Y58685991I0J-125000D01*
G01*
X107934420Y58435991D01*
G75*
G02*
X107809420Y58310991I-125000J0D01*
G01*
X107809420Y58310991D01*
G75*
G02*
X107684420Y58435991I0J125000D01*
G01*
G37*
G36*
G01*
X108784418Y58435991D02*
X108784418Y58685991D01*
G75*
G02*
X108909418Y58810991I125000J0D01*
G01*
X108909418Y58810991D01*
G75*
G02*
X109034418Y58685991I0J-125000D01*
G01*
X109034418Y58435991D01*
G75*
G02*
X108909418Y58310991I-125000J0D01*
G01*
X108909418Y58310991D01*
G75*
G02*
X108784418Y58435991I0J125000D01*
G01*
G37*
G36*
G01*
X109884415Y58435991D02*
X109884415Y58685991D01*
G75*
G02*
X110009415Y58810991I125000J0D01*
G01*
X110009415Y58810991D01*
G75*
G02*
X110134415Y58685991I0J-125000D01*
G01*
X110134415Y58435991D01*
G75*
G02*
X110009415Y58310991I-125000J0D01*
G01*
X110009415Y58310991D01*
G75*
G02*
X109884415Y58435991I0J125000D01*
G01*
G37*
G36*
G01*
X110984413Y58435991D02*
X110984413Y58685991D01*
G75*
G02*
X111109413Y58810991I125000J0D01*
G01*
X111109413Y58810991D01*
G75*
G02*
X111234413Y58685991I0J-125000D01*
G01*
X111234413Y58435991D01*
G75*
G02*
X111109413Y58310991I-125000J0D01*
G01*
X111109413Y58310991D01*
G75*
G02*
X110984413Y58435991I0J125000D01*
G01*
G37*
G36*
G01*
X112084411Y58435991D02*
X112084411Y58685991D01*
G75*
G02*
X112209411Y58810991I125000J0D01*
G01*
X112209411Y58810991D01*
G75*
G02*
X112334411Y58685991I0J-125000D01*
G01*
X112334411Y58435991D01*
G75*
G02*
X112209411Y58310991I-125000J0D01*
G01*
X112209411Y58310991D01*
G75*
G02*
X112084411Y58435991I0J125000D01*
G01*
G37*
G36*
G01*
X113184409Y58435991D02*
X113184409Y58685991D01*
G75*
G02*
X113309409Y58810991I125000J0D01*
G01*
X113309409Y58810991D01*
G75*
G02*
X113434409Y58685991I0J-125000D01*
G01*
X113434409Y58435991D01*
G75*
G02*
X113309409Y58310991I-125000J0D01*
G01*
X113309409Y58310991D01*
G75*
G02*
X113184409Y58435991I0J125000D01*
G01*
G37*
G36*
G01*
X114284407Y58435991D02*
X114284407Y58685991D01*
G75*
G02*
X114409407Y58810991I125000J0D01*
G01*
X114409407Y58810991D01*
G75*
G02*
X114534407Y58685991I0J-125000D01*
G01*
X114534407Y58435991D01*
G75*
G02*
X114409407Y58310991I-125000J0D01*
G01*
X114409407Y58310991D01*
G75*
G02*
X114284407Y58435991I0J125000D01*
G01*
G37*
G36*
G01*
X115384404Y58435991D02*
X115384404Y58685991D01*
G75*
G02*
X115509404Y58810991I125000J0D01*
G01*
X115509404Y58810991D01*
G75*
G02*
X115634404Y58685991I0J-125000D01*
G01*
X115634404Y58435991D01*
G75*
G02*
X115509404Y58310991I-125000J0D01*
G01*
X115509404Y58310991D01*
G75*
G02*
X115384404Y58435991I0J125000D01*
G01*
G37*
G36*
G01*
X116484402Y58435991D02*
X116484402Y58685991D01*
G75*
G02*
X116609402Y58810991I125000J0D01*
G01*
X116609402Y58810991D01*
G75*
G02*
X116734402Y58685991I0J-125000D01*
G01*
X116734402Y58435991D01*
G75*
G02*
X116609402Y58310991I-125000J0D01*
G01*
X116609402Y58310991D01*
G75*
G02*
X116484402Y58435991I0J125000D01*
G01*
G37*
G36*
G01*
X117584400Y58435991D02*
X117584400Y58685991D01*
G75*
G02*
X117709400Y58810991I125000J0D01*
G01*
X117709400Y58810991D01*
G75*
G02*
X117834400Y58685991I0J-125000D01*
G01*
X117834400Y58435991D01*
G75*
G02*
X117709400Y58310991I-125000J0D01*
G01*
X117709400Y58310991D01*
G75*
G02*
X117584400Y58435991I0J125000D01*
G01*
G37*
G36*
G01*
X117333456Y44473992D02*
X117333456Y44723992D01*
G75*
G02*
X117458456Y44848992I125000J0D01*
G01*
X117458456Y44848992D01*
G75*
G02*
X117583456Y44723992I0J-125000D01*
G01*
X117583456Y44473992D01*
G75*
G02*
X117458456Y44348992I-125000J0D01*
G01*
X117458456Y44348992D01*
G75*
G02*
X117333456Y44473992I0J125000D01*
G01*
G37*
G36*
G01*
X116673454Y44473992D02*
X116673454Y44723992D01*
G75*
G02*
X116798454Y44848992I125000J0D01*
G01*
X116798454Y44848992D01*
G75*
G02*
X116923454Y44723992I0J-125000D01*
G01*
X116923454Y44473992D01*
G75*
G02*
X116798454Y44348992I-125000J0D01*
G01*
X116798454Y44348992D01*
G75*
G02*
X116673454Y44473992I0J125000D01*
G01*
G37*
G36*
G01*
X116013453Y44473992D02*
X116013453Y44723992D01*
G75*
G02*
X116138453Y44848992I125000J0D01*
G01*
X116138453Y44848992D01*
G75*
G02*
X116263453Y44723992I0J-125000D01*
G01*
X116263453Y44473992D01*
G75*
G02*
X116138453Y44348992I-125000J0D01*
G01*
X116138453Y44348992D01*
G75*
G02*
X116013453Y44473992I0J125000D01*
G01*
G37*
G36*
G01*
X115353452Y44473992D02*
X115353452Y44723992D01*
G75*
G02*
X115478452Y44848992I125000J0D01*
G01*
X115478452Y44848992D01*
G75*
G02*
X115603452Y44723992I0J-125000D01*
G01*
X115603452Y44473992D01*
G75*
G02*
X115478452Y44348992I-125000J0D01*
G01*
X115478452Y44348992D01*
G75*
G02*
X115353452Y44473992I0J125000D01*
G01*
G37*
G36*
G01*
X114693451Y44473992D02*
X114693451Y44723992D01*
G75*
G02*
X114818451Y44848992I125000J0D01*
G01*
X114818451Y44848992D01*
G75*
G02*
X114943451Y44723992I0J-125000D01*
G01*
X114943451Y44473992D01*
G75*
G02*
X114818451Y44348992I-125000J0D01*
G01*
X114818451Y44348992D01*
G75*
G02*
X114693451Y44473992I0J125000D01*
G01*
G37*
G36*
G01*
X114033449Y44473992D02*
X114033449Y44723992D01*
G75*
G02*
X114158449Y44848992I125000J0D01*
G01*
X114158449Y44848992D01*
G75*
G02*
X114283449Y44723992I0J-125000D01*
G01*
X114283449Y44473992D01*
G75*
G02*
X114158449Y44348992I-125000J0D01*
G01*
X114158449Y44348992D01*
G75*
G02*
X114033449Y44473992I0J125000D01*
G01*
G37*
G36*
G01*
X112432452Y44473992D02*
X112432452Y44723992D01*
G75*
G02*
X112557452Y44848992I125000J0D01*
G01*
X112557452Y44848992D01*
G75*
G02*
X112682452Y44723992I0J-125000D01*
G01*
X112682452Y44473992D01*
G75*
G02*
X112557452Y44348992I-125000J0D01*
G01*
X112557452Y44348992D01*
G75*
G02*
X112432452Y44473992I0J125000D01*
G01*
G37*
G36*
G01*
X111772451Y44473992D02*
X111772451Y44723992D01*
G75*
G02*
X111897451Y44848992I125000J0D01*
G01*
X111897451Y44848992D01*
G75*
G02*
X112022451Y44723992I0J-125000D01*
G01*
X112022451Y44473992D01*
G75*
G02*
X111897451Y44348992I-125000J0D01*
G01*
X111897451Y44348992D01*
G75*
G02*
X111772451Y44473992I0J125000D01*
G01*
G37*
G36*
G01*
X111112449Y44473992D02*
X111112449Y44723992D01*
G75*
G02*
X111237449Y44848992I125000J0D01*
G01*
X111237449Y44848992D01*
G75*
G02*
X111362449Y44723992I0J-125000D01*
G01*
X111362449Y44473992D01*
G75*
G02*
X111237449Y44348992I-125000J0D01*
G01*
X111237449Y44348992D01*
G75*
G02*
X111112449Y44473992I0J125000D01*
G01*
G37*
G36*
G01*
X109991550Y44473992D02*
X109991550Y44723992D01*
G75*
G02*
X110116550Y44848992I125000J0D01*
G01*
X110116550Y44848992D01*
G75*
G02*
X110241550Y44723992I0J-125000D01*
G01*
X110241550Y44473992D01*
G75*
G02*
X110116550Y44348992I-125000J0D01*
G01*
X110116550Y44348992D01*
G75*
G02*
X109991550Y44473992I0J125000D01*
G01*
G37*
G36*
G01*
X109331549Y44473992D02*
X109331549Y44723992D01*
G75*
G02*
X109456549Y44848992I125000J0D01*
G01*
X109456549Y44848992D01*
G75*
G02*
X109581549Y44723992I0J-125000D01*
G01*
X109581549Y44473992D01*
G75*
G02*
X109456549Y44348992I-125000J0D01*
G01*
X109456549Y44348992D01*
G75*
G02*
X109331549Y44473992I0J125000D01*
G01*
G37*
G36*
G01*
X108671548Y44473992D02*
X108671548Y44723992D01*
G75*
G02*
X108796548Y44848992I125000J0D01*
G01*
X108796548Y44848992D01*
G75*
G02*
X108921548Y44723992I0J-125000D01*
G01*
X108921548Y44473992D01*
G75*
G02*
X108796548Y44348992I-125000J0D01*
G01*
X108796548Y44348992D01*
G75*
G02*
X108671548Y44473992I0J125000D01*
G01*
G37*
G36*
G01*
X108011546Y44473992D02*
X108011546Y44723992D01*
G75*
G02*
X108136546Y44848992I125000J0D01*
G01*
X108136546Y44848992D01*
G75*
G02*
X108261546Y44723992I0J-125000D01*
G01*
X108261546Y44473992D01*
G75*
G02*
X108136546Y44348992I-125000J0D01*
G01*
X108136546Y44348992D01*
G75*
G02*
X108011546Y44473992I0J125000D01*
G01*
G37*
G36*
G01*
X104685452Y44473992D02*
X104685452Y44723992D01*
G75*
G02*
X104810452Y44848992I125000J0D01*
G01*
X104810452Y44848992D01*
G75*
G02*
X104935452Y44723992I0J-125000D01*
G01*
X104935452Y44473992D01*
G75*
G02*
X104810452Y44348992I-125000J0D01*
G01*
X104810452Y44348992D01*
G75*
G02*
X104685452Y44473992I0J125000D01*
G01*
G37*
G36*
G01*
X104025451Y44473992D02*
X104025451Y44723992D01*
G75*
G02*
X104150451Y44848992I125000J0D01*
G01*
X104150451Y44848992D01*
G75*
G02*
X104275451Y44723992I0J-125000D01*
G01*
X104275451Y44473992D01*
G75*
G02*
X104150451Y44348992I-125000J0D01*
G01*
X104150451Y44348992D01*
G75*
G02*
X104025451Y44473992I0J125000D01*
G01*
G37*
G36*
G01*
X103365449Y44473992D02*
X103365449Y44723992D01*
G75*
G02*
X103490449Y44848992I125000J0D01*
G01*
X103490449Y44848992D01*
G75*
G02*
X103615449Y44723992I0J-125000D01*
G01*
X103615449Y44473992D01*
G75*
G02*
X103490449Y44348992I-125000J0D01*
G01*
X103490449Y44348992D01*
G75*
G02*
X103365449Y44473992I0J125000D01*
G01*
G37*
G36*
G01*
X100719458Y44473992D02*
X100719458Y44723992D01*
G75*
G02*
X100844458Y44848992I125000J0D01*
G01*
X100844458Y44848992D01*
G75*
G02*
X100969458Y44723992I0J-125000D01*
G01*
X100969458Y44473992D01*
G75*
G02*
X100844458Y44348992I-125000J0D01*
G01*
X100844458Y44348992D01*
G75*
G02*
X100719458Y44473992I0J125000D01*
G01*
G37*
G36*
G01*
X100059457Y44473992D02*
X100059457Y44723992D01*
G75*
G02*
X100184457Y44848992I125000J0D01*
G01*
X100184457Y44848992D01*
G75*
G02*
X100309457Y44723992I0J-125000D01*
G01*
X100309457Y44473992D01*
G75*
G02*
X100184457Y44348992I-125000J0D01*
G01*
X100184457Y44348992D01*
G75*
G02*
X100059457Y44473992I0J125000D01*
G01*
G37*
G36*
G01*
X99399455Y44473992D02*
X99399455Y44723992D01*
G75*
G02*
X99524455Y44848992I125000J0D01*
G01*
X99524455Y44848992D01*
G75*
G02*
X99649455Y44723992I0J-125000D01*
G01*
X99649455Y44473992D01*
G75*
G02*
X99524455Y44348992I-125000J0D01*
G01*
X99524455Y44348992D01*
G75*
G02*
X99399455Y44473992I0J125000D01*
G01*
G37*
G36*
G01*
X98739454Y44473992D02*
X98739454Y44723992D01*
G75*
G02*
X98864454Y44848992I125000J0D01*
G01*
X98864454Y44848992D01*
G75*
G02*
X98989454Y44723992I0J-125000D01*
G01*
X98989454Y44473992D01*
G75*
G02*
X98864454Y44348992I-125000J0D01*
G01*
X98864454Y44348992D01*
G75*
G02*
X98739454Y44473992I0J125000D01*
G01*
G37*
G36*
G01*
X98079453Y44473992D02*
X98079453Y44723992D01*
G75*
G02*
X98204453Y44848992I125000J0D01*
G01*
X98204453Y44848992D01*
G75*
G02*
X98329453Y44723992I0J-125000D01*
G01*
X98329453Y44473992D01*
G75*
G02*
X98204453Y44348992I-125000J0D01*
G01*
X98204453Y44348992D01*
G75*
G02*
X98079453Y44473992I0J125000D01*
G01*
G37*
G36*
G01*
X97419452Y44473992D02*
X97419452Y44723992D01*
G75*
G02*
X97544452Y44848992I125000J0D01*
G01*
X97544452Y44848992D01*
G75*
G02*
X97669452Y44723992I0J-125000D01*
G01*
X97669452Y44473992D01*
G75*
G02*
X97544452Y44348992I-125000J0D01*
G01*
X97544452Y44348992D01*
G75*
G02*
X97419452Y44473992I0J125000D01*
G01*
G37*
G36*
G01*
X96759450Y44473992D02*
X96759450Y44723992D01*
G75*
G02*
X96884450Y44848992I125000J0D01*
G01*
X96884450Y44848992D01*
G75*
G02*
X97009450Y44723992I0J-125000D01*
G01*
X97009450Y44473992D01*
G75*
G02*
X96884450Y44348992I-125000J0D01*
G01*
X96884450Y44348992D01*
G75*
G02*
X96759450Y44473992I0J125000D01*
G01*
G37*
G36*
G01*
X96099449Y44473992D02*
X96099449Y44723992D01*
G75*
G02*
X96224449Y44848992I125000J0D01*
G01*
X96224449Y44848992D01*
G75*
G02*
X96349449Y44723992I0J-125000D01*
G01*
X96349449Y44473992D01*
G75*
G02*
X96224449Y44348992I-125000J0D01*
G01*
X96224449Y44348992D01*
G75*
G02*
X96099449Y44473992I0J125000D01*
G01*
G37*
G36*
G01*
X95439448Y44473992D02*
X95439448Y44723992D01*
G75*
G02*
X95564448Y44848992I125000J0D01*
G01*
X95564448Y44848992D01*
G75*
G02*
X95689448Y44723992I0J-125000D01*
G01*
X95689448Y44473992D01*
G75*
G02*
X95564448Y44348992I-125000J0D01*
G01*
X95564448Y44348992D01*
G75*
G02*
X95439448Y44473992I0J125000D01*
G01*
G37*
G36*
G01*
X94779446Y44473992D02*
X94779446Y44723992D01*
G75*
G02*
X94904446Y44848992I125000J0D01*
G01*
X94904446Y44848992D01*
G75*
G02*
X95029446Y44723992I0J-125000D01*
G01*
X95029446Y44473992D01*
G75*
G02*
X94904446Y44348992I-125000J0D01*
G01*
X94904446Y44348992D01*
G75*
G02*
X94779446Y44473992I0J125000D01*
G01*
G37*
G04 #@! TD*
D10*
G04 #@! TO.C,P2*
X146260000Y7210000D03*
D11*
X143810000Y15010000D03*
D10*
X94060000Y7210000D03*
D11*
X22010000Y15010000D03*
D10*
X19560000Y7210000D03*
D12*
X26660000Y12210000D03*
X32460000Y12210000D03*
X29560000Y14540000D03*
X26660000Y20340000D03*
X32460000Y20340000D03*
D13*
X86080000Y20340000D03*
X83540000Y20340000D03*
X81000000Y20340000D03*
X78460000Y20340000D03*
X75920000Y20340000D03*
X73380000Y20340000D03*
X70840000Y20340000D03*
X68300000Y20340000D03*
X65760000Y20340000D03*
X63220000Y20340000D03*
X60680000Y20340000D03*
X58140000Y20340000D03*
X55600000Y20340000D03*
X53060000Y20340000D03*
X50520000Y20340000D03*
X47980000Y20340000D03*
X45440000Y20340000D03*
X42900000Y20340000D03*
X40360000Y20340000D03*
X86080000Y17800000D03*
X83540000Y17800000D03*
X81000000Y17800000D03*
X78460000Y17800000D03*
X75920000Y17800000D03*
X73380000Y17800000D03*
X70840000Y17800000D03*
X68300000Y17800000D03*
X65760000Y17800000D03*
X63220000Y17800000D03*
X60680000Y17800000D03*
X58140000Y17800000D03*
X55600000Y17800000D03*
X53060000Y17800000D03*
X50520000Y17800000D03*
X47980000Y17800000D03*
X45440000Y17800000D03*
X42900000Y17800000D03*
X40360000Y17800000D03*
X86080000Y11750000D03*
X83540000Y11750000D03*
X81000000Y11750000D03*
X78460000Y11750000D03*
X75920000Y11750000D03*
X73380000Y11750000D03*
X70840000Y11750000D03*
X68300000Y11750000D03*
X65760000Y11750000D03*
X63220000Y11750000D03*
X60680000Y11750000D03*
X58140000Y11750000D03*
X55600000Y11750000D03*
X53060000Y11750000D03*
X50520000Y11750000D03*
X47980000Y11750000D03*
X45440000Y11750000D03*
X42900000Y11750000D03*
X40360000Y11750000D03*
X86080000Y9210000D03*
X83540000Y9210000D03*
X81000000Y9210000D03*
X78460000Y9210000D03*
X75920000Y9210000D03*
X73380000Y9210000D03*
X70840000Y9210000D03*
X68300000Y9210000D03*
X65760000Y9210000D03*
X63220000Y9210000D03*
X60680000Y9210000D03*
X58140000Y9210000D03*
X55600000Y9210000D03*
X53060000Y9210000D03*
X50520000Y9210000D03*
X47980000Y9210000D03*
X45440000Y9210000D03*
X42900000Y9210000D03*
X40360000Y9210000D03*
X102050000Y9210000D03*
X104590000Y9210000D03*
X107130000Y9210000D03*
X109670000Y9210000D03*
X112210000Y9210000D03*
X114750000Y9210000D03*
X117290000Y9210000D03*
X119830000Y9210000D03*
X102050000Y11750000D03*
X104590000Y11750000D03*
X107130000Y11750000D03*
X109670000Y11750000D03*
X112210000Y11750000D03*
X114750000Y11750000D03*
X117290000Y11750000D03*
X119830000Y11750000D03*
X102050000Y17800000D03*
X104590000Y17800000D03*
X107130000Y17800000D03*
X109670000Y17800000D03*
X112210000Y17800000D03*
X114750000Y17800000D03*
X117290000Y17800000D03*
X119830000Y17800000D03*
X102050000Y20340000D03*
X104590000Y20340000D03*
X107130000Y20340000D03*
X109670000Y20340000D03*
X112210000Y20340000D03*
X114750000Y20340000D03*
X117290000Y20340000D03*
X119830000Y20340000D03*
D12*
X127660000Y12210000D03*
X133460000Y12210000D03*
X139360000Y12210000D03*
X130560000Y14540000D03*
X136460000Y14540000D03*
X127660000Y20340000D03*
X133460000Y20340000D03*
X139360000Y20340000D03*
G04 #@! TD*
G04 #@! TO.C,M4*
G36*
G01*
X134456444Y92486109D02*
X134206444Y92486109D01*
G75*
G02*
X134081444Y92611109I0J125000D01*
G01*
X134081444Y92611109D01*
G75*
G02*
X134206444Y92736109I125000J0D01*
G01*
X134456444Y92736109D01*
G75*
G02*
X134581444Y92611109I0J-125000D01*
G01*
X134581444Y92611109D01*
G75*
G02*
X134456444Y92486109I-125000J0D01*
G01*
G37*
G36*
G01*
X134206444Y92076111D02*
X134456444Y92076111D01*
G75*
G02*
X134581444Y91951111I0J-125000D01*
G01*
X134581444Y91951111D01*
G75*
G02*
X134456444Y91826111I-125000J0D01*
G01*
X134206444Y91826111D01*
G75*
G02*
X134081444Y91951111I0J125000D01*
G01*
X134081444Y91951111D01*
G75*
G02*
X134206444Y92076111I125000J0D01*
G01*
G37*
G36*
G01*
X134206444Y91416106D02*
X134456444Y91416106D01*
G75*
G02*
X134581444Y91291106I0J-125000D01*
G01*
X134581444Y91291106D01*
G75*
G02*
X134456444Y91166106I-125000J0D01*
G01*
X134206444Y91166106D01*
G75*
G02*
X134081444Y91291106I0J125000D01*
G01*
X134081444Y91291106D01*
G75*
G02*
X134206444Y91416106I125000J0D01*
G01*
G37*
G36*
G01*
X134206444Y90756111D02*
X134456444Y90756111D01*
G75*
G02*
X134581444Y90631111I0J-125000D01*
G01*
X134581444Y90631111D01*
G75*
G02*
X134456444Y90506111I-125000J0D01*
G01*
X134206444Y90506111D01*
G75*
G02*
X134081444Y90631111I0J125000D01*
G01*
X134081444Y90631111D01*
G75*
G02*
X134206444Y90756111I125000J0D01*
G01*
G37*
G36*
G01*
X134206444Y90096109D02*
X134456444Y90096109D01*
G75*
G02*
X134581444Y89971109I0J-125000D01*
G01*
X134581444Y89971109D01*
G75*
G02*
X134456444Y89846109I-125000J0D01*
G01*
X134206444Y89846109D01*
G75*
G02*
X134081444Y89971109I0J125000D01*
G01*
X134081444Y89971109D01*
G75*
G02*
X134206444Y90096109I125000J0D01*
G01*
G37*
G36*
G01*
X134206444Y86796108D02*
X134456444Y86796108D01*
G75*
G02*
X134581444Y86671108I0J-125000D01*
G01*
X134581444Y86671108D01*
G75*
G02*
X134456444Y86546108I-125000J0D01*
G01*
X134206444Y86546108D01*
G75*
G02*
X134081444Y86671108I0J125000D01*
G01*
X134081444Y86671108D01*
G75*
G02*
X134206444Y86796108I125000J0D01*
G01*
G37*
G36*
G01*
X134206444Y86136107D02*
X134456444Y86136107D01*
G75*
G02*
X134581444Y86011107I0J-125000D01*
G01*
X134581444Y86011107D01*
G75*
G02*
X134456444Y85886107I-125000J0D01*
G01*
X134206444Y85886107D01*
G75*
G02*
X134081444Y86011107I0J125000D01*
G01*
X134081444Y86011107D01*
G75*
G02*
X134206444Y86136107I125000J0D01*
G01*
G37*
G36*
G01*
X134206444Y85476105D02*
X134456444Y85476105D01*
G75*
G02*
X134581444Y85351105I0J-125000D01*
G01*
X134581444Y85351105D01*
G75*
G02*
X134456444Y85226105I-125000J0D01*
G01*
X134206444Y85226105D01*
G75*
G02*
X134081444Y85351105I0J125000D01*
G01*
X134081444Y85351105D01*
G75*
G02*
X134206444Y85476105I125000J0D01*
G01*
G37*
G36*
G01*
X134206444Y84816107D02*
X134456444Y84816107D01*
G75*
G02*
X134581444Y84691107I0J-125000D01*
G01*
X134581444Y84691107D01*
G75*
G02*
X134456444Y84566107I-125000J0D01*
G01*
X134206444Y84566107D01*
G75*
G02*
X134081444Y84691107I0J125000D01*
G01*
X134081444Y84691107D01*
G75*
G02*
X134206444Y84816107I125000J0D01*
G01*
G37*
G36*
G01*
X134206444Y84156105D02*
X134456444Y84156105D01*
G75*
G02*
X134581444Y84031105I0J-125000D01*
G01*
X134581444Y84031105D01*
G75*
G02*
X134456444Y83906105I-125000J0D01*
G01*
X134206444Y83906105D01*
G75*
G02*
X134081444Y84031105I0J125000D01*
G01*
X134081444Y84031105D01*
G75*
G02*
X134206444Y84156105I125000J0D01*
G01*
G37*
G36*
G01*
X134206444Y83496107D02*
X134456444Y83496107D01*
G75*
G02*
X134581444Y83371107I0J-125000D01*
G01*
X134581444Y83371107D01*
G75*
G02*
X134456444Y83246107I-125000J0D01*
G01*
X134206444Y83246107D01*
G75*
G02*
X134081444Y83371107I0J125000D01*
G01*
X134081444Y83371107D01*
G75*
G02*
X134206444Y83496107I125000J0D01*
G01*
G37*
G36*
G01*
X134206444Y82836106D02*
X134456444Y82836106D01*
G75*
G02*
X134581444Y82711106I0J-125000D01*
G01*
X134581444Y82711106D01*
G75*
G02*
X134456444Y82586106I-125000J0D01*
G01*
X134206444Y82586106D01*
G75*
G02*
X134081444Y82711106I0J125000D01*
G01*
X134081444Y82711106D01*
G75*
G02*
X134206444Y82836106I125000J0D01*
G01*
G37*
G36*
G01*
X134206444Y82176107D02*
X134456444Y82176107D01*
G75*
G02*
X134581444Y82051107I0J-125000D01*
G01*
X134581444Y82051107D01*
G75*
G02*
X134456444Y81926107I-125000J0D01*
G01*
X134206444Y81926107D01*
G75*
G02*
X134081444Y82051107I0J125000D01*
G01*
X134081444Y82051107D01*
G75*
G02*
X134206444Y82176107I125000J0D01*
G01*
G37*
G36*
G01*
X134206444Y81516106D02*
X134456444Y81516106D01*
G75*
G02*
X134581444Y81391106I0J-125000D01*
G01*
X134581444Y81391106D01*
G75*
G02*
X134456444Y81266106I-125000J0D01*
G01*
X134206444Y81266106D01*
G75*
G02*
X134081444Y81391106I0J125000D01*
G01*
X134081444Y81391106D01*
G75*
G02*
X134206444Y81516106I125000J0D01*
G01*
G37*
G36*
G01*
X134206444Y80856107D02*
X134456444Y80856107D01*
G75*
G02*
X134581444Y80731107I0J-125000D01*
G01*
X134581444Y80731107D01*
G75*
G02*
X134456444Y80606107I-125000J0D01*
G01*
X134206444Y80606107D01*
G75*
G02*
X134081444Y80731107I0J125000D01*
G01*
X134081444Y80731107D01*
G75*
G02*
X134206444Y80856107I125000J0D01*
G01*
G37*
G36*
G01*
X134206444Y80196106D02*
X134456444Y80196106D01*
G75*
G02*
X134581444Y80071106I0J-125000D01*
G01*
X134581444Y80071106D01*
G75*
G02*
X134456444Y79946106I-125000J0D01*
G01*
X134206444Y79946106D01*
G75*
G02*
X134081444Y80071106I0J125000D01*
G01*
X134081444Y80071106D01*
G75*
G02*
X134206444Y80196106I125000J0D01*
G01*
G37*
G36*
G01*
X134206444Y79536107D02*
X134456444Y79536107D01*
G75*
G02*
X134581444Y79411107I0J-125000D01*
G01*
X134581444Y79411107D01*
G75*
G02*
X134456444Y79286107I-125000J0D01*
G01*
X134206444Y79286107D01*
G75*
G02*
X134081444Y79411107I0J125000D01*
G01*
X134081444Y79411107D01*
G75*
G02*
X134206444Y79536107I125000J0D01*
G01*
G37*
G36*
G01*
X134206444Y78876106D02*
X134456444Y78876106D01*
G75*
G02*
X134581444Y78751106I0J-125000D01*
G01*
X134581444Y78751106D01*
G75*
G02*
X134456444Y78626106I-125000J0D01*
G01*
X134206444Y78626106D01*
G75*
G02*
X134081444Y78751106I0J125000D01*
G01*
X134081444Y78751106D01*
G75*
G02*
X134206444Y78876106I125000J0D01*
G01*
G37*
G36*
G01*
X134206444Y78216107D02*
X134456444Y78216107D01*
G75*
G02*
X134581444Y78091107I0J-125000D01*
G01*
X134581444Y78091107D01*
G75*
G02*
X134456444Y77966107I-125000J0D01*
G01*
X134206444Y77966107D01*
G75*
G02*
X134081444Y78091107I0J125000D01*
G01*
X134081444Y78091107D01*
G75*
G02*
X134206444Y78216107I125000J0D01*
G01*
G37*
G36*
G01*
X134206444Y77556106D02*
X134456444Y77556106D01*
G75*
G02*
X134581444Y77431106I0J-125000D01*
G01*
X134581444Y77431106D01*
G75*
G02*
X134456444Y77306106I-125000J0D01*
G01*
X134206444Y77306106D01*
G75*
G02*
X134081444Y77431106I0J125000D01*
G01*
X134081444Y77431106D01*
G75*
G02*
X134206444Y77556106I125000J0D01*
G01*
G37*
G36*
G01*
X134206444Y76896107D02*
X134456444Y76896107D01*
G75*
G02*
X134581444Y76771107I0J-125000D01*
G01*
X134581444Y76771107D01*
G75*
G02*
X134456444Y76646107I-125000J0D01*
G01*
X134206444Y76646107D01*
G75*
G02*
X134081444Y76771107I0J125000D01*
G01*
X134081444Y76771107D01*
G75*
G02*
X134206444Y76896107I125000J0D01*
G01*
G37*
G36*
G01*
X134206444Y76236106D02*
X134456444Y76236106D01*
G75*
G02*
X134581444Y76111106I0J-125000D01*
G01*
X134581444Y76111106D01*
G75*
G02*
X134456444Y75986106I-125000J0D01*
G01*
X134206444Y75986106D01*
G75*
G02*
X134081444Y76111106I0J125000D01*
G01*
X134081444Y76111106D01*
G75*
G02*
X134206444Y76236106I125000J0D01*
G01*
G37*
G36*
G01*
X134206444Y75576107D02*
X134456444Y75576107D01*
G75*
G02*
X134581444Y75451107I0J-125000D01*
G01*
X134581444Y75451107D01*
G75*
G02*
X134456444Y75326107I-125000J0D01*
G01*
X134206444Y75326107D01*
G75*
G02*
X134081444Y75451107I0J125000D01*
G01*
X134081444Y75451107D01*
G75*
G02*
X134206444Y75576107I125000J0D01*
G01*
G37*
G36*
G01*
X134206444Y74916106D02*
X134456444Y74916106D01*
G75*
G02*
X134581444Y74791106I0J-125000D01*
G01*
X134581444Y74791106D01*
G75*
G02*
X134456444Y74666106I-125000J0D01*
G01*
X134206444Y74666106D01*
G75*
G02*
X134081444Y74791106I0J125000D01*
G01*
X134081444Y74791106D01*
G75*
G02*
X134206444Y74916106I125000J0D01*
G01*
G37*
G36*
G01*
X134206444Y74256107D02*
X134456444Y74256107D01*
G75*
G02*
X134581444Y74131107I0J-125000D01*
G01*
X134581444Y74131107D01*
G75*
G02*
X134456444Y74006107I-125000J0D01*
G01*
X134206444Y74006107D01*
G75*
G02*
X134081444Y74131107I0J125000D01*
G01*
X134081444Y74131107D01*
G75*
G02*
X134206444Y74256107I125000J0D01*
G01*
G37*
G36*
G01*
X134206444Y73596106D02*
X134456444Y73596106D01*
G75*
G02*
X134581444Y73471106I0J-125000D01*
G01*
X134581444Y73471106D01*
G75*
G02*
X134456444Y73346106I-125000J0D01*
G01*
X134206444Y73346106D01*
G75*
G02*
X134081444Y73471106I0J125000D01*
G01*
X134081444Y73471106D01*
G75*
G02*
X134206444Y73596106I125000J0D01*
G01*
G37*
G36*
G01*
X134206444Y72936108D02*
X134456444Y72936108D01*
G75*
G02*
X134581444Y72811108I0J-125000D01*
G01*
X134581444Y72811108D01*
G75*
G02*
X134456444Y72686108I-125000J0D01*
G01*
X134206444Y72686108D01*
G75*
G02*
X134081444Y72811108I0J125000D01*
G01*
X134081444Y72811108D01*
G75*
G02*
X134206444Y72936108I125000J0D01*
G01*
G37*
G36*
G01*
X134206444Y72276106D02*
X134456444Y72276106D01*
G75*
G02*
X134581444Y72151106I0J-125000D01*
G01*
X134581444Y72151106D01*
G75*
G02*
X134456444Y72026106I-125000J0D01*
G01*
X134206444Y72026106D01*
G75*
G02*
X134081444Y72151106I0J125000D01*
G01*
X134081444Y72151106D01*
G75*
G02*
X134206444Y72276106I125000J0D01*
G01*
G37*
G36*
G01*
X134206444Y71616108D02*
X134456444Y71616108D01*
G75*
G02*
X134581444Y71491108I0J-125000D01*
G01*
X134581444Y71491108D01*
G75*
G02*
X134456444Y71366108I-125000J0D01*
G01*
X134206444Y71366108D01*
G75*
G02*
X134081444Y71491108I0J125000D01*
G01*
X134081444Y71491108D01*
G75*
G02*
X134206444Y71616108I125000J0D01*
G01*
G37*
G36*
G01*
X134206444Y70956106D02*
X134456444Y70956106D01*
G75*
G02*
X134581444Y70831106I0J-125000D01*
G01*
X134581444Y70831106D01*
G75*
G02*
X134456444Y70706106I-125000J0D01*
G01*
X134206444Y70706106D01*
G75*
G02*
X134081444Y70831106I0J125000D01*
G01*
X134081444Y70831106D01*
G75*
G02*
X134206444Y70956106I125000J0D01*
G01*
G37*
G36*
G01*
X134206444Y70296108D02*
X134456444Y70296108D01*
G75*
G02*
X134581444Y70171108I0J-125000D01*
G01*
X134581444Y70171108D01*
G75*
G02*
X134456444Y70046108I-125000J0D01*
G01*
X134206444Y70046108D01*
G75*
G02*
X134081444Y70171108I0J125000D01*
G01*
X134081444Y70171108D01*
G75*
G02*
X134206444Y70296108I125000J0D01*
G01*
G37*
G36*
G01*
X134206444Y69636107D02*
X134456444Y69636107D01*
G75*
G02*
X134581444Y69511107I0J-125000D01*
G01*
X134581444Y69511107D01*
G75*
G02*
X134456444Y69386107I-125000J0D01*
G01*
X134206444Y69386107D01*
G75*
G02*
X134081444Y69511107I0J125000D01*
G01*
X134081444Y69511107D01*
G75*
G02*
X134206444Y69636107I125000J0D01*
G01*
G37*
G36*
G01*
X134206444Y68976108D02*
X134456444Y68976108D01*
G75*
G02*
X134581444Y68851108I0J-125000D01*
G01*
X134581444Y68851108D01*
G75*
G02*
X134456444Y68726108I-125000J0D01*
G01*
X134206444Y68726108D01*
G75*
G02*
X134081444Y68851108I0J125000D01*
G01*
X134081444Y68851108D01*
G75*
G02*
X134206444Y68976108I125000J0D01*
G01*
G37*
G36*
G01*
X134206444Y68316107D02*
X134456444Y68316107D01*
G75*
G02*
X134581444Y68191107I0J-125000D01*
G01*
X134581444Y68191107D01*
G75*
G02*
X134456444Y68066107I-125000J0D01*
G01*
X134206444Y68066107D01*
G75*
G02*
X134081444Y68191107I0J125000D01*
G01*
X134081444Y68191107D01*
G75*
G02*
X134206444Y68316107I125000J0D01*
G01*
G37*
G36*
G01*
X100509446Y96863111D02*
X100509446Y96613111D01*
G75*
G02*
X100384446Y96488111I-125000J0D01*
G01*
X100384446Y96488111D01*
G75*
G02*
X100259446Y96613111I0J125000D01*
G01*
X100259446Y96863111D01*
G75*
G02*
X100384446Y96988111I125000J0D01*
G01*
X100384446Y96988111D01*
G75*
G02*
X100509446Y96863111I0J-125000D01*
G01*
G37*
G36*
G01*
X101579448Y96613111D02*
X101579448Y96863111D01*
G75*
G02*
X101704448Y96988111I125000J0D01*
G01*
X101704448Y96988111D01*
G75*
G02*
X101829448Y96863111I0J-125000D01*
G01*
X101829448Y96613111D01*
G75*
G02*
X101704448Y96488111I-125000J0D01*
G01*
X101704448Y96488111D01*
G75*
G02*
X101579448Y96613111I0J125000D01*
G01*
G37*
G36*
G01*
X102899451Y96613111D02*
X102899451Y96863111D01*
G75*
G02*
X103024451Y96988111I125000J0D01*
G01*
X103024451Y96988111D01*
G75*
G02*
X103149451Y96863111I0J-125000D01*
G01*
X103149451Y96613111D01*
G75*
G02*
X103024451Y96488111I-125000J0D01*
G01*
X103024451Y96488111D01*
G75*
G02*
X102899451Y96613111I0J125000D01*
G01*
G37*
G36*
G01*
X103659449Y96613111D02*
X103659449Y96863111D01*
G75*
G02*
X103784449Y96988111I125000J0D01*
G01*
X103784449Y96988111D01*
G75*
G02*
X103909449Y96863111I0J-125000D01*
G01*
X103909449Y96613111D01*
G75*
G02*
X103784449Y96488111I-125000J0D01*
G01*
X103784449Y96488111D01*
G75*
G02*
X103659449Y96613111I0J125000D01*
G01*
G37*
G36*
G01*
X104324452Y96613111D02*
X104324452Y96863111D01*
G75*
G02*
X104449452Y96988111I125000J0D01*
G01*
X104449452Y96988111D01*
G75*
G02*
X104574452Y96863111I0J-125000D01*
G01*
X104574452Y96613111D01*
G75*
G02*
X104449452Y96488111I-125000J0D01*
G01*
X104449452Y96488111D01*
G75*
G02*
X104324452Y96613111I0J125000D01*
G01*
G37*
G36*
G01*
X104989454Y96613111D02*
X104989454Y96863111D01*
G75*
G02*
X105114454Y96988111I125000J0D01*
G01*
X105114454Y96988111D01*
G75*
G02*
X105239454Y96863111I0J-125000D01*
G01*
X105239454Y96613111D01*
G75*
G02*
X105114454Y96488111I-125000J0D01*
G01*
X105114454Y96488111D01*
G75*
G02*
X104989454Y96613111I0J125000D01*
G01*
G37*
G36*
G01*
X105654444Y96613111D02*
X105654444Y96863111D01*
G75*
G02*
X105779444Y96988111I125000J0D01*
G01*
X105779444Y96988111D01*
G75*
G02*
X105904444Y96863111I0J-125000D01*
G01*
X105904444Y96613111D01*
G75*
G02*
X105779444Y96488111I-125000J0D01*
G01*
X105779444Y96488111D01*
G75*
G02*
X105654444Y96613111I0J125000D01*
G01*
G37*
G36*
G01*
X106429444Y96613111D02*
X106429444Y96863111D01*
G75*
G02*
X106554444Y96988111I125000J0D01*
G01*
X106554444Y96988111D01*
G75*
G02*
X106679444Y96863111I0J-125000D01*
G01*
X106679444Y96613111D01*
G75*
G02*
X106554444Y96488111I-125000J0D01*
G01*
X106554444Y96488111D01*
G75*
G02*
X106429444Y96613111I0J125000D01*
G01*
G37*
G36*
G01*
X107529442Y96613111D02*
X107529442Y96863111D01*
G75*
G02*
X107654442Y96988111I125000J0D01*
G01*
X107654442Y96988111D01*
G75*
G02*
X107779442Y96863111I0J-125000D01*
G01*
X107779442Y96613111D01*
G75*
G02*
X107654442Y96488111I-125000J0D01*
G01*
X107654442Y96488111D01*
G75*
G02*
X107529442Y96613111I0J125000D01*
G01*
G37*
G36*
G01*
X108629439Y96613111D02*
X108629439Y96863111D01*
G75*
G02*
X108754439Y96988111I125000J0D01*
G01*
X108754439Y96988111D01*
G75*
G02*
X108879439Y96863111I0J-125000D01*
G01*
X108879439Y96613111D01*
G75*
G02*
X108754439Y96488111I-125000J0D01*
G01*
X108754439Y96488111D01*
G75*
G02*
X108629439Y96613111I0J125000D01*
G01*
G37*
G36*
G01*
X109729437Y96613111D02*
X109729437Y96863111D01*
G75*
G02*
X109854437Y96988111I125000J0D01*
G01*
X109854437Y96988111D01*
G75*
G02*
X109979437Y96863111I0J-125000D01*
G01*
X109979437Y96613111D01*
G75*
G02*
X109854437Y96488111I-125000J0D01*
G01*
X109854437Y96488111D01*
G75*
G02*
X109729437Y96613111I0J125000D01*
G01*
G37*
G36*
G01*
X110829435Y96613111D02*
X110829435Y96863111D01*
G75*
G02*
X110954435Y96988111I125000J0D01*
G01*
X110954435Y96988111D01*
G75*
G02*
X111079435Y96863111I0J-125000D01*
G01*
X111079435Y96613111D01*
G75*
G02*
X110954435Y96488111I-125000J0D01*
G01*
X110954435Y96488111D01*
G75*
G02*
X110829435Y96613111I0J125000D01*
G01*
G37*
G36*
G01*
X111929433Y96613111D02*
X111929433Y96863111D01*
G75*
G02*
X112054433Y96988111I125000J0D01*
G01*
X112054433Y96988111D01*
G75*
G02*
X112179433Y96863111I0J-125000D01*
G01*
X112179433Y96613111D01*
G75*
G02*
X112054433Y96488111I-125000J0D01*
G01*
X112054433Y96488111D01*
G75*
G02*
X111929433Y96613111I0J125000D01*
G01*
G37*
G36*
G01*
X113029431Y96613111D02*
X113029431Y96863111D01*
G75*
G02*
X113154431Y96988111I125000J0D01*
G01*
X113154431Y96988111D01*
G75*
G02*
X113279431Y96863111I0J-125000D01*
G01*
X113279431Y96613111D01*
G75*
G02*
X113154431Y96488111I-125000J0D01*
G01*
X113154431Y96488111D01*
G75*
G02*
X113029431Y96613111I0J125000D01*
G01*
G37*
G36*
G01*
X114129428Y96613111D02*
X114129428Y96863111D01*
G75*
G02*
X114254428Y96988111I125000J0D01*
G01*
X114254428Y96988111D01*
G75*
G02*
X114379428Y96863111I0J-125000D01*
G01*
X114379428Y96613111D01*
G75*
G02*
X114254428Y96488111I-125000J0D01*
G01*
X114254428Y96488111D01*
G75*
G02*
X114129428Y96613111I0J125000D01*
G01*
G37*
G36*
G01*
X115229426Y96613111D02*
X115229426Y96863111D01*
G75*
G02*
X115354426Y96988111I125000J0D01*
G01*
X115354426Y96988111D01*
G75*
G02*
X115479426Y96863111I0J-125000D01*
G01*
X115479426Y96613111D01*
G75*
G02*
X115354426Y96488111I-125000J0D01*
G01*
X115354426Y96488111D01*
G75*
G02*
X115229426Y96613111I0J125000D01*
G01*
G37*
G36*
G01*
X116329424Y96613111D02*
X116329424Y96863111D01*
G75*
G02*
X116454424Y96988111I125000J0D01*
G01*
X116454424Y96988111D01*
G75*
G02*
X116579424Y96863111I0J-125000D01*
G01*
X116579424Y96613111D01*
G75*
G02*
X116454424Y96488111I-125000J0D01*
G01*
X116454424Y96488111D01*
G75*
G02*
X116329424Y96613111I0J125000D01*
G01*
G37*
G36*
G01*
X117429422Y96613111D02*
X117429422Y96863111D01*
G75*
G02*
X117554422Y96988111I125000J0D01*
G01*
X117554422Y96988111D01*
G75*
G02*
X117679422Y96863111I0J-125000D01*
G01*
X117679422Y96613111D01*
G75*
G02*
X117554422Y96488111I-125000J0D01*
G01*
X117554422Y96488111D01*
G75*
G02*
X117429422Y96613111I0J125000D01*
G01*
G37*
G36*
G01*
X118529420Y96613111D02*
X118529420Y96863111D01*
G75*
G02*
X118654420Y96988111I125000J0D01*
G01*
X118654420Y96988111D01*
G75*
G02*
X118779420Y96863111I0J-125000D01*
G01*
X118779420Y96613111D01*
G75*
G02*
X118654420Y96488111I-125000J0D01*
G01*
X118654420Y96488111D01*
G75*
G02*
X118529420Y96613111I0J125000D01*
G01*
G37*
G36*
G01*
X119629417Y96613111D02*
X119629417Y96863111D01*
G75*
G02*
X119754417Y96988111I125000J0D01*
G01*
X119754417Y96988111D01*
G75*
G02*
X119879417Y96863111I0J-125000D01*
G01*
X119879417Y96613111D01*
G75*
G02*
X119754417Y96488111I-125000J0D01*
G01*
X119754417Y96488111D01*
G75*
G02*
X119629417Y96613111I0J125000D01*
G01*
G37*
G36*
G01*
X120729415Y96613111D02*
X120729415Y96863111D01*
G75*
G02*
X120854415Y96988111I125000J0D01*
G01*
X120854415Y96988111D01*
G75*
G02*
X120979415Y96863111I0J-125000D01*
G01*
X120979415Y96613111D01*
G75*
G02*
X120854415Y96488111I-125000J0D01*
G01*
X120854415Y96488111D01*
G75*
G02*
X120729415Y96613111I0J125000D01*
G01*
G37*
G36*
G01*
X121829413Y96613111D02*
X121829413Y96863111D01*
G75*
G02*
X121954413Y96988111I125000J0D01*
G01*
X121954413Y96988111D01*
G75*
G02*
X122079413Y96863111I0J-125000D01*
G01*
X122079413Y96613111D01*
G75*
G02*
X121954413Y96488111I-125000J0D01*
G01*
X121954413Y96488111D01*
G75*
G02*
X121829413Y96613111I0J125000D01*
G01*
G37*
G36*
G01*
X122929411Y96613111D02*
X122929411Y96863111D01*
G75*
G02*
X123054411Y96988111I125000J0D01*
G01*
X123054411Y96988111D01*
G75*
G02*
X123179411Y96863111I0J-125000D01*
G01*
X123179411Y96613111D01*
G75*
G02*
X123054411Y96488111I-125000J0D01*
G01*
X123054411Y96488111D01*
G75*
G02*
X122929411Y96613111I0J125000D01*
G01*
G37*
G36*
G01*
X124029409Y96613111D02*
X124029409Y96863111D01*
G75*
G02*
X124154409Y96988111I125000J0D01*
G01*
X124154409Y96988111D01*
G75*
G02*
X124279409Y96863111I0J-125000D01*
G01*
X124279409Y96613111D01*
G75*
G02*
X124154409Y96488111I-125000J0D01*
G01*
X124154409Y96488111D01*
G75*
G02*
X124029409Y96613111I0J125000D01*
G01*
G37*
G36*
G01*
X125129406Y96613111D02*
X125129406Y96863111D01*
G75*
G02*
X125254406Y96988111I125000J0D01*
G01*
X125254406Y96988111D01*
G75*
G02*
X125379406Y96863111I0J-125000D01*
G01*
X125379406Y96613111D01*
G75*
G02*
X125254406Y96488111I-125000J0D01*
G01*
X125254406Y96488111D01*
G75*
G02*
X125129406Y96613111I0J125000D01*
G01*
G37*
G36*
G01*
X126229404Y96613111D02*
X126229404Y96863111D01*
G75*
G02*
X126354404Y96988111I125000J0D01*
G01*
X126354404Y96988111D01*
G75*
G02*
X126479404Y96863111I0J-125000D01*
G01*
X126479404Y96613111D01*
G75*
G02*
X126354404Y96488111I-125000J0D01*
G01*
X126354404Y96488111D01*
G75*
G02*
X126229404Y96613111I0J125000D01*
G01*
G37*
G36*
G01*
X127329402Y96613111D02*
X127329402Y96863111D01*
G75*
G02*
X127454402Y96988111I125000J0D01*
G01*
X127454402Y96988111D01*
G75*
G02*
X127579402Y96863111I0J-125000D01*
G01*
X127579402Y96613111D01*
G75*
G02*
X127454402Y96488111I-125000J0D01*
G01*
X127454402Y96488111D01*
G75*
G02*
X127329402Y96613111I0J125000D01*
G01*
G37*
G36*
G01*
X128429400Y96613111D02*
X128429400Y96863111D01*
G75*
G02*
X128554400Y96988111I125000J0D01*
G01*
X128554400Y96988111D01*
G75*
G02*
X128679400Y96863111I0J-125000D01*
G01*
X128679400Y96613111D01*
G75*
G02*
X128554400Y96488111I-125000J0D01*
G01*
X128554400Y96488111D01*
G75*
G02*
X128429400Y96613111I0J125000D01*
G01*
G37*
G36*
G01*
X129529398Y96613111D02*
X129529398Y96863111D01*
G75*
G02*
X129654398Y96988111I125000J0D01*
G01*
X129654398Y96988111D01*
G75*
G02*
X129779398Y96863111I0J-125000D01*
G01*
X129779398Y96613111D01*
G75*
G02*
X129654398Y96488111I-125000J0D01*
G01*
X129654398Y96488111D01*
G75*
G02*
X129529398Y96613111I0J125000D01*
G01*
G37*
G36*
G01*
X130629395Y96613111D02*
X130629395Y96863111D01*
G75*
G02*
X130754395Y96988111I125000J0D01*
G01*
X130754395Y96988111D01*
G75*
G02*
X130879395Y96863111I0J-125000D01*
G01*
X130879395Y96613111D01*
G75*
G02*
X130754395Y96488111I-125000J0D01*
G01*
X130754395Y96488111D01*
G75*
G02*
X130629395Y96613111I0J125000D01*
G01*
G37*
G36*
G01*
X131729393Y96613111D02*
X131729393Y96863111D01*
G75*
G02*
X131854393Y96988111I125000J0D01*
G01*
X131854393Y96988111D01*
G75*
G02*
X131979393Y96863111I0J-125000D01*
G01*
X131979393Y96613111D01*
G75*
G02*
X131854393Y96488111I-125000J0D01*
G01*
X131854393Y96488111D01*
G75*
G02*
X131729393Y96613111I0J125000D01*
G01*
G37*
G36*
G01*
X132829391Y96613111D02*
X132829391Y96863111D01*
G75*
G02*
X132954391Y96988111I125000J0D01*
G01*
X132954391Y96988111D01*
G75*
G02*
X133079391Y96863111I0J-125000D01*
G01*
X133079391Y96613111D01*
G75*
G02*
X132954391Y96488111I-125000J0D01*
G01*
X132954391Y96488111D01*
G75*
G02*
X132829391Y96613111I0J125000D01*
G01*
G37*
G36*
G01*
X93999459Y96613111D02*
X93999459Y96863111D01*
G75*
G02*
X94124459Y96988111I125000J0D01*
G01*
X94124459Y96988111D01*
G75*
G02*
X94249459Y96863111I0J-125000D01*
G01*
X94249459Y96613111D01*
G75*
G02*
X94124459Y96488111I-125000J0D01*
G01*
X94124459Y96488111D01*
G75*
G02*
X93999459Y96613111I0J125000D01*
G01*
G37*
G36*
G01*
X95099456Y96613111D02*
X95099456Y96863111D01*
G75*
G02*
X95224456Y96988111I125000J0D01*
G01*
X95224456Y96988111D01*
G75*
G02*
X95349456Y96863111I0J-125000D01*
G01*
X95349456Y96613111D01*
G75*
G02*
X95224456Y96488111I-125000J0D01*
G01*
X95224456Y96488111D01*
G75*
G02*
X95099456Y96613111I0J125000D01*
G01*
G37*
G36*
G01*
X96199454Y96613111D02*
X96199454Y96863111D01*
G75*
G02*
X96324454Y96988111I125000J0D01*
G01*
X96324454Y96988111D01*
G75*
G02*
X96449454Y96863111I0J-125000D01*
G01*
X96449454Y96613111D01*
G75*
G02*
X96324454Y96488111I-125000J0D01*
G01*
X96324454Y96488111D01*
G75*
G02*
X96199454Y96613111I0J125000D01*
G01*
G37*
G36*
G01*
X97299452Y96613111D02*
X97299452Y96863111D01*
G75*
G02*
X97424452Y96988111I125000J0D01*
G01*
X97424452Y96988111D01*
G75*
G02*
X97549452Y96863111I0J-125000D01*
G01*
X97549452Y96613111D01*
G75*
G02*
X97424452Y96488111I-125000J0D01*
G01*
X97424452Y96488111D01*
G75*
G02*
X97299452Y96613111I0J125000D01*
G01*
G37*
G36*
G01*
X98399450Y96613111D02*
X98399450Y96863111D01*
G75*
G02*
X98524450Y96988111I125000J0D01*
G01*
X98524450Y96988111D01*
G75*
G02*
X98649450Y96863111I0J-125000D01*
G01*
X98649450Y96613111D01*
G75*
G02*
X98524450Y96488111I-125000J0D01*
G01*
X98524450Y96488111D01*
G75*
G02*
X98399450Y96613111I0J125000D01*
G01*
G37*
G36*
G01*
X125829448Y60684111D02*
X125829448Y60934111D01*
G75*
G02*
X125954448Y61059111I125000J0D01*
G01*
X125954448Y61059111D01*
G75*
G02*
X126079448Y60934111I0J-125000D01*
G01*
X126079448Y60684111D01*
G75*
G02*
X125954448Y60559111I-125000J0D01*
G01*
X125954448Y60559111D01*
G75*
G02*
X125829448Y60684111I0J125000D01*
G01*
G37*
G36*
G01*
X124759446Y60934111D02*
X124759446Y60684111D01*
G75*
G02*
X124634446Y60559111I-125000J0D01*
G01*
X124634446Y60559111D01*
G75*
G02*
X124509446Y60684111I0J125000D01*
G01*
X124509446Y60934111D01*
G75*
G02*
X124634446Y61059111I125000J0D01*
G01*
X124634446Y61059111D01*
G75*
G02*
X124759446Y60934111I0J-125000D01*
G01*
G37*
G36*
G01*
X123439443Y60934111D02*
X123439443Y60684111D01*
G75*
G02*
X123314443Y60559111I-125000J0D01*
G01*
X123314443Y60559111D01*
G75*
G02*
X123189443Y60684111I0J125000D01*
G01*
X123189443Y60934111D01*
G75*
G02*
X123314443Y61059111I125000J0D01*
G01*
X123314443Y61059111D01*
G75*
G02*
X123439443Y60934111I0J-125000D01*
G01*
G37*
G36*
G01*
X122339446Y60934111D02*
X122339446Y60684111D01*
G75*
G02*
X122214446Y60559111I-125000J0D01*
G01*
X122214446Y60559111D01*
G75*
G02*
X122089446Y60684111I0J125000D01*
G01*
X122089446Y60934111D01*
G75*
G02*
X122214446Y61059111I125000J0D01*
G01*
X122214446Y61059111D01*
G75*
G02*
X122339446Y60934111I0J-125000D01*
G01*
G37*
G36*
G01*
X121239448Y60934111D02*
X121239448Y60684111D01*
G75*
G02*
X121114448Y60559111I-125000J0D01*
G01*
X121114448Y60559111D01*
G75*
G02*
X120989448Y60684111I0J125000D01*
G01*
X120989448Y60934111D01*
G75*
G02*
X121114448Y61059111I125000J0D01*
G01*
X121114448Y61059111D01*
G75*
G02*
X121239448Y60934111I0J-125000D01*
G01*
G37*
G36*
G01*
X120139450Y60934111D02*
X120139450Y60684111D01*
G75*
G02*
X120014450Y60559111I-125000J0D01*
G01*
X120014450Y60559111D01*
G75*
G02*
X119889450Y60684111I0J125000D01*
G01*
X119889450Y60934111D01*
G75*
G02*
X120014450Y61059111I125000J0D01*
G01*
X120014450Y61059111D01*
G75*
G02*
X120139450Y60934111I0J-125000D01*
G01*
G37*
G36*
G01*
X119039452Y60934111D02*
X119039452Y60684111D01*
G75*
G02*
X118914452Y60559111I-125000J0D01*
G01*
X118914452Y60559111D01*
G75*
G02*
X118789452Y60684111I0J125000D01*
G01*
X118789452Y60934111D01*
G75*
G02*
X118914452Y61059111I125000J0D01*
G01*
X118914452Y61059111D01*
G75*
G02*
X119039452Y60934111I0J-125000D01*
G01*
G37*
G36*
G01*
X117939454Y60934111D02*
X117939454Y60684111D01*
G75*
G02*
X117814454Y60559111I-125000J0D01*
G01*
X117814454Y60559111D01*
G75*
G02*
X117689454Y60684111I0J125000D01*
G01*
X117689454Y60934111D01*
G75*
G02*
X117814454Y61059111I125000J0D01*
G01*
X117814454Y61059111D01*
G75*
G02*
X117939454Y60934111I0J-125000D01*
G01*
G37*
G36*
G01*
X116839457Y60934111D02*
X116839457Y60684111D01*
G75*
G02*
X116714457Y60559111I-125000J0D01*
G01*
X116714457Y60559111D01*
G75*
G02*
X116589457Y60684111I0J125000D01*
G01*
X116589457Y60934111D01*
G75*
G02*
X116714457Y61059111I125000J0D01*
G01*
X116714457Y61059111D01*
G75*
G02*
X116839457Y60934111I0J-125000D01*
G01*
G37*
G36*
G01*
X115739459Y60934111D02*
X115739459Y60684111D01*
G75*
G02*
X115614459Y60559111I-125000J0D01*
G01*
X115614459Y60559111D01*
G75*
G02*
X115489459Y60684111I0J125000D01*
G01*
X115489459Y60934111D01*
G75*
G02*
X115614459Y61059111I125000J0D01*
G01*
X115614459Y61059111D01*
G75*
G02*
X115739459Y60934111I0J-125000D01*
G01*
G37*
G36*
G01*
X114639461Y60934111D02*
X114639461Y60684111D01*
G75*
G02*
X114514461Y60559111I-125000J0D01*
G01*
X114514461Y60559111D01*
G75*
G02*
X114389461Y60684111I0J125000D01*
G01*
X114389461Y60934111D01*
G75*
G02*
X114514461Y61059111I125000J0D01*
G01*
X114514461Y61059111D01*
G75*
G02*
X114639461Y60934111I0J-125000D01*
G01*
G37*
G36*
G01*
X113539463Y60934111D02*
X113539463Y60684111D01*
G75*
G02*
X113414463Y60559111I-125000J0D01*
G01*
X113414463Y60559111D01*
G75*
G02*
X113289463Y60684111I0J125000D01*
G01*
X113289463Y60934111D01*
G75*
G02*
X113414463Y61059111I125000J0D01*
G01*
X113414463Y61059111D01*
G75*
G02*
X113539463Y60934111I0J-125000D01*
G01*
G37*
G36*
G01*
X112439465Y60934111D02*
X112439465Y60684111D01*
G75*
G02*
X112314465Y60559111I-125000J0D01*
G01*
X112314465Y60559111D01*
G75*
G02*
X112189465Y60684111I0J125000D01*
G01*
X112189465Y60934111D01*
G75*
G02*
X112314465Y61059111I125000J0D01*
G01*
X112314465Y61059111D01*
G75*
G02*
X112439465Y60934111I0J-125000D01*
G01*
G37*
G36*
G01*
X111339468Y60934111D02*
X111339468Y60684111D01*
G75*
G02*
X111214468Y60559111I-125000J0D01*
G01*
X111214468Y60559111D01*
G75*
G02*
X111089468Y60684111I0J125000D01*
G01*
X111089468Y60934111D01*
G75*
G02*
X111214468Y61059111I125000J0D01*
G01*
X111214468Y61059111D01*
G75*
G02*
X111339468Y60934111I0J-125000D01*
G01*
G37*
G36*
G01*
X110239470Y60934111D02*
X110239470Y60684111D01*
G75*
G02*
X110114470Y60559111I-125000J0D01*
G01*
X110114470Y60559111D01*
G75*
G02*
X109989470Y60684111I0J125000D01*
G01*
X109989470Y60934111D01*
G75*
G02*
X110114470Y61059111I125000J0D01*
G01*
X110114470Y61059111D01*
G75*
G02*
X110239470Y60934111I0J-125000D01*
G01*
G37*
G36*
G01*
X109139472Y60934111D02*
X109139472Y60684111D01*
G75*
G02*
X109014472Y60559111I-125000J0D01*
G01*
X109014472Y60559111D01*
G75*
G02*
X108889472Y60684111I0J125000D01*
G01*
X108889472Y60934111D01*
G75*
G02*
X109014472Y61059111I125000J0D01*
G01*
X109014472Y61059111D01*
G75*
G02*
X109139472Y60934111I0J-125000D01*
G01*
G37*
G36*
G01*
X108039474Y60934111D02*
X108039474Y60684111D01*
G75*
G02*
X107914474Y60559111I-125000J0D01*
G01*
X107914474Y60559111D01*
G75*
G02*
X107789474Y60684111I0J125000D01*
G01*
X107789474Y60934111D01*
G75*
G02*
X107914474Y61059111I125000J0D01*
G01*
X107914474Y61059111D01*
G75*
G02*
X108039474Y60934111I0J-125000D01*
G01*
G37*
G36*
G01*
X106939476Y60934111D02*
X106939476Y60684111D01*
G75*
G02*
X106814476Y60559111I-125000J0D01*
G01*
X106814476Y60559111D01*
G75*
G02*
X106689476Y60684111I0J125000D01*
G01*
X106689476Y60934111D01*
G75*
G02*
X106814476Y61059111I125000J0D01*
G01*
X106814476Y61059111D01*
G75*
G02*
X106939476Y60934111I0J-125000D01*
G01*
G37*
G36*
G01*
X105839479Y60934111D02*
X105839479Y60684111D01*
G75*
G02*
X105714479Y60559111I-125000J0D01*
G01*
X105714479Y60559111D01*
G75*
G02*
X105589479Y60684111I0J125000D01*
G01*
X105589479Y60934111D01*
G75*
G02*
X105714479Y61059111I125000J0D01*
G01*
X105714479Y61059111D01*
G75*
G02*
X105839479Y60934111I0J-125000D01*
G01*
G37*
G36*
G01*
X104739481Y60934111D02*
X104739481Y60684111D01*
G75*
G02*
X104614481Y60559111I-125000J0D01*
G01*
X104614481Y60559111D01*
G75*
G02*
X104489481Y60684111I0J125000D01*
G01*
X104489481Y60934111D01*
G75*
G02*
X104614481Y61059111I125000J0D01*
G01*
X104614481Y61059111D01*
G75*
G02*
X104739481Y60934111I0J-125000D01*
G01*
G37*
G36*
G01*
X103639483Y60934111D02*
X103639483Y60684111D01*
G75*
G02*
X103514483Y60559111I-125000J0D01*
G01*
X103514483Y60559111D01*
G75*
G02*
X103389483Y60684111I0J125000D01*
G01*
X103389483Y60934111D01*
G75*
G02*
X103514483Y61059111I125000J0D01*
G01*
X103514483Y61059111D01*
G75*
G02*
X103639483Y60934111I0J-125000D01*
G01*
G37*
G36*
G01*
X102539485Y60934111D02*
X102539485Y60684111D01*
G75*
G02*
X102414485Y60559111I-125000J0D01*
G01*
X102414485Y60559111D01*
G75*
G02*
X102289485Y60684111I0J125000D01*
G01*
X102289485Y60934111D01*
G75*
G02*
X102414485Y61059111I125000J0D01*
G01*
X102414485Y61059111D01*
G75*
G02*
X102539485Y60934111I0J-125000D01*
G01*
G37*
G36*
G01*
X101439487Y60934111D02*
X101439487Y60684111D01*
G75*
G02*
X101314487Y60559111I-125000J0D01*
G01*
X101314487Y60559111D01*
G75*
G02*
X101189487Y60684111I0J125000D01*
G01*
X101189487Y60934111D01*
G75*
G02*
X101314487Y61059111I125000J0D01*
G01*
X101314487Y61059111D01*
G75*
G02*
X101439487Y60934111I0J-125000D01*
G01*
G37*
G36*
G01*
X100339490Y60934111D02*
X100339490Y60684111D01*
G75*
G02*
X100214490Y60559111I-125000J0D01*
G01*
X100214490Y60559111D01*
G75*
G02*
X100089490Y60684111I0J125000D01*
G01*
X100089490Y60934111D01*
G75*
G02*
X100214490Y61059111I125000J0D01*
G01*
X100214490Y61059111D01*
G75*
G02*
X100339490Y60934111I0J-125000D01*
G01*
G37*
G36*
G01*
X99239492Y60934111D02*
X99239492Y60684111D01*
G75*
G02*
X99114492Y60559111I-125000J0D01*
G01*
X99114492Y60559111D01*
G75*
G02*
X98989492Y60684111I0J125000D01*
G01*
X98989492Y60934111D01*
G75*
G02*
X99114492Y61059111I125000J0D01*
G01*
X99114492Y61059111D01*
G75*
G02*
X99239492Y60934111I0J-125000D01*
G01*
G37*
G36*
G01*
X98139494Y60934111D02*
X98139494Y60684111D01*
G75*
G02*
X98014494Y60559111I-125000J0D01*
G01*
X98014494Y60559111D01*
G75*
G02*
X97889494Y60684111I0J125000D01*
G01*
X97889494Y60934111D01*
G75*
G02*
X98014494Y61059111I125000J0D01*
G01*
X98014494Y61059111D01*
G75*
G02*
X98139494Y60934111I0J-125000D01*
G01*
G37*
G36*
G01*
X97039496Y60934111D02*
X97039496Y60684111D01*
G75*
G02*
X96914496Y60559111I-125000J0D01*
G01*
X96914496Y60559111D01*
G75*
G02*
X96789496Y60684111I0J125000D01*
G01*
X96789496Y60934111D01*
G75*
G02*
X96914496Y61059111I125000J0D01*
G01*
X96914496Y61059111D01*
G75*
G02*
X97039496Y60934111I0J-125000D01*
G01*
G37*
G36*
G01*
X95939498Y60934111D02*
X95939498Y60684111D01*
G75*
G02*
X95814498Y60559111I-125000J0D01*
G01*
X95814498Y60559111D01*
G75*
G02*
X95689498Y60684111I0J125000D01*
G01*
X95689498Y60934111D01*
G75*
G02*
X95814498Y61059111I125000J0D01*
G01*
X95814498Y61059111D01*
G75*
G02*
X95939498Y60934111I0J-125000D01*
G01*
G37*
G36*
G01*
X94839501Y60934111D02*
X94839501Y60684111D01*
G75*
G02*
X94714501Y60559111I-125000J0D01*
G01*
X94714501Y60559111D01*
G75*
G02*
X94589501Y60684111I0J125000D01*
G01*
X94589501Y60934111D01*
G75*
G02*
X94714501Y61059111I125000J0D01*
G01*
X94714501Y61059111D01*
G75*
G02*
X94839501Y60934111I0J-125000D01*
G01*
G37*
G36*
G01*
X93739503Y60934111D02*
X93739503Y60684111D01*
G75*
G02*
X93614503Y60559111I-125000J0D01*
G01*
X93614503Y60559111D01*
G75*
G02*
X93489503Y60684111I0J125000D01*
G01*
X93489503Y60934111D01*
G75*
G02*
X93614503Y61059111I125000J0D01*
G01*
X93614503Y61059111D01*
G75*
G02*
X93739503Y60934111I0J-125000D01*
G01*
G37*
G36*
G01*
X92639505Y60934111D02*
X92639505Y60684111D01*
G75*
G02*
X92514505Y60559111I-125000J0D01*
G01*
X92514505Y60559111D01*
G75*
G02*
X92389505Y60684111I0J125000D01*
G01*
X92389505Y60934111D01*
G75*
G02*
X92514505Y61059111I125000J0D01*
G01*
X92514505Y61059111D01*
G75*
G02*
X92639505Y60934111I0J-125000D01*
G01*
G37*
G36*
G01*
X91539507Y60934111D02*
X91539507Y60684111D01*
G75*
G02*
X91414507Y60559111I-125000J0D01*
G01*
X91414507Y60559111D01*
G75*
G02*
X91289507Y60684111I0J125000D01*
G01*
X91289507Y60934111D01*
G75*
G02*
X91414507Y61059111I125000J0D01*
G01*
X91414507Y61059111D01*
G75*
G02*
X91539507Y60934111I0J-125000D01*
G01*
G37*
G36*
G01*
X90439509Y60934111D02*
X90439509Y60684111D01*
G75*
G02*
X90314509Y60559111I-125000J0D01*
G01*
X90314509Y60559111D01*
G75*
G02*
X90189509Y60684111I0J125000D01*
G01*
X90189509Y60934111D01*
G75*
G02*
X90314509Y61059111I125000J0D01*
G01*
X90314509Y61059111D01*
G75*
G02*
X90439509Y60934111I0J-125000D01*
G01*
G37*
G36*
G01*
X88929446Y90741111D02*
X88679446Y90741111D01*
G75*
G02*
X88554446Y90866111I0J125000D01*
G01*
X88554446Y90866111D01*
G75*
G02*
X88679446Y90991111I125000J0D01*
G01*
X88929446Y90991111D01*
G75*
G02*
X89054446Y90866111I0J-125000D01*
G01*
X89054446Y90866111D01*
G75*
G02*
X88929446Y90741111I-125000J0D01*
G01*
G37*
G36*
G01*
X88929446Y91401111D02*
X88679446Y91401111D01*
G75*
G02*
X88554446Y91526111I0J125000D01*
G01*
X88554446Y91526111D01*
G75*
G02*
X88679446Y91651111I125000J0D01*
G01*
X88929446Y91651111D01*
G75*
G02*
X89054446Y91526111I0J-125000D01*
G01*
X89054446Y91526111D01*
G75*
G02*
X88929446Y91401111I-125000J0D01*
G01*
G37*
G36*
G01*
X88929446Y92061113D02*
X88679446Y92061113D01*
G75*
G02*
X88554446Y92186113I0J125000D01*
G01*
X88554446Y92186113D01*
G75*
G02*
X88679446Y92311113I125000J0D01*
G01*
X88929446Y92311113D01*
G75*
G02*
X89054446Y92186113I0J-125000D01*
G01*
X89054446Y92186113D01*
G75*
G02*
X88929446Y92061113I-125000J0D01*
G01*
G37*
G36*
G01*
X88929446Y92721114D02*
X88679446Y92721114D01*
G75*
G02*
X88554446Y92846114I0J125000D01*
G01*
X88554446Y92846114D01*
G75*
G02*
X88679446Y92971114I125000J0D01*
G01*
X88929446Y92971114D01*
G75*
G02*
X89054446Y92846114I0J-125000D01*
G01*
X89054446Y92846114D01*
G75*
G02*
X88929446Y92721114I-125000J0D01*
G01*
G37*
G36*
G01*
X88929446Y93381116D02*
X88679446Y93381116D01*
G75*
G02*
X88554446Y93506116I0J125000D01*
G01*
X88554446Y93506116D01*
G75*
G02*
X88679446Y93631116I125000J0D01*
G01*
X88929446Y93631116D01*
G75*
G02*
X89054446Y93506116I0J-125000D01*
G01*
X89054446Y93506116D01*
G75*
G02*
X88929446Y93381116I-125000J0D01*
G01*
G37*
G36*
G01*
X88929446Y94041117D02*
X88679446Y94041117D01*
G75*
G02*
X88554446Y94166117I0J125000D01*
G01*
X88554446Y94166117D01*
G75*
G02*
X88679446Y94291117I125000J0D01*
G01*
X88929446Y94291117D01*
G75*
G02*
X89054446Y94166117I0J-125000D01*
G01*
X89054446Y94166117D01*
G75*
G02*
X88929446Y94041117I-125000J0D01*
G01*
G37*
G36*
G01*
X88929446Y94701118D02*
X88679446Y94701118D01*
G75*
G02*
X88554446Y94826118I0J125000D01*
G01*
X88554446Y94826118D01*
G75*
G02*
X88679446Y94951118I125000J0D01*
G01*
X88929446Y94951118D01*
G75*
G02*
X89054446Y94826118I0J-125000D01*
G01*
X89054446Y94826118D01*
G75*
G02*
X88929446Y94701118I-125000J0D01*
G01*
G37*
G36*
G01*
X88929446Y95361119D02*
X88679446Y95361119D01*
G75*
G02*
X88554446Y95486119I0J125000D01*
G01*
X88554446Y95486119D01*
G75*
G02*
X88679446Y95611119I125000J0D01*
G01*
X88929446Y95611119D01*
G75*
G02*
X89054446Y95486119I0J-125000D01*
G01*
X89054446Y95486119D01*
G75*
G02*
X88929446Y95361119I-125000J0D01*
G01*
G37*
G36*
G01*
X88929446Y96021121D02*
X88679446Y96021121D01*
G75*
G02*
X88554446Y96146121I0J125000D01*
G01*
X88554446Y96146121D01*
G75*
G02*
X88679446Y96271121I125000J0D01*
G01*
X88929446Y96271121D01*
G75*
G02*
X89054446Y96146121I0J-125000D01*
G01*
X89054446Y96146121D01*
G75*
G02*
X88929446Y96021121I-125000J0D01*
G01*
G37*
G36*
G01*
X88929446Y96681122D02*
X88679446Y96681122D01*
G75*
G02*
X88554446Y96806122I0J125000D01*
G01*
X88554446Y96806122D01*
G75*
G02*
X88679446Y96931122I125000J0D01*
G01*
X88929446Y96931122D01*
G75*
G02*
X89054446Y96806122I0J-125000D01*
G01*
X89054446Y96806122D01*
G75*
G02*
X88929446Y96681122I-125000J0D01*
G01*
G37*
G04 #@! TD*
D13*
G04 #@! TO.C,M5*
X152349442Y96443355D03*
X152349442Y90043358D03*
X152349442Y88143355D03*
X152349442Y83843355D03*
D14*
X152799441Y81443358D03*
X152799441Y80443357D03*
D13*
X152349442Y77593355D03*
X136849445Y96893357D03*
X136849445Y95043358D03*
X136849445Y90093355D03*
X136849445Y78043357D03*
G04 #@! TD*
D15*
G04 #@! TO.C,M2*
X141864446Y72094634D03*
X143699456Y71669626D03*
X141649448Y71119629D03*
X141864443Y70244670D03*
X141939450Y69394647D03*
X143699456Y69069631D03*
X142389456Y67769664D03*
X143699456Y67119647D03*
X137774441Y74294650D03*
X141849447Y73994648D03*
G04 #@! TD*
D14*
G04 #@! TO.C,M1*
X103129446Y40093357D03*
X103129446Y38893357D03*
X103129446Y41293357D03*
X103129446Y42493357D03*
X88704446Y36033357D03*
X88704446Y35033357D03*
G04 #@! TD*
G04 #@! TO.C,M6*
G36*
G01*
X132529437Y33618356D02*
X132529437Y33368358D01*
G75*
G02*
X132404437Y33243358I-125000J0D01*
G01*
X132404437Y33243358D01*
G75*
G02*
X132279437Y33368358I0J125000D01*
G01*
X132279437Y33618356D01*
G75*
G02*
X132404437Y33743356I125000J0D01*
G01*
X132404437Y33743356D01*
G75*
G02*
X132529437Y33618356I0J-125000D01*
G01*
G37*
G36*
G01*
X131429439Y33618356D02*
X131429439Y33368358D01*
G75*
G02*
X131304439Y33243358I-125000J0D01*
G01*
X131304439Y33243358D01*
G75*
G02*
X131179439Y33368358I0J125000D01*
G01*
X131179439Y33618356D01*
G75*
G02*
X131304439Y33743356I125000J0D01*
G01*
X131304439Y33743356D01*
G75*
G02*
X131429439Y33618356I0J-125000D01*
G01*
G37*
G36*
G01*
X130329441Y33618356D02*
X130329441Y33368358D01*
G75*
G02*
X130204441Y33243358I-125000J0D01*
G01*
X130204441Y33243358D01*
G75*
G02*
X130079441Y33368358I0J125000D01*
G01*
X130079441Y33618356D01*
G75*
G02*
X130204441Y33743356I125000J0D01*
G01*
X130204441Y33743356D01*
G75*
G02*
X130329441Y33618356I0J-125000D01*
G01*
G37*
G36*
G01*
X129229443Y33618356D02*
X129229443Y33368358D01*
G75*
G02*
X129104443Y33243358I-125000J0D01*
G01*
X129104443Y33243358D01*
G75*
G02*
X128979443Y33368358I0J125000D01*
G01*
X128979443Y33618356D01*
G75*
G02*
X129104443Y33743356I125000J0D01*
G01*
X129104443Y33743356D01*
G75*
G02*
X129229443Y33618356I0J-125000D01*
G01*
G37*
G36*
G01*
X128129445Y33618356D02*
X128129445Y33368358D01*
G75*
G02*
X128004445Y33243358I-125000J0D01*
G01*
X128004445Y33243358D01*
G75*
G02*
X127879445Y33368358I0J125000D01*
G01*
X127879445Y33618356D01*
G75*
G02*
X128004445Y33743356I125000J0D01*
G01*
X128004445Y33743356D01*
G75*
G02*
X128129445Y33618356I0J-125000D01*
G01*
G37*
G36*
G01*
X127029448Y33618356D02*
X127029448Y33368358D01*
G75*
G02*
X126904448Y33243358I-125000J0D01*
G01*
X126904448Y33243358D01*
G75*
G02*
X126779448Y33368358I0J125000D01*
G01*
X126779448Y33618356D01*
G75*
G02*
X126904448Y33743356I125000J0D01*
G01*
X126904448Y33743356D01*
G75*
G02*
X127029448Y33618356I0J-125000D01*
G01*
G37*
G04 #@! TD*
M02*
