G75*
G70*
%OFA0B0*%
%FSLAX25Y25*%
%IPPOS*%
%LPD*%
%AMOC8*
5,1,8,0,0,1.08239X$1,22.5*
%
%ADD10C,0.02362*%
%ADD11R,0.00984X0.24350*%
%ADD12R,0.00984X0.04390*%
%ADD13R,0.56201X0.00984*%
%ADD14R,0.59449X0.00984*%
%ADD15R,0.00984X0.20374*%
%ADD16R,0.00787X0.09055*%
%ADD17R,0.00787X0.42126*%
%ADD18R,0.00787X0.08268*%
%ADD19R,0.00787X0.23622*%
%ADD20R,0.00787X0.21260*%
%ADD21R,0.05512X0.00787*%
%ADD22R,0.19685X0.00787*%
%ADD23R,0.26772X0.00787*%
%ADD24R,0.17717X0.00787*%
%ADD25R,0.00787X0.06299*%
%ADD26R,0.00787X0.22441*%
%ADD27R,0.00787X0.07874*%
X0036614Y0019488D02*
%LPD*%
G01*
D10*
X0094882Y0046653D03*
X0094882Y0041929D03*
X0094882Y0051378D03*
X0094882Y0056102D03*
D11*
X0037205Y0045600D03*
D12*
X0037205Y0021781D03*
D13*
X0064813Y0057283D03*
D14*
X0066437Y0020079D03*
D15*
X0095669Y0029773D03*
D10*
X0038090Y0030669D03*
X0038090Y0026732D03*
D10*
X0090977Y0046866D03*
X0039370Y0041732D03*
X0069685Y0048031D03*
X0093701Y0038189D03*
X0067323Y0055118D03*
X0063386Y0022047D03*
X0050787Y0022047D03*
X0053149Y0055118D03*
X0084645Y0055118D03*
X0039764Y0055118D03*
X0093701Y0024803D03*
X0057086Y0046063D03*
X0071330Y0041114D03*
X0087795Y0022047D03*
X0049606Y0030315D03*
X0070472Y0022047D03*
X0062992Y0029921D03*
X0080708Y0034252D03*
X0083071Y0024803D03*
X0048031Y0040945D03*
X0039370Y0022047D03*
X0075590Y0025590D03*
X0057480Y0036220D03*
G36*
X0092753Y0057701D02*
G01*
X0092894Y0057506D01*
X0092913Y0057386D01*
X0092913Y0039960D01*
X0092913Y0039960D01*
X0095771Y0039960D01*
X0096001Y0039886D01*
X0096142Y0039691D01*
X0096161Y0039571D01*
X0096161Y0019978D01*
X0096087Y0019749D01*
X0095892Y0019607D01*
X0095771Y0019588D01*
X0037104Y0019588D01*
X0036875Y0019663D01*
X0036733Y0019858D01*
X0036714Y0019978D01*
X0036714Y0023586D01*
X0036789Y0023816D01*
X0036984Y0023957D01*
X0037104Y0023976D01*
X0037727Y0023976D01*
X0037751Y0023975D01*
X0037756Y0023974D01*
X0038425Y0023974D01*
X0038425Y0023974D01*
X0039076Y0024134D01*
X0039669Y0024446D01*
X0040170Y0024890D01*
X0040550Y0025441D01*
X0040788Y0026067D01*
X0040869Y0026732D01*
X0040788Y0027397D01*
X0040550Y0028023D01*
X0040236Y0028479D01*
X0040167Y0028710D01*
X0040236Y0028922D01*
X0040550Y0029378D01*
X0040788Y0030004D01*
X0040869Y0030669D01*
X0040788Y0031334D01*
X0040550Y0031960D01*
X0040170Y0032511D01*
X0039669Y0032955D01*
X0039076Y0033267D01*
X0039076Y0033267D01*
X0039076Y0033267D01*
X0038425Y0033427D01*
X0038425Y0033427D01*
X0037756Y0033427D01*
X0037751Y0033426D01*
X0037727Y0033425D01*
X0037104Y0033425D01*
X0036875Y0033499D01*
X0036733Y0033694D01*
X0036714Y0033815D01*
X0036714Y0057386D01*
X0036789Y0057615D01*
X0036984Y0057756D01*
X0037104Y0057775D01*
X0092523Y0057775D01*
X0092753Y0057701D01*
G37*
X0036614Y0062992D02*
G01*
G75*
G36*
X0130923Y0220079D02*
X0130905Y0220037D01*
X0130905Y0219333D01*
X0131175Y0218681D01*
X0131674Y0218183D01*
X0132325Y0217913D01*
X0133029Y0217913D01*
X0133681Y0218183D01*
X0133737Y0218240D01*
X0134252Y0218627D01*
X0134766Y0218240D01*
X0134823Y0218183D01*
X0135474Y0217913D01*
X0136179Y0217913D01*
X0136830Y0218183D01*
X0136887Y0218240D01*
X0137401Y0218627D01*
X0137916Y0218240D01*
X0137973Y0218183D01*
X0138624Y0217913D01*
X0139329Y0217913D01*
X0139980Y0218183D01*
X0140037Y0218240D01*
X0140551Y0218627D01*
X0141065Y0218240D01*
X0141122Y0218183D01*
X0141773Y0217913D01*
X0142478Y0217913D01*
X0143129Y0218183D01*
X0143186Y0218240D01*
X0143701Y0218627D01*
X0144215Y0218240D01*
X0144272Y0218183D01*
X0144923Y0217913D01*
X0145628Y0217913D01*
X0146279Y0218183D01*
X0146336Y0218240D01*
X0146850Y0218627D01*
X0147365Y0218240D01*
X0147422Y0218183D01*
X0148073Y0217913D01*
X0148777Y0217913D01*
X0149429Y0218183D01*
X0149486Y0218240D01*
X0150000Y0218627D01*
X0150514Y0218240D01*
X0150571Y0218183D01*
X0151222Y0217913D01*
X0151927Y0217913D01*
X0152578Y0218183D01*
X0152635Y0218240D01*
X0153149Y0218627D01*
X0153664Y0218240D01*
X0153721Y0218183D01*
X0154372Y0217913D01*
X0155077Y0217913D01*
X0155728Y0218183D01*
X0155785Y0218240D01*
X0156299Y0218627D01*
X0156814Y0218240D01*
X0156870Y0218183D01*
X0157521Y0217913D01*
X0158226Y0217913D01*
X0158877Y0218183D01*
X0158934Y0218240D01*
X0159449Y0218627D01*
X0159963Y0218240D01*
X0160020Y0218183D01*
X0160671Y0217913D01*
X0161376Y0217913D01*
X0162027Y0218183D01*
X0162084Y0218240D01*
X0162598Y0218627D01*
X0163113Y0218240D01*
X0163170Y0218183D01*
X0163821Y0217913D01*
X0164525Y0217913D01*
X0165177Y0218183D01*
X0165234Y0218240D01*
X0165748Y0218627D01*
X0166262Y0218240D01*
X0166319Y0218183D01*
X0166970Y0217913D01*
X0167675Y0217913D01*
X0168326Y0218183D01*
X0168383Y0218240D01*
X0168897Y0218627D01*
X0169412Y0218240D01*
X0169469Y0218183D01*
X0170120Y0217913D01*
X0170825Y0217913D01*
X0171476Y0218183D01*
X0171533Y0218240D01*
X0172047Y0218627D01*
X0172562Y0218240D01*
X0172618Y0218183D01*
X0173269Y0217913D01*
X0173974Y0217913D01*
X0174626Y0218183D01*
X0174682Y0218240D01*
X0175197Y0218627D01*
X0175711Y0218240D01*
X0175768Y0218183D01*
X0176419Y0217913D01*
X0177124Y0217913D01*
X0177775Y0218183D01*
X0177832Y0218240D01*
X0178346Y0218627D01*
X0178861Y0218240D01*
X0178918Y0218183D01*
X0179569Y0217913D01*
X0180273Y0217913D01*
X0180925Y0218183D01*
X0180982Y0218240D01*
X0181496Y0218627D01*
X0182010Y0218240D01*
X0182067Y0218183D01*
X0182718Y0217913D01*
X0183423Y0217913D01*
X0184074Y0218183D01*
X0184131Y0218240D01*
X0184645Y0218627D01*
X0185160Y0218240D01*
X0185217Y0218183D01*
X0185356Y0218125D01*
X0185356Y0217273D01*
X0185126Y0217178D01*
X0184627Y0216680D01*
X0184612Y0216643D01*
X0183982Y0216173D01*
X0183678Y0216290D01*
X0183324Y0216437D01*
X0182619Y0216437D01*
X0181967Y0216167D01*
X0181469Y0215669D01*
X0181199Y0215018D01*
X0181199Y0214313D01*
X0181469Y0213662D01*
X0181967Y0213163D01*
X0182619Y0212894D01*
X0183324Y0212894D01*
X0183975Y0213163D01*
X0184473Y0213662D01*
X0184488Y0213698D01*
X0185118Y0214168D01*
X0185422Y0214051D01*
X0185777Y0213904D01*
X0186481Y0213904D01*
X0187133Y0214174D01*
X0187631Y0214672D01*
X0187901Y0215324D01*
X0187901Y0216028D01*
X0187631Y0216680D01*
X0187133Y0217178D01*
X0186994Y0217235D01*
X0186994Y0218088D01*
X0187224Y0218183D01*
X0187281Y0218240D01*
X0187795Y0218627D01*
X0188310Y0218240D01*
X0188366Y0218183D01*
X0189017Y0217913D01*
X0189722Y0217913D01*
X0190374Y0218183D01*
X0190430Y0218240D01*
X0190945Y0218627D01*
X0191459Y0218240D01*
X0191516Y0218183D01*
X0192167Y0217913D01*
X0192872Y0217913D01*
X0193523Y0218183D01*
X0193580Y0218240D01*
X0194094Y0218627D01*
X0194609Y0218240D01*
X0194666Y0218183D01*
X0195317Y0217913D01*
X0196021Y0217913D01*
X0196673Y0218183D01*
X0196730Y0218240D01*
X0197244Y0218627D01*
X0197758Y0218240D01*
X0197815Y0218183D01*
X0198466Y0217913D01*
X0199171Y0217913D01*
X0199822Y0218183D01*
X0199879Y0218240D01*
X0200394Y0218627D01*
X0200908Y0218240D01*
X0200965Y0218183D01*
X0201616Y0217913D01*
X0202321Y0217913D01*
X0202362Y0217930D01*
X0203149Y0217404D01*
X0203149Y0211729D01*
X0202362Y0211203D01*
X0202321Y0211220D01*
X0201616Y0211220D01*
X0200965Y0210951D01*
X0200466Y0210452D01*
X0200389Y0210266D01*
X0199537Y0210266D01*
X0199460Y0210452D01*
X0198961Y0210951D01*
X0198310Y0211220D01*
X0197605Y0211220D01*
X0196954Y0210951D01*
X0196456Y0210452D01*
X0196186Y0209801D01*
X0196186Y0209096D01*
X0196456Y0208445D01*
X0196954Y0207947D01*
X0197605Y0207677D01*
X0198310Y0207677D01*
X0198961Y0207947D01*
X0199460Y0208445D01*
X0199537Y0208632D01*
X0200389Y0208632D01*
X0200466Y0208445D01*
X0200523Y0208388D01*
X0200910Y0207874D01*
X0200523Y0207360D01*
X0200466Y0207303D01*
X0200197Y0206651D01*
X0200197Y0205947D01*
X0200466Y0205296D01*
X0200523Y0205239D01*
X0200910Y0204724D01*
X0200523Y0204210D01*
X0200466Y0204153D01*
X0200197Y0203502D01*
X0200197Y0202797D01*
X0200466Y0202146D01*
X0200523Y0202089D01*
X0200910Y0201575D01*
X0200523Y0201060D01*
X0200466Y0201003D01*
X0200197Y0200352D01*
X0200197Y0199647D01*
X0200466Y0198996D01*
X0200523Y0198940D01*
X0200910Y0198425D01*
X0200523Y0197911D01*
X0200466Y0197854D01*
X0200197Y0197203D01*
X0200197Y0196498D01*
X0200466Y0195847D01*
X0200523Y0195790D01*
X0200910Y0195275D01*
X0200523Y0194761D01*
X0200466Y0194704D01*
X0200197Y0194053D01*
X0200197Y0193348D01*
X0200466Y0192697D01*
X0200523Y0192640D01*
X0200910Y0192126D01*
X0200523Y0191612D01*
X0200466Y0191555D01*
X0200197Y0190903D01*
X0199955Y0190742D01*
X0199940Y0190748D01*
X0199235Y0190748D01*
X0198584Y0190478D01*
X0198086Y0189980D01*
X0197816Y0189329D01*
X0197816Y0188624D01*
X0198086Y0187973D01*
X0198584Y0187474D01*
X0199235Y0187205D01*
X0199940Y0187205D01*
X0199955Y0187211D01*
X0200197Y0187049D01*
X0200466Y0186398D01*
X0200523Y0186341D01*
X0200910Y0185827D01*
X0200523Y0185312D01*
X0200466Y0185255D01*
X0200197Y0184604D01*
X0200197Y0183899D01*
X0200466Y0183248D01*
X0200523Y0183192D01*
X0200910Y0182677D01*
X0200523Y0182163D01*
X0200466Y0182106D01*
X0200380Y0181897D01*
X0199940Y0181299D01*
X0199235Y0181299D01*
X0198584Y0181029D01*
X0198086Y0180531D01*
X0197816Y0179880D01*
X0197816Y0179175D01*
X0198086Y0178524D01*
X0198584Y0178025D01*
X0199235Y0177756D01*
X0199940Y0177756D01*
X0199955Y0177762D01*
X0200197Y0177600D01*
X0200466Y0176949D01*
X0200523Y0176892D01*
X0200910Y0176378D01*
X0200523Y0175864D01*
X0200466Y0175807D01*
X0200197Y0175155D01*
X0200197Y0174451D01*
X0200466Y0173800D01*
X0200523Y0173743D01*
X0200910Y0173228D01*
X0200523Y0172714D01*
X0200466Y0172657D01*
X0200197Y0172006D01*
X0200197Y0171301D01*
X0200466Y0170650D01*
X0200523Y0170593D01*
X0200910Y0170079D01*
X0200523Y0169564D01*
X0200466Y0169507D01*
X0200197Y0168856D01*
X0200197Y0168151D01*
X0200466Y0167500D01*
X0200523Y0167443D01*
X0200910Y0166929D01*
X0200523Y0166415D01*
X0200466Y0166358D01*
X0200197Y0165707D01*
X0200197Y0165002D01*
X0200466Y0164351D01*
X0200523Y0164294D01*
X0200910Y0163779D01*
X0200523Y0163265D01*
X0200466Y0163208D01*
X0200197Y0162557D01*
X0200197Y0161852D01*
X0200466Y0161201D01*
X0200523Y0161144D01*
X0200910Y0160630D01*
X0200523Y0160115D01*
X0200466Y0160059D01*
X0200197Y0159407D01*
X0200197Y0158703D01*
X0200466Y0158052D01*
X0200523Y0157995D01*
X0200910Y0157480D01*
X0200523Y0156966D01*
X0200466Y0156909D01*
X0200197Y0156258D01*
X0200197Y0155553D01*
X0200466Y0154902D01*
X0200523Y0154845D01*
X0200910Y0154331D01*
X0200523Y0153816D01*
X0200466Y0153759D01*
X0200197Y0153108D01*
X0200197Y0152403D01*
X0200466Y0151752D01*
X0200523Y0151695D01*
X0200910Y0151181D01*
X0200523Y0150667D01*
X0200466Y0150610D01*
X0200197Y0149959D01*
X0200197Y0149254D01*
X0200466Y0148603D01*
X0200523Y0148546D01*
X0200910Y0148031D01*
X0200523Y0147517D01*
X0200466Y0147460D01*
X0200197Y0146809D01*
X0200197Y0146104D01*
X0200466Y0145453D01*
X0200523Y0145396D01*
X0200910Y0144882D01*
X0200523Y0144367D01*
X0200466Y0144310D01*
X0200197Y0143659D01*
X0200197Y0142955D01*
X0200466Y0142303D01*
X0200523Y0142247D01*
X0200910Y0141732D01*
X0200523Y0141218D01*
X0200466Y0141161D01*
X0200197Y0140510D01*
X0200197Y0139805D01*
X0200255Y0139664D01*
X0199653Y0139061D01*
X0199488Y0139129D01*
X0198783Y0139129D01*
X0198132Y0138859D01*
X0197634Y0138361D01*
X0197364Y0137710D01*
X0197364Y0137005D01*
X0197634Y0136354D01*
X0198132Y0135856D01*
X0198783Y0135586D01*
X0199488Y0135586D01*
X0200450Y0135137D01*
X0200485Y0135034D01*
X0200477Y0134872D01*
X0200466Y0134862D01*
X0200197Y0134211D01*
X0200197Y0133506D01*
X0200466Y0132855D01*
X0200523Y0132798D01*
X0200910Y0132283D01*
X0200523Y0131769D01*
X0200466Y0131712D01*
X0200197Y0131061D01*
X0200197Y0130356D01*
X0200466Y0129705D01*
X0200523Y0129648D01*
X0200910Y0129134D01*
X0200523Y0128619D01*
X0200466Y0128562D01*
X0200197Y0127911D01*
X0200197Y0127206D01*
X0200466Y0126555D01*
X0200523Y0126499D01*
X0200910Y0125984D01*
X0200523Y0125470D01*
X0200466Y0125413D01*
X0200197Y0124762D01*
X0200197Y0124057D01*
X0200466Y0123406D01*
X0200523Y0123349D01*
X0200910Y0122834D01*
X0200523Y0122320D01*
X0200466Y0122263D01*
X0200197Y0121612D01*
X0200197Y0120907D01*
X0200466Y0120256D01*
X0200523Y0120199D01*
X0200910Y0119685D01*
X0200523Y0119170D01*
X0200466Y0119114D01*
X0200197Y0118463D01*
X0200197Y0117758D01*
X0200466Y0117107D01*
X0200523Y0117050D01*
X0200910Y0116535D01*
X0200523Y0116021D01*
X0200466Y0115964D01*
X0200197Y0115313D01*
X0200197Y0114608D01*
X0200466Y0113957D01*
X0200523Y0113900D01*
X0200910Y0113386D01*
X0200523Y0112871D01*
X0200466Y0112815D01*
X0200197Y0112163D01*
X0200197Y0111459D01*
X0200466Y0110807D01*
X0200523Y0110750D01*
X0200910Y0110236D01*
X0200523Y0109722D01*
X0200466Y0109665D01*
X0200197Y0109014D01*
X0200197Y0108309D01*
X0200466Y0107658D01*
X0200523Y0107601D01*
X0200910Y0107086D01*
X0200523Y0106572D01*
X0200466Y0106515D01*
X0200197Y0105864D01*
X0200197Y0105159D01*
X0200466Y0104508D01*
X0200523Y0104451D01*
X0200910Y0103937D01*
X0200523Y0103423D01*
X0200466Y0103366D01*
X0200197Y0102714D01*
X0200197Y0102010D01*
X0200466Y0101358D01*
X0200965Y0100860D01*
X0201616Y0100590D01*
X0202321Y0100590D01*
X0202362Y0100607D01*
X0203149Y0100081D01*
X0203149Y0078265D01*
X0202362Y0077739D01*
X0202321Y0077756D01*
X0201616Y0077756D01*
X0200965Y0077486D01*
X0200466Y0076988D01*
X0200197Y0076337D01*
X0200197Y0075632D01*
X0200466Y0074981D01*
X0200473Y0074974D01*
X0200464Y0074833D01*
X0200421Y0074793D01*
X0199532Y0074637D01*
X0198881Y0074907D01*
X0198176Y0074907D01*
X0197525Y0074637D01*
X0197027Y0074139D01*
X0196757Y0073488D01*
X0196757Y0072783D01*
X0197027Y0072132D01*
X0197525Y0071633D01*
X0198176Y0071363D01*
X0198881Y0071363D01*
X0199532Y0071633D01*
X0199648Y0071749D01*
X0200427Y0071827D01*
X0200613Y0071685D01*
X0200965Y0071333D01*
X0201616Y0071063D01*
X0202321Y0071063D01*
X0202362Y0071080D01*
X0203149Y0070554D01*
X0203149Y0064961D01*
X0201198Y0064961D01*
X0201108Y0065177D01*
X0200610Y0065675D01*
X0199959Y0065945D01*
X0199254Y0065945D01*
X0198603Y0065675D01*
X0198104Y0065177D01*
X0198015Y0064961D01*
X0196473Y0064961D01*
X0196384Y0065177D01*
X0195885Y0065675D01*
X0195234Y0065945D01*
X0194529Y0065945D01*
X0193878Y0065675D01*
X0193380Y0065177D01*
X0193290Y0064961D01*
X0191749Y0064961D01*
X0191659Y0065177D01*
X0191161Y0065675D01*
X0190510Y0065945D01*
X0189805Y0065945D01*
X0189154Y0065675D01*
X0188655Y0065177D01*
X0188566Y0064961D01*
X0187024Y0064961D01*
X0186935Y0065177D01*
X0186436Y0065675D01*
X0185785Y0065945D01*
X0185081Y0065945D01*
X0184429Y0065675D01*
X0183931Y0065177D01*
X0183842Y0064961D01*
X0182300Y0064961D01*
X0182210Y0065177D01*
X0181712Y0065675D01*
X0181061Y0065945D01*
X0180356Y0065945D01*
X0179705Y0065675D01*
X0179207Y0065177D01*
X0179117Y0064961D01*
X0177969Y0064961D01*
X0177880Y0065177D01*
X0177381Y0065675D01*
X0176730Y0065945D01*
X0176025Y0065945D01*
X0175787Y0066104D01*
X0175787Y0066494D01*
X0175518Y0067145D01*
X0175019Y0067643D01*
X0174368Y0067913D01*
X0173663Y0067913D01*
X0173012Y0067643D01*
X0172514Y0067145D01*
X0172244Y0066494D01*
X0172244Y0066104D01*
X0172006Y0065945D01*
X0171301Y0065945D01*
X0171063Y0066104D01*
X0171063Y0066494D01*
X0170793Y0067145D01*
X0170295Y0067643D01*
X0169644Y0067913D01*
X0168939Y0067913D01*
X0168288Y0067643D01*
X0167789Y0067145D01*
X0167592Y0066669D01*
X0167304Y0065996D01*
X0166555Y0065996D01*
X0166266Y0066669D01*
X0166069Y0067145D01*
X0165570Y0067643D01*
X0164919Y0067913D01*
X0164214Y0067913D01*
X0163563Y0067643D01*
X0163065Y0067145D01*
X0162795Y0066494D01*
X0162795Y0066104D01*
X0162557Y0065945D01*
X0161852Y0065945D01*
X0161614Y0066104D01*
X0161614Y0066494D01*
X0161344Y0067145D01*
X0160846Y0067643D01*
X0160195Y0067913D01*
X0159490Y0067913D01*
X0158839Y0067643D01*
X0158341Y0067145D01*
X0158071Y0066494D01*
X0158071Y0066104D01*
X0157833Y0065945D01*
X0157128Y0065945D01*
X0156890Y0066104D01*
X0156890Y0066494D01*
X0156620Y0067145D01*
X0156122Y0067643D01*
X0155470Y0067913D01*
X0154766Y0067913D01*
X0154114Y0067643D01*
X0153616Y0067145D01*
X0153419Y0066669D01*
X0153130Y0065996D01*
X0152381Y0065996D01*
X0152093Y0066669D01*
X0151895Y0067145D01*
X0151397Y0067643D01*
X0150746Y0067913D01*
X0150041Y0067913D01*
X0149390Y0067643D01*
X0148892Y0067145D01*
X0148622Y0066494D01*
X0148622Y0066104D01*
X0148384Y0065945D01*
X0147679Y0065945D01*
X0147441Y0066104D01*
X0147441Y0066494D01*
X0147171Y0067145D01*
X0146673Y0067643D01*
X0146022Y0067913D01*
X0145317Y0067913D01*
X0144666Y0067643D01*
X0144167Y0067145D01*
X0143897Y0066494D01*
X0143897Y0066104D01*
X0143659Y0065945D01*
X0142955Y0065945D01*
X0142716Y0066104D01*
X0142716Y0066494D01*
X0142447Y0067145D01*
X0141948Y0067643D01*
X0141297Y0067913D01*
X0140592Y0067913D01*
X0139941Y0067643D01*
X0139443Y0067145D01*
X0139173Y0066494D01*
X0139173Y0066104D01*
X0138935Y0065945D01*
X0138230Y0065945D01*
X0137992Y0066104D01*
X0137992Y0066494D01*
X0137722Y0067145D01*
X0137224Y0067643D01*
X0136573Y0067913D01*
X0135868Y0067913D01*
X0135217Y0067643D01*
X0134718Y0067145D01*
X0134449Y0066494D01*
X0134449Y0066104D01*
X0134211Y0065945D01*
X0133506Y0065945D01*
X0133268Y0066104D01*
X0133268Y0066494D01*
X0132998Y0067145D01*
X0132499Y0067643D01*
X0131848Y0067913D01*
X0131143Y0067913D01*
X0130492Y0067643D01*
X0129994Y0067145D01*
X0129724Y0066494D01*
X0129724Y0066104D01*
X0129486Y0065945D01*
X0128781Y0065945D01*
X0128543Y0066104D01*
X0128543Y0066494D01*
X0128273Y0067145D01*
X0127775Y0067643D01*
X0127124Y0067913D01*
X0126419Y0067913D01*
X0125768Y0067643D01*
X0125270Y0067145D01*
X0125000Y0066494D01*
X0125000Y0066104D01*
X0124762Y0065945D01*
X0124057Y0065945D01*
X0123819Y0066104D01*
X0123819Y0066494D01*
X0123549Y0067145D01*
X0123051Y0067643D01*
X0122400Y0067913D01*
X0121695Y0067913D01*
X0121044Y0067643D01*
X0120545Y0067145D01*
X0120276Y0066494D01*
X0120276Y0066104D01*
X0120037Y0065945D01*
X0119332Y0065945D01*
X0119094Y0066104D01*
X0119094Y0066494D01*
X0118825Y0067145D01*
X0118326Y0067643D01*
X0117675Y0067913D01*
X0116970Y0067913D01*
X0116319Y0067643D01*
X0115821Y0067145D01*
X0115551Y0066494D01*
X0115551Y0066104D01*
X0115313Y0065945D01*
X0114608Y0065945D01*
X0114370Y0066104D01*
X0114370Y0066494D01*
X0114100Y0067145D01*
X0113602Y0067643D01*
X0112951Y0067913D01*
X0112246Y0067913D01*
X0111595Y0067643D01*
X0111096Y0067145D01*
X0110899Y0066669D01*
X0110611Y0065996D01*
X0109862Y0065996D01*
X0109573Y0066669D01*
X0109376Y0067145D01*
X0108877Y0067643D01*
X0108226Y0067913D01*
X0107521Y0067913D01*
X0106870Y0067643D01*
X0106372Y0067145D01*
X0106102Y0066494D01*
X0106102Y0066104D01*
X0105864Y0065945D01*
X0105159Y0065945D01*
X0104921Y0066104D01*
X0104921Y0066494D01*
X0104651Y0067145D01*
X0104153Y0067643D01*
X0103502Y0067913D01*
X0102797Y0067913D01*
X0102146Y0067643D01*
X0101648Y0067145D01*
X0101450Y0066669D01*
X0101162Y0065996D01*
X0100413Y0065996D01*
X0100125Y0066669D01*
X0099927Y0067145D01*
X0099429Y0067643D01*
X0098778Y0067913D01*
X0098073Y0067913D01*
X0097422Y0067643D01*
X0096923Y0067145D01*
X0096653Y0066494D01*
X0096653Y0066104D01*
X0096415Y0065945D01*
X0095710Y0065945D01*
X0095472Y0066104D01*
X0095472Y0066494D01*
X0095203Y0067145D01*
X0094704Y0067643D01*
X0094053Y0067913D01*
X0093348Y0067913D01*
X0092697Y0067643D01*
X0092199Y0067145D01*
X0091929Y0066494D01*
X0091929Y0066104D01*
X0091691Y0065945D01*
X0090986Y0065945D01*
X0090748Y0066104D01*
X0090748Y0066494D01*
X0090478Y0067145D01*
X0089980Y0067643D01*
X0089329Y0067913D01*
X0088624Y0067913D01*
X0087973Y0067643D01*
X0087474Y0067145D01*
X0087277Y0066669D01*
X0086989Y0065996D01*
X0086240Y0065996D01*
X0085951Y0066669D01*
X0085754Y0067145D01*
X0085255Y0067643D01*
X0084604Y0067913D01*
X0083899Y0067913D01*
X0083248Y0067643D01*
X0082750Y0067145D01*
X0082480Y0066494D01*
X0082480Y0066104D01*
X0082242Y0065945D01*
X0081537Y0065945D01*
X0081299Y0066104D01*
X0081299Y0066494D01*
X0081029Y0067145D01*
X0080531Y0067643D01*
X0079880Y0067913D01*
X0079175Y0067913D01*
X0078524Y0067643D01*
X0078026Y0067145D01*
X0077756Y0066494D01*
X0077756Y0066104D01*
X0077518Y0065945D01*
X0076813Y0065945D01*
X0076575Y0066104D01*
X0076575Y0066494D01*
X0076305Y0067145D01*
X0075807Y0067643D01*
X0075155Y0067913D01*
X0074451Y0067913D01*
X0073799Y0067643D01*
X0073301Y0067145D01*
X0073031Y0066494D01*
X0073031Y0066104D01*
X0072793Y0065945D01*
X0072088Y0065945D01*
X0071850Y0066104D01*
X0071850Y0066494D01*
X0071580Y0067145D01*
X0071082Y0067643D01*
X0070431Y0067913D01*
X0069726Y0067913D01*
X0069075Y0067643D01*
X0068577Y0067145D01*
X0068307Y0066494D01*
X0068307Y0066104D01*
X0068069Y0065945D01*
X0067364Y0065945D01*
X0067126Y0066104D01*
X0067126Y0066494D01*
X0066856Y0067145D01*
X0066358Y0067643D01*
X0065707Y0067913D01*
X0065002Y0067913D01*
X0064351Y0067643D01*
X0063852Y0067145D01*
X0063583Y0066494D01*
X0063583Y0066104D01*
X0063344Y0065945D01*
X0062640Y0065945D01*
X0062401Y0066104D01*
X0062401Y0066494D01*
X0062132Y0067145D01*
X0061633Y0067643D01*
X0060982Y0067913D01*
X0060277Y0067913D01*
X0059626Y0067643D01*
X0059128Y0067145D01*
X0058858Y0066494D01*
X0058574Y0066278D01*
X0057678Y0066497D01*
X0057605Y0066669D01*
X0057407Y0067145D01*
X0056909Y0067643D01*
X0056258Y0067913D01*
X0055553Y0067913D01*
X0054902Y0067643D01*
X0054403Y0067145D01*
X0054206Y0066669D01*
X0053962Y0066100D01*
X0053721Y0066057D01*
X0052953Y0066494D01*
X0052683Y0067145D01*
X0052185Y0067643D01*
X0051533Y0067913D01*
X0050828Y0067913D01*
X0050177Y0067643D01*
X0049679Y0067145D01*
X0049409Y0066494D01*
X0049409Y0066104D01*
X0049171Y0065945D01*
X0048466Y0065945D01*
X0048228Y0066104D01*
X0048228Y0066494D01*
X0047958Y0067145D01*
X0047460Y0067643D01*
X0046809Y0067913D01*
X0046104Y0067913D01*
X0045453Y0067643D01*
X0044955Y0067145D01*
X0044685Y0066494D01*
X0044685Y0065789D01*
X0044955Y0065138D01*
X0045453Y0064640D01*
X0046104Y0064370D01*
X0046809Y0064370D01*
X0046850Y0064342D01*
X0046850Y0062992D01*
X0041651Y0062992D01*
X0041124Y0063780D01*
X0041142Y0063821D01*
X0041142Y0064526D01*
X0040872Y0065177D01*
X0040374Y0065675D01*
X0039722Y0065945D01*
X0039017Y0065945D01*
X0038366Y0065675D01*
X0037868Y0065177D01*
X0037598Y0064526D01*
X0037598Y0064222D01*
X0036923Y0063635D01*
X0036871Y0063620D01*
X0036614Y0063698D01*
X0036614Y0071735D01*
X0037401Y0072261D01*
X0037443Y0072244D01*
X0038148Y0072244D01*
X0038799Y0072514D01*
X0039297Y0073012D01*
X0039567Y0073663D01*
X0039567Y0074368D01*
X0039297Y0075019D01*
X0038799Y0075518D01*
X0038701Y0075558D01*
X0038701Y0076410D01*
X0038799Y0076451D01*
X0039297Y0076949D01*
X0039567Y0077600D01*
X0039567Y0078305D01*
X0039297Y0078956D01*
X0038799Y0079455D01*
X0038148Y0079724D01*
X0037443Y0079724D01*
X0037401Y0079707D01*
X0036614Y0080233D01*
X0036614Y0100869D01*
X0037401Y0101395D01*
X0037443Y0101378D01*
X0038148Y0101378D01*
X0038799Y0101648D01*
X0039297Y0102146D01*
X0039567Y0102797D01*
X0039567Y0103502D01*
X0039297Y0104153D01*
X0038799Y0104651D01*
X0038148Y0104921D01*
X0037443Y0104921D01*
X0037401Y0104904D01*
X0036614Y0105430D01*
X0036614Y0116874D01*
X0037401Y0117031D01*
X0037573Y0116617D01*
X0038071Y0116119D01*
X0038722Y0115849D01*
X0039427Y0115849D01*
X0040078Y0116119D01*
X0040577Y0116617D01*
X0040846Y0117268D01*
X0040846Y0117973D01*
X0040577Y0118624D01*
X0040078Y0119122D01*
X0039427Y0119392D01*
X0038722Y0119392D01*
X0038071Y0119122D01*
X0037573Y0118624D01*
X0037401Y0118211D01*
X0036614Y0118367D01*
X0036614Y0128428D01*
X0037401Y0128954D01*
X0037443Y0128937D01*
X0038148Y0128937D01*
X0038799Y0129207D01*
X0039297Y0129705D01*
X0039567Y0130356D01*
X0039567Y0131061D01*
X0039297Y0131712D01*
X0038799Y0132210D01*
X0038701Y0132251D01*
X0038701Y0133103D01*
X0038799Y0133144D01*
X0039297Y0133642D01*
X0039567Y0134293D01*
X0039567Y0134998D01*
X0039297Y0135649D01*
X0038799Y0136147D01*
X0038701Y0136188D01*
X0038701Y0137040D01*
X0038799Y0137081D01*
X0039297Y0137579D01*
X0039567Y0138230D01*
X0039567Y0138935D01*
X0039297Y0139586D01*
X0038799Y0140084D01*
X0038701Y0140125D01*
X0038701Y0140977D01*
X0038799Y0141018D01*
X0039297Y0141516D01*
X0039567Y0142167D01*
X0039567Y0142872D01*
X0039297Y0143523D01*
X0038799Y0144021D01*
X0038701Y0144062D01*
X0038701Y0144914D01*
X0038799Y0144955D01*
X0039297Y0145453D01*
X0039567Y0146104D01*
X0039567Y0146809D01*
X0039297Y0147460D01*
X0038799Y0147958D01*
X0038701Y0147999D01*
X0038701Y0148851D01*
X0038799Y0148892D01*
X0039297Y0149390D01*
X0039567Y0150041D01*
X0039567Y0150746D01*
X0039297Y0151397D01*
X0038799Y0151895D01*
X0038701Y0151936D01*
X0038701Y0152788D01*
X0038799Y0152829D01*
X0039297Y0153327D01*
X0039567Y0153978D01*
X0039567Y0154683D01*
X0039297Y0155334D01*
X0038799Y0155832D01*
X0038701Y0155873D01*
X0038701Y0156725D01*
X0038799Y0156766D01*
X0039297Y0157264D01*
X0039567Y0157915D01*
X0039567Y0158620D01*
X0039297Y0159271D01*
X0038799Y0159769D01*
X0038148Y0160039D01*
X0037443Y0160039D01*
X0037401Y0160022D01*
X0036614Y0160548D01*
X0036614Y0168192D01*
X0037401Y0168718D01*
X0037443Y0168701D01*
X0038148Y0168701D01*
X0038799Y0168970D01*
X0039297Y0169469D01*
X0039567Y0170120D01*
X0039567Y0170825D01*
X0039297Y0171476D01*
X0039240Y0171533D01*
X0038853Y0172047D01*
X0039240Y0172562D01*
X0039297Y0172618D01*
X0039567Y0173269D01*
X0039567Y0173974D01*
X0039297Y0174626D01*
X0038799Y0175124D01*
X0038148Y0175394D01*
X0037443Y0175394D01*
X0037401Y0175376D01*
X0036614Y0175903D01*
X0036614Y0216690D01*
X0037401Y0217230D01*
X0037635Y0217140D01*
X0037639Y0217126D01*
X0037598Y0216976D01*
X0037598Y0216095D01*
X0037826Y0215244D01*
X0038267Y0214481D01*
X0038890Y0213857D01*
X0039653Y0213417D01*
X0040504Y0213189D01*
X0041385Y0213189D01*
X0042236Y0213417D01*
X0042459Y0213545D01*
X0042986Y0213366D01*
X0043484Y0212868D01*
X0044136Y0212598D01*
X0044840Y0212598D01*
X0045492Y0212868D01*
X0045990Y0213366D01*
X0046260Y0214017D01*
X0046260Y0214722D01*
X0045990Y0215374D01*
X0045492Y0215872D01*
X0044840Y0216142D01*
X0044291Y0216142D01*
X0044291Y0216976D01*
X0044063Y0217827D01*
X0043623Y0218590D01*
X0042999Y0219213D01*
X0042236Y0219654D01*
X0041385Y0219882D01*
X0040504Y0219882D01*
X0040354Y0219842D01*
X0040340Y0219845D01*
X0040250Y0220079D01*
X0040790Y0220866D01*
X0059137Y0220866D01*
X0059663Y0220079D01*
X0059645Y0220037D01*
X0059645Y0219333D01*
X0059915Y0218681D01*
X0060414Y0218183D01*
X0061065Y0217913D01*
X0061770Y0217913D01*
X0062421Y0218183D01*
X0062478Y0218240D01*
X0062992Y0218627D01*
X0063506Y0218240D01*
X0063563Y0218183D01*
X0064214Y0217913D01*
X0064919Y0217913D01*
X0065570Y0218183D01*
X0065627Y0218240D01*
X0066142Y0218627D01*
X0066656Y0218240D01*
X0066713Y0218183D01*
X0067364Y0217913D01*
X0068069Y0217913D01*
X0068720Y0218183D01*
X0068840Y0218155D01*
X0069428Y0217319D01*
X0069428Y0216547D01*
X0069628Y0215800D01*
X0070014Y0215131D01*
X0070560Y0214585D01*
X0071229Y0214199D01*
X0071976Y0213999D01*
X0072748Y0213999D01*
X0073495Y0214199D01*
X0074164Y0214585D01*
X0074710Y0215131D01*
X0075096Y0215800D01*
X0075296Y0216547D01*
X0075296Y0217319D01*
X0075096Y0218065D01*
X0074710Y0218735D01*
X0074164Y0219281D01*
X0073495Y0219667D01*
X0072748Y0219867D01*
X0071976Y0219867D01*
X0071229Y0219667D01*
X0070560Y0219281D01*
X0070148Y0218869D01*
X0069481Y0219315D01*
X0069488Y0219333D01*
X0069488Y0220037D01*
X0069471Y0220079D01*
X0069997Y0220866D01*
X0096144Y0220866D01*
X0096671Y0220079D01*
X0096653Y0220037D01*
X0096653Y0219333D01*
X0096923Y0218681D01*
X0097422Y0218183D01*
X0098073Y0217913D01*
X0098778Y0217913D01*
X0099429Y0218183D01*
X0099485Y0218240D01*
X0100000Y0218627D01*
X0100514Y0218240D01*
X0100571Y0218183D01*
X0101222Y0217913D01*
X0101927Y0217913D01*
X0102578Y0218183D01*
X0102635Y0218240D01*
X0103150Y0218627D01*
X0103664Y0218240D01*
X0103721Y0218183D01*
X0104372Y0217913D01*
X0104533Y0217671D01*
X0104527Y0217657D01*
X0104527Y0216952D01*
X0104797Y0216301D01*
X0105296Y0215802D01*
X0105947Y0215533D01*
X0106652Y0215533D01*
X0107303Y0215802D01*
X0107801Y0216301D01*
X0108071Y0216952D01*
X0108071Y0217657D01*
X0108668Y0218096D01*
X0108877Y0218183D01*
X0108934Y0218240D01*
X0109449Y0218627D01*
X0109963Y0218240D01*
X0110020Y0218183D01*
X0110671Y0217913D01*
X0111376Y0217913D01*
X0112027Y0218183D01*
X0112525Y0218681D01*
X0112795Y0219333D01*
X0112795Y0220037D01*
X0112778Y0220079D01*
X0113304Y0220866D01*
X0119651Y0220866D01*
X0119807Y0220079D01*
X0119394Y0219907D01*
X0118895Y0219409D01*
X0118639Y0219358D01*
X0118514Y0219483D01*
X0117862Y0219753D01*
X0117158Y0219753D01*
X0116507Y0219483D01*
X0116008Y0218985D01*
X0115738Y0218333D01*
X0115738Y0217629D01*
X0116008Y0216978D01*
X0116507Y0216479D01*
X0117158Y0216209D01*
X0117862Y0216209D01*
X0118514Y0216479D01*
X0119012Y0216978D01*
X0119269Y0217028D01*
X0119394Y0216903D01*
X0120045Y0216634D01*
X0120750Y0216634D01*
X0121401Y0216903D01*
X0121899Y0217402D01*
X0122169Y0218053D01*
X0122169Y0218758D01*
X0121899Y0219409D01*
X0121401Y0219907D01*
X0120987Y0220079D01*
X0121144Y0220866D01*
X0126359Y0220866D01*
X0126367Y0220082D01*
X0126299Y0220054D01*
X0125716Y0219812D01*
X0125217Y0219314D01*
X0124948Y0218663D01*
X0124948Y0217958D01*
X0125217Y0217307D01*
X0125716Y0216808D01*
X0126367Y0216539D01*
X0127072Y0216539D01*
X0127723Y0216808D01*
X0128221Y0217307D01*
X0128491Y0217958D01*
X0128491Y0218663D01*
X0128221Y0219314D01*
X0127723Y0219812D01*
X0127140Y0220054D01*
X0127072Y0220082D01*
X0127080Y0220866D01*
X0130396Y0220866D01*
X0130923Y0220079D01*
D02*
G37*
%LPC*%
G36*
X0090116Y0217913D02*
X0089411Y0217913D01*
X0088760Y0217644D01*
X0088262Y0217145D01*
X0087992Y0216494D01*
X0087992Y0215789D01*
X0088262Y0215138D01*
X0088760Y0214640D01*
X0088994Y0214543D01*
X0089428Y0214216D01*
X0089498Y0213583D01*
X0089428Y0213319D01*
X0089428Y0212547D01*
X0089628Y0211800D01*
X0090014Y0211131D01*
X0090560Y0210585D01*
X0091229Y0210199D01*
X0091976Y0209999D01*
X0092748Y0209999D01*
X0093495Y0210199D01*
X0094164Y0210585D01*
X0094710Y0211131D01*
X0095096Y0211800D01*
X0095296Y0212547D01*
X0095296Y0213319D01*
X0095096Y0214066D01*
X0094710Y0214735D01*
X0094164Y0215281D01*
X0093495Y0215667D01*
X0092748Y0215867D01*
X0092263Y0215867D01*
X0091976Y0215867D01*
X0091535Y0216494D01*
X0091265Y0217145D01*
X0090767Y0217644D01*
X0090116Y0217913D01*
D02*
G37*
G36*
X0098974Y0213523D02*
X0098269Y0213523D01*
X0097618Y0213254D01*
X0097120Y0212755D01*
X0096850Y0212104D01*
X0096850Y0211399D01*
X0097120Y0210748D01*
X0097618Y0210250D01*
X0098269Y0209980D01*
X0098974Y0209980D01*
X0099625Y0210250D01*
X0100124Y0210748D01*
X0100393Y0211399D01*
X0100393Y0212104D01*
X0100124Y0212755D01*
X0099625Y0213254D01*
X0098974Y0213523D01*
D02*
G37*
G36*
X0062454Y0212701D02*
X0061750Y0212701D01*
X0061099Y0212431D01*
X0060600Y0211933D01*
X0060331Y0211282D01*
X0060331Y0210577D01*
X0060600Y0209925D01*
X0061099Y0209427D01*
X0061750Y0209157D01*
X0062454Y0209157D01*
X0063106Y0209427D01*
X0063604Y0209925D01*
X0063874Y0210577D01*
X0063874Y0211282D01*
X0063604Y0211933D01*
X0063106Y0212431D01*
X0062454Y0212701D01*
D02*
G37*
G36*
X0150632Y0212288D02*
X0149928Y0212288D01*
X0149276Y0212018D01*
X0148778Y0211520D01*
X0148508Y0210869D01*
X0148508Y0210164D01*
X0148778Y0209513D01*
X0149276Y0209014D01*
X0149928Y0208745D01*
X0150632Y0208745D01*
X0151284Y0209014D01*
X0151782Y0209513D01*
X0152052Y0210164D01*
X0152052Y0210869D01*
X0151782Y0211520D01*
X0151284Y0212018D01*
X0150632Y0212288D01*
D02*
G37*
G36*
X0142378Y0211631D02*
X0141673Y0211631D01*
X0141022Y0211361D01*
X0140524Y0210863D01*
X0140254Y0210211D01*
X0140254Y0209507D01*
X0140524Y0208855D01*
X0141022Y0208357D01*
X0141673Y0208087D01*
X0142378Y0208087D01*
X0143029Y0208357D01*
X0143527Y0208855D01*
X0143797Y0209507D01*
X0143797Y0210211D01*
X0143527Y0210863D01*
X0143029Y0211361D01*
X0142378Y0211631D01*
D02*
G37*
G36*
X0111278Y0211614D02*
X0110574Y0211614D01*
X0109922Y0211344D01*
X0109424Y0210846D01*
X0109154Y0210195D01*
X0109154Y0209490D01*
X0109424Y0208839D01*
X0109922Y0208341D01*
X0110574Y0208071D01*
X0111278Y0208071D01*
X0111930Y0208341D01*
X0112303Y0208714D01*
X0112775Y0208242D01*
X0113426Y0207972D01*
X0114131Y0207972D01*
X0114782Y0208242D01*
X0115281Y0208740D01*
X0115550Y0209392D01*
X0115550Y0210096D01*
X0115281Y0210748D01*
X0114782Y0211246D01*
X0114131Y0211516D01*
X0113426Y0211516D01*
X0112775Y0211246D01*
X0112402Y0210872D01*
X0111930Y0211344D01*
X0111278Y0211614D01*
D02*
G37*
G36*
X0179109Y0212499D02*
X0178404Y0212499D01*
X0177753Y0212230D01*
X0177254Y0211731D01*
X0176985Y0211080D01*
X0176985Y0210375D01*
X0177254Y0209724D01*
X0177753Y0209226D01*
X0178404Y0208956D01*
X0179109Y0208956D01*
X0179766Y0209123D01*
X0180036Y0208471D01*
X0180534Y0207973D01*
X0181186Y0207703D01*
X0181890Y0207703D01*
X0182542Y0207973D01*
X0183040Y0208471D01*
X0183310Y0209123D01*
X0183310Y0209827D01*
X0183040Y0210479D01*
X0182542Y0210977D01*
X0181890Y0211247D01*
X0181186Y0211247D01*
X0180528Y0211080D01*
X0180258Y0211731D01*
X0179760Y0212230D01*
X0179109Y0212499D01*
D02*
G37*
G36*
X0123187Y0211220D02*
X0122482Y0211220D01*
X0121831Y0210951D01*
X0121333Y0210452D01*
X0121063Y0209801D01*
X0121063Y0209096D01*
X0121333Y0208445D01*
X0121831Y0207947D01*
X0122482Y0207677D01*
X0123187Y0207677D01*
X0123838Y0207947D01*
X0124336Y0208445D01*
X0124606Y0209096D01*
X0124606Y0209801D01*
X0124336Y0210452D01*
X0123838Y0210951D01*
X0123187Y0211220D01*
D02*
G37*
G36*
X0169644Y0211614D02*
X0168939Y0211614D01*
X0168288Y0211344D01*
X0167789Y0210846D01*
X0166888Y0210433D01*
X0166183Y0210433D01*
X0165532Y0210163D01*
X0165033Y0209665D01*
X0164764Y0209014D01*
X0164764Y0208309D01*
X0165033Y0207658D01*
X0165532Y0207159D01*
X0166183Y0206890D01*
X0166888Y0206890D01*
X0167539Y0207159D01*
X0168037Y0207658D01*
X0168939Y0208071D01*
X0169644Y0208071D01*
X0170295Y0208341D01*
X0170793Y0208839D01*
X0171063Y0209490D01*
X0171063Y0210195D01*
X0170793Y0210846D01*
X0170295Y0211344D01*
X0169644Y0211614D01*
D02*
G37*
G36*
X0069861Y0213670D02*
X0069156Y0213670D01*
X0068505Y0213400D01*
X0068007Y0212902D01*
X0067737Y0212251D01*
X0067737Y0211546D01*
X0068007Y0210895D01*
X0068505Y0210396D01*
X0068915Y0210226D01*
X0069156Y0210127D01*
X0069433Y0209339D01*
X0069428Y0209319D01*
X0069428Y0208547D01*
X0069608Y0207874D01*
X0069605Y0207753D01*
X0069219Y0206933D01*
X0068939Y0206817D01*
X0068440Y0206318D01*
X0068171Y0205667D01*
X0068171Y0205346D01*
X0067383Y0205094D01*
X0067063Y0205413D01*
X0066412Y0205683D01*
X0065707Y0205683D01*
X0065056Y0205413D01*
X0064558Y0204915D01*
X0064288Y0204264D01*
X0064288Y0203559D01*
X0064558Y0202908D01*
X0064936Y0202530D01*
X0065056Y0202410D01*
X0064707Y0201763D01*
X0064635Y0201770D01*
X0064624Y0201771D01*
X0064572Y0201771D01*
X0063919Y0201771D01*
X0063268Y0201502D01*
X0062769Y0201003D01*
X0062500Y0200352D01*
X0062500Y0199647D01*
X0062769Y0198996D01*
X0063268Y0198498D01*
X0063919Y0198228D01*
X0064624Y0198228D01*
X0065275Y0198498D01*
X0065341Y0198564D01*
X0065987Y0198842D01*
X0066369Y0198564D01*
X0066558Y0198375D01*
X0067209Y0198105D01*
X0067914Y0198105D01*
X0068565Y0198375D01*
X0069064Y0198873D01*
X0069333Y0199524D01*
X0069333Y0200229D01*
X0069064Y0200880D01*
X0068565Y0201379D01*
X0067914Y0201648D01*
X0067391Y0201648D01*
X0067209Y0201648D01*
X0066991Y0202345D01*
X0067056Y0202403D01*
X0067063Y0202410D01*
X0067102Y0202448D01*
X0067562Y0202908D01*
X0067832Y0203559D01*
X0067832Y0203881D01*
X0068619Y0204133D01*
X0068939Y0203813D01*
X0069590Y0203543D01*
X0070295Y0203543D01*
X0070946Y0203813D01*
X0071444Y0204311D01*
X0071714Y0204963D01*
X0071714Y0205254D01*
X0071888Y0205748D01*
X0072429Y0205999D01*
X0072748Y0205999D01*
X0073495Y0206199D01*
X0074164Y0206585D01*
X0074710Y0207131D01*
X0075002Y0207637D01*
X0075547Y0207693D01*
X0075862Y0207617D01*
X0075960Y0207382D01*
X0076458Y0206884D01*
X0077109Y0206614D01*
X0077814Y0206614D01*
X0078465Y0206884D01*
X0078964Y0207382D01*
X0079233Y0208033D01*
X0079233Y0208738D01*
X0078964Y0209389D01*
X0078465Y0209888D01*
X0077814Y0210157D01*
X0077109Y0210157D01*
X0076458Y0209888D01*
X0076051Y0209481D01*
X0075575Y0209518D01*
X0075211Y0209639D01*
X0075096Y0210065D01*
X0074710Y0210735D01*
X0074164Y0211281D01*
X0073495Y0211667D01*
X0072748Y0211867D01*
X0071976Y0211867D01*
X0071831Y0211828D01*
X0071280Y0212251D01*
X0071010Y0212902D01*
X0070512Y0213400D01*
X0069861Y0213670D01*
D02*
G37*
G36*
X0084529Y0211713D02*
X0083824Y0211713D01*
X0083173Y0211443D01*
X0082675Y0210944D01*
X0082405Y0210293D01*
X0082405Y0209588D01*
X0082675Y0208937D01*
X0083173Y0208439D01*
X0083507Y0208301D01*
X0083581Y0208145D01*
X0083676Y0207442D01*
X0083340Y0207106D01*
X0083082Y0206483D01*
X0082516Y0206718D01*
X0081811Y0206718D01*
X0081160Y0206448D01*
X0080661Y0205949D01*
X0080391Y0205298D01*
X0079615Y0205099D01*
X0078910Y0205099D01*
X0078259Y0204830D01*
X0077761Y0204331D01*
X0077657Y0204311D01*
X0077267Y0204701D01*
X0076616Y0204970D01*
X0075911Y0204970D01*
X0075260Y0204701D01*
X0074761Y0204202D01*
X0074492Y0203551D01*
X0074492Y0202846D01*
X0074761Y0202195D01*
X0075260Y0201697D01*
X0075911Y0201427D01*
X0076616Y0201427D01*
X0077267Y0201697D01*
X0077765Y0202195D01*
X0077869Y0202216D01*
X0078259Y0201826D01*
X0078910Y0201556D01*
X0079615Y0201556D01*
X0080266Y0201826D01*
X0080765Y0202324D01*
X0081034Y0202975D01*
X0081811Y0203174D01*
X0082516Y0203174D01*
X0083167Y0203444D01*
X0083665Y0203942D01*
X0083923Y0204565D01*
X0084490Y0204331D01*
X0085195Y0204331D01*
X0085846Y0204600D01*
X0086344Y0205099D01*
X0086614Y0205750D01*
X0086614Y0206455D01*
X0086344Y0207106D01*
X0085846Y0207604D01*
X0085512Y0207742D01*
X0085438Y0207898D01*
X0085343Y0208601D01*
X0085679Y0208937D01*
X0085948Y0209588D01*
X0085948Y0210293D01*
X0085679Y0210944D01*
X0085180Y0211443D01*
X0084529Y0211713D01*
D02*
G37*
G36*
X0129486Y0208464D02*
X0128781Y0208464D01*
X0128130Y0208195D01*
X0127632Y0207696D01*
X0127362Y0207045D01*
X0127362Y0206340D01*
X0127632Y0205689D01*
X0128130Y0205191D01*
X0128781Y0204921D01*
X0129486Y0204921D01*
X0130137Y0205191D01*
X0130636Y0205689D01*
X0130905Y0206340D01*
X0130905Y0207045D01*
X0130636Y0207696D01*
X0130137Y0208195D01*
X0129486Y0208464D01*
D02*
G37*
G36*
X0103502Y0207677D02*
X0102797Y0207677D01*
X0102146Y0207407D01*
X0101648Y0206909D01*
X0101378Y0206258D01*
X0101378Y0205553D01*
X0101648Y0204902D01*
X0102146Y0204403D01*
X0102797Y0204134D01*
X0103502Y0204134D01*
X0104153Y0204403D01*
X0104651Y0204902D01*
X0104921Y0205553D01*
X0104921Y0206258D01*
X0104651Y0206909D01*
X0104153Y0207407D01*
X0103502Y0207677D01*
D02*
G37*
G36*
X0125546Y0206427D02*
X0124841Y0206427D01*
X0124190Y0206158D01*
X0123692Y0205659D01*
X0123422Y0205008D01*
X0123422Y0204303D01*
X0123692Y0203652D01*
X0124190Y0203154D01*
X0124841Y0202884D01*
X0125546Y0202884D01*
X0126197Y0203154D01*
X0126696Y0203652D01*
X0126965Y0204303D01*
X0126965Y0205008D01*
X0126696Y0205659D01*
X0126197Y0206158D01*
X0125546Y0206427D01*
D02*
G37*
G36*
X0184574Y0204546D02*
X0183869Y0204546D01*
X0183218Y0204276D01*
X0182720Y0203778D01*
X0182450Y0203127D01*
X0182450Y0202422D01*
X0182720Y0201771D01*
X0183218Y0201272D01*
X0183869Y0201003D01*
X0184574Y0201003D01*
X0185225Y0201272D01*
X0185723Y0201771D01*
X0185993Y0202422D01*
X0185993Y0203127D01*
X0185723Y0203778D01*
X0185225Y0204276D01*
X0184574Y0204546D01*
D02*
G37*
G36*
X0151174Y0205894D02*
X0150469Y0205894D01*
X0149818Y0205624D01*
X0149320Y0205126D01*
X0149050Y0204475D01*
X0149050Y0203770D01*
X0149320Y0203119D01*
X0149818Y0202621D01*
X0150469Y0202351D01*
X0151174Y0202351D01*
X0151714Y0202574D01*
X0151823Y0202544D01*
X0152121Y0202382D01*
X0152441Y0202123D01*
X0152441Y0201665D01*
X0152711Y0201014D01*
X0153209Y0200516D01*
X0153860Y0200246D01*
X0154565Y0200246D01*
X0155216Y0200516D01*
X0155715Y0201014D01*
X0155984Y0201665D01*
X0155984Y0202370D01*
X0155715Y0203021D01*
X0155216Y0203519D01*
X0154565Y0203789D01*
X0153860Y0203789D01*
X0153321Y0203566D01*
X0153212Y0203596D01*
X0152914Y0203758D01*
X0152593Y0204017D01*
X0152593Y0204475D01*
X0152323Y0205126D01*
X0151825Y0205624D01*
X0151174Y0205894D01*
D02*
G37*
G36*
X0059691Y0203764D02*
X0058986Y0203764D01*
X0058335Y0203494D01*
X0057837Y0202996D01*
X0057567Y0202345D01*
X0057567Y0201640D01*
X0057837Y0200989D01*
X0058335Y0200491D01*
X0058986Y0200221D01*
X0059691Y0200221D01*
X0060342Y0200491D01*
X0060841Y0200989D01*
X0061110Y0201640D01*
X0061110Y0202345D01*
X0060841Y0202996D01*
X0060342Y0203494D01*
X0059691Y0203764D01*
D02*
G37*
G36*
X0051053Y0201743D02*
X0050348Y0201743D01*
X0049697Y0201473D01*
X0049199Y0200975D01*
X0048929Y0200324D01*
X0048929Y0200148D01*
X0048142Y0199991D01*
X0048112Y0200063D01*
X0047614Y0200561D01*
X0046963Y0200831D01*
X0046258Y0200831D01*
X0045606Y0200561D01*
X0045108Y0200063D01*
X0044838Y0199411D01*
X0044838Y0198707D01*
X0045108Y0198056D01*
X0045606Y0197557D01*
X0046258Y0197287D01*
X0046963Y0197287D01*
X0047614Y0197557D01*
X0048112Y0198056D01*
X0048382Y0198707D01*
X0048382Y0198882D01*
X0049169Y0199039D01*
X0049199Y0198968D01*
X0049697Y0198469D01*
X0050348Y0198199D01*
X0051053Y0198199D01*
X0051704Y0198469D01*
X0052203Y0198968D01*
X0052472Y0199619D01*
X0052472Y0200324D01*
X0052203Y0200975D01*
X0051704Y0201473D01*
X0051053Y0201743D01*
D02*
G37*
G36*
X0171138Y0204823D02*
X0170433Y0204823D01*
X0169782Y0204553D01*
X0169283Y0204055D01*
X0169014Y0203403D01*
X0169014Y0202699D01*
X0169283Y0202048D01*
X0169782Y0201549D01*
X0170433Y0201279D01*
X0171138Y0201279D01*
X0171691Y0200656D01*
X0171726Y0200571D01*
X0172225Y0200073D01*
X0172876Y0199803D01*
X0173581Y0199803D01*
X0174232Y0200073D01*
X0174730Y0200571D01*
X0175000Y0201222D01*
X0175000Y0201927D01*
X0174730Y0202578D01*
X0174232Y0203077D01*
X0173581Y0203346D01*
X0172876Y0203346D01*
X0172322Y0203970D01*
X0172287Y0204055D01*
X0171789Y0204553D01*
X0171138Y0204823D01*
D02*
G37*
G36*
X0092352Y0204723D02*
X0091647Y0204723D01*
X0090996Y0204453D01*
X0090497Y0203955D01*
X0090228Y0203304D01*
X0090228Y0202599D01*
X0090247Y0202551D01*
X0090247Y0201699D01*
X0089749Y0201200D01*
X0089479Y0200549D01*
X0089479Y0199844D01*
X0089749Y0199193D01*
X0090247Y0198695D01*
X0090898Y0198425D01*
X0091603Y0198425D01*
X0092254Y0198695D01*
X0092753Y0199193D01*
X0093023Y0199844D01*
X0093023Y0200549D01*
X0093003Y0200597D01*
X0093003Y0201449D01*
X0093501Y0201948D01*
X0093771Y0202599D01*
X0093771Y0203304D01*
X0093501Y0203955D01*
X0093003Y0204453D01*
X0092352Y0204723D01*
D02*
G37*
G36*
X0102932Y0199918D02*
X0102228Y0199918D01*
X0101576Y0199649D01*
X0101078Y0199150D01*
X0100808Y0198499D01*
X0100808Y0197794D01*
X0101078Y0197143D01*
X0101576Y0196645D01*
X0102228Y0196375D01*
X0102932Y0196375D01*
X0103584Y0196645D01*
X0104082Y0197143D01*
X0104352Y0197794D01*
X0104352Y0198499D01*
X0104082Y0199150D01*
X0103584Y0199649D01*
X0102932Y0199918D01*
D02*
G37*
G36*
X0134211Y0199016D02*
X0133506Y0199016D01*
X0132855Y0198746D01*
X0132356Y0198248D01*
X0132087Y0197596D01*
X0132087Y0196892D01*
X0132356Y0196240D01*
X0132855Y0195742D01*
X0133506Y0195472D01*
X0134211Y0195472D01*
X0134862Y0195742D01*
X0135360Y0196240D01*
X0135630Y0196892D01*
X0135630Y0197596D01*
X0135360Y0198248D01*
X0134862Y0198746D01*
X0134211Y0199016D01*
D02*
G37*
G36*
X0094850Y0198656D02*
X0094145Y0198656D01*
X0093494Y0198386D01*
X0092995Y0197888D01*
X0092725Y0197237D01*
X0092725Y0196532D01*
X0092995Y0195881D01*
X0093494Y0195382D01*
X0094145Y0195113D01*
X0094850Y0195113D01*
X0095501Y0195382D01*
X0095999Y0195881D01*
X0096269Y0196532D01*
X0096269Y0197237D01*
X0095999Y0197888D01*
X0095501Y0198386D01*
X0094850Y0198656D01*
D02*
G37*
G36*
X0113344Y0198622D02*
X0112640Y0198622D01*
X0111988Y0198352D01*
X0111490Y0197854D01*
X0111220Y0197203D01*
X0111220Y0196498D01*
X0111490Y0195847D01*
X0111988Y0195348D01*
X0112640Y0195079D01*
X0113344Y0195079D01*
X0113995Y0195348D01*
X0114494Y0195847D01*
X0114764Y0196498D01*
X0114764Y0197203D01*
X0114494Y0197854D01*
X0113995Y0198352D01*
X0113344Y0198622D01*
D02*
G37*
G36*
X0190196Y0200394D02*
X0189491Y0200394D01*
X0188840Y0200124D01*
X0188342Y0199626D01*
X0188072Y0198974D01*
X0188072Y0198611D01*
X0188004Y0198565D01*
X0187299Y0198565D01*
X0186648Y0198296D01*
X0186150Y0197797D01*
X0185880Y0197146D01*
X0185880Y0196441D01*
X0186150Y0195790D01*
X0186648Y0195292D01*
X0187299Y0195022D01*
X0188004Y0195022D01*
X0188655Y0195292D01*
X0189154Y0195790D01*
X0189423Y0196441D01*
X0189423Y0196805D01*
X0189491Y0196850D01*
X0190196Y0196850D01*
X0190847Y0197120D01*
X0191346Y0197618D01*
X0191615Y0198269D01*
X0191615Y0198974D01*
X0191346Y0199626D01*
X0190847Y0200124D01*
X0190196Y0200394D01*
D02*
G37*
G36*
X0087084Y0193595D02*
X0086379Y0193595D01*
X0085728Y0193325D01*
X0085229Y0192827D01*
X0085155Y0192648D01*
X0084850Y0192568D01*
X0084268Y0192564D01*
X0083888Y0192944D01*
X0083237Y0193214D01*
X0082532Y0193214D01*
X0081881Y0192944D01*
X0081383Y0192446D01*
X0081113Y0191795D01*
X0081113Y0191090D01*
X0081383Y0190439D01*
X0081881Y0189940D01*
X0082532Y0189671D01*
X0083237Y0189671D01*
X0083888Y0189940D01*
X0084386Y0190439D01*
X0084461Y0190618D01*
X0084765Y0190698D01*
X0085348Y0190702D01*
X0085728Y0190322D01*
X0086379Y0190052D01*
X0087084Y0190052D01*
X0087735Y0190322D01*
X0088233Y0190820D01*
X0088503Y0191471D01*
X0088503Y0192176D01*
X0088233Y0192827D01*
X0087735Y0193325D01*
X0087084Y0193595D01*
D02*
G37*
G36*
X0079486Y0195866D02*
X0078781Y0195866D01*
X0078130Y0195596D01*
X0077632Y0195098D01*
X0077362Y0194447D01*
X0077362Y0193742D01*
X0077632Y0193091D01*
X0078130Y0192592D01*
X0078781Y0192323D01*
X0079486Y0192323D01*
X0080137Y0192592D01*
X0080636Y0193091D01*
X0080905Y0193742D01*
X0080905Y0194447D01*
X0080636Y0195098D01*
X0080137Y0195596D01*
X0079486Y0195866D01*
D02*
G37*
G36*
X0160539Y0197047D02*
X0159834Y0197047D01*
X0159183Y0196777D01*
X0158685Y0196279D01*
X0158415Y0195628D01*
X0158415Y0194923D01*
X0157699Y0194595D01*
X0157264Y0194415D01*
X0156766Y0193917D01*
X0156496Y0193266D01*
X0156496Y0192561D01*
X0156766Y0191910D01*
X0157264Y0191411D01*
X0157915Y0191142D01*
X0158620Y0191142D01*
X0159271Y0191411D01*
X0159769Y0191910D01*
X0160039Y0192561D01*
X0160039Y0193266D01*
X0160756Y0193594D01*
X0161190Y0193774D01*
X0161689Y0194272D01*
X0161959Y0194923D01*
X0161959Y0195628D01*
X0161689Y0196279D01*
X0161190Y0196777D01*
X0160539Y0197047D01*
D02*
G37*
G36*
X0059407Y0193110D02*
X0058703Y0193110D01*
X0058051Y0192840D01*
X0057553Y0192342D01*
X0057283Y0191691D01*
X0057283Y0190986D01*
X0057553Y0190335D01*
X0058051Y0189837D01*
X0058703Y0189567D01*
X0059407Y0189567D01*
X0060059Y0189837D01*
X0060557Y0190335D01*
X0060827Y0190986D01*
X0060827Y0191691D01*
X0060557Y0192342D01*
X0060059Y0192840D01*
X0059407Y0193110D01*
D02*
G37*
G36*
X0101617Y0195176D02*
X0100912Y0195176D01*
X0100261Y0194906D01*
X0099763Y0194408D01*
X0099493Y0193757D01*
X0099493Y0193052D01*
X0099763Y0192401D01*
X0100144Y0192019D01*
X0099679Y0191555D01*
X0099409Y0190903D01*
X0099409Y0190199D01*
X0099679Y0189548D01*
X0100177Y0189049D01*
X0100828Y0188779D01*
X0101533Y0188779D01*
X0102184Y0189049D01*
X0102683Y0189548D01*
X0102953Y0190199D01*
X0102953Y0190903D01*
X0102683Y0191555D01*
X0102302Y0191936D01*
X0102767Y0192401D01*
X0103036Y0193052D01*
X0103036Y0193757D01*
X0102767Y0194408D01*
X0102268Y0194906D01*
X0101617Y0195176D01*
D02*
G37*
G36*
X0049663Y0192312D02*
X0048958Y0192312D01*
X0048307Y0192042D01*
X0047809Y0191543D01*
X0047539Y0190892D01*
X0047539Y0190187D01*
X0047809Y0189536D01*
X0048307Y0189038D01*
X0048958Y0188768D01*
X0049663Y0188768D01*
X0050314Y0189038D01*
X0050813Y0189536D01*
X0051083Y0190187D01*
X0051083Y0190892D01*
X0050813Y0191543D01*
X0050314Y0192042D01*
X0049663Y0192312D01*
D02*
G37*
G36*
X0188494Y0192064D02*
X0187789Y0192064D01*
X0187138Y0191795D01*
X0186640Y0191296D01*
X0186370Y0190645D01*
X0186370Y0189940D01*
X0186640Y0189289D01*
X0187138Y0188791D01*
X0187789Y0188521D01*
X0188494Y0188521D01*
X0189146Y0188791D01*
X0189644Y0189289D01*
X0189914Y0189940D01*
X0189914Y0190645D01*
X0189644Y0191296D01*
X0189146Y0191795D01*
X0188494Y0192064D01*
D02*
G37*
G36*
X0141794Y0188927D02*
X0141089Y0188927D01*
X0140438Y0188657D01*
X0139940Y0188159D01*
X0139793Y0187803D01*
X0139636Y0187772D01*
X0138985Y0188042D01*
X0138280Y0188042D01*
X0137629Y0187772D01*
X0137130Y0187274D01*
X0136861Y0186623D01*
X0136861Y0186023D01*
X0136262Y0186023D01*
X0135611Y0185754D01*
X0135112Y0185255D01*
X0134842Y0184604D01*
X0134842Y0183899D01*
X0135112Y0183248D01*
X0135611Y0182750D01*
X0136262Y0182480D01*
X0136966Y0182480D01*
X0137618Y0182750D01*
X0138116Y0183248D01*
X0138386Y0183899D01*
X0138386Y0184499D01*
X0138985Y0184499D01*
X0139636Y0184768D01*
X0140134Y0185267D01*
X0140282Y0185622D01*
X0140438Y0185653D01*
X0141089Y0185384D01*
X0141794Y0185384D01*
X0142446Y0185653D01*
X0142944Y0186152D01*
X0143214Y0186803D01*
X0143214Y0187508D01*
X0142944Y0188159D01*
X0142446Y0188657D01*
X0141794Y0188927D01*
D02*
G37*
G36*
X0066396Y0189961D02*
X0065691Y0189961D01*
X0065040Y0189691D01*
X0064541Y0189192D01*
X0064271Y0188541D01*
X0064271Y0187837D01*
X0064541Y0187185D01*
X0065040Y0186687D01*
X0065691Y0186417D01*
X0066396Y0186417D01*
X0067047Y0186687D01*
X0067545Y0187185D01*
X0067815Y0187837D01*
X0067815Y0188541D01*
X0067545Y0189192D01*
X0067047Y0189691D01*
X0066396Y0189961D01*
D02*
G37*
G36*
X0169250Y0189961D02*
X0168545Y0189961D01*
X0167894Y0189691D01*
X0167395Y0189192D01*
X0167126Y0188541D01*
X0167126Y0187837D01*
X0167395Y0187185D01*
X0167894Y0186687D01*
X0168545Y0186417D01*
X0169250Y0186417D01*
X0169901Y0186687D01*
X0170399Y0187185D01*
X0170669Y0187837D01*
X0170669Y0188541D01*
X0170399Y0189192D01*
X0169901Y0189691D01*
X0169250Y0189961D01*
D02*
G37*
G36*
X0094053Y0190748D02*
X0093348Y0190748D01*
X0092697Y0190478D01*
X0092199Y0189980D01*
X0091929Y0189329D01*
X0091929Y0188624D01*
X0092199Y0187973D01*
X0092622Y0187549D01*
X0092199Y0187126D01*
X0091929Y0186474D01*
X0091929Y0185770D01*
X0092199Y0185118D01*
X0092697Y0184620D01*
X0093348Y0184350D01*
X0094053Y0184350D01*
X0094704Y0184620D01*
X0095203Y0185118D01*
X0095472Y0185770D01*
X0095472Y0186474D01*
X0095203Y0187126D01*
X0094779Y0187549D01*
X0095203Y0187973D01*
X0095472Y0188624D01*
X0095472Y0189329D01*
X0095203Y0189980D01*
X0094704Y0190478D01*
X0094053Y0190748D01*
D02*
G37*
G36*
X0118659Y0185236D02*
X0117954Y0185236D01*
X0117303Y0184966D01*
X0116805Y0184468D01*
X0116535Y0183817D01*
X0116535Y0183112D01*
X0116805Y0182461D01*
X0117303Y0181963D01*
X0117954Y0181693D01*
X0118659Y0181693D01*
X0119310Y0181963D01*
X0119809Y0182461D01*
X0120079Y0183112D01*
X0120079Y0183817D01*
X0119809Y0184468D01*
X0119310Y0184966D01*
X0118659Y0185236D01*
D02*
G37*
G36*
X0066029Y0184856D02*
X0065324Y0184856D01*
X0064673Y0184586D01*
X0064174Y0184088D01*
X0063905Y0183437D01*
X0063905Y0182732D01*
X0064174Y0182081D01*
X0064673Y0181582D01*
X0065324Y0181313D01*
X0066029Y0181313D01*
X0066680Y0181582D01*
X0067178Y0182081D01*
X0067448Y0182732D01*
X0067448Y0183437D01*
X0067178Y0184088D01*
X0066680Y0184586D01*
X0066029Y0184856D01*
D02*
G37*
G36*
X0193762Y0184725D02*
X0193057Y0184725D01*
X0192406Y0184456D01*
X0191908Y0183957D01*
X0191638Y0183306D01*
X0191638Y0182601D01*
X0191908Y0181950D01*
X0192406Y0181452D01*
X0193057Y0181182D01*
X0193762Y0181182D01*
X0194413Y0181452D01*
X0194911Y0181950D01*
X0195181Y0182601D01*
X0195181Y0183306D01*
X0194911Y0183957D01*
X0194413Y0184456D01*
X0193762Y0184725D01*
D02*
G37*
G36*
X0086849Y0187454D02*
X0086145Y0187454D01*
X0085494Y0187184D01*
X0084995Y0186686D01*
X0084726Y0186035D01*
X0084726Y0185330D01*
X0084995Y0184679D01*
X0085071Y0184602D01*
X0085410Y0184061D01*
X0085071Y0183574D01*
X0084969Y0183472D01*
X0084699Y0182820D01*
X0084699Y0182115D01*
X0084969Y0181464D01*
X0085467Y0180966D01*
X0086119Y0180696D01*
X0086823Y0180696D01*
X0087475Y0180966D01*
X0087973Y0181464D01*
X0088243Y0182115D01*
X0088243Y0182820D01*
X0087973Y0183472D01*
X0087897Y0183548D01*
X0087558Y0184089D01*
X0087897Y0184576D01*
X0087999Y0184679D01*
X0088269Y0185330D01*
X0088269Y0186035D01*
X0087999Y0186686D01*
X0087501Y0187184D01*
X0086849Y0187454D01*
D02*
G37*
G36*
X0040903Y0184055D02*
X0040199Y0184055D01*
X0039547Y0183785D01*
X0039049Y0183287D01*
X0038779Y0182636D01*
X0038779Y0181931D01*
X0039049Y0181280D01*
X0039547Y0180781D01*
X0040199Y0180512D01*
X0040903Y0180512D01*
X0041555Y0180781D01*
X0042053Y0181280D01*
X0042323Y0181931D01*
X0042323Y0182636D01*
X0042053Y0183287D01*
X0041555Y0183785D01*
X0040903Y0184055D01*
D02*
G37*
G36*
X0077813Y0186360D02*
X0077108Y0186360D01*
X0076457Y0186091D01*
X0075958Y0185592D01*
X0075689Y0184941D01*
X0075689Y0184236D01*
X0075958Y0183585D01*
X0076457Y0183087D01*
X0076955Y0182880D01*
X0076691Y0182242D01*
X0076691Y0181537D01*
X0076961Y0180886D01*
X0077459Y0180388D01*
X0078110Y0180118D01*
X0078815Y0180118D01*
X0079466Y0180388D01*
X0079965Y0180886D01*
X0080234Y0181537D01*
X0080234Y0182242D01*
X0079965Y0182893D01*
X0079466Y0183392D01*
X0078968Y0183598D01*
X0079232Y0184236D01*
X0079232Y0184941D01*
X0078962Y0185592D01*
X0078464Y0186091D01*
X0077813Y0186360D01*
D02*
G37*
G36*
X0177638Y0182874D02*
X0176933Y0182874D01*
X0176282Y0182604D01*
X0175784Y0182106D01*
X0175514Y0181455D01*
X0175514Y0180750D01*
X0175784Y0180099D01*
X0176282Y0179600D01*
X0176933Y0179331D01*
X0177638Y0179331D01*
X0178289Y0179600D01*
X0178788Y0180099D01*
X0179057Y0180750D01*
X0179057Y0181455D01*
X0178788Y0182106D01*
X0178289Y0182604D01*
X0177638Y0182874D01*
D02*
G37*
G36*
X0164840Y0184587D02*
X0164136Y0184587D01*
X0163485Y0184317D01*
X0162986Y0183818D01*
X0162716Y0183167D01*
X0162716Y0182981D01*
X0162557Y0182874D01*
X0161852Y0182874D01*
X0161201Y0182604D01*
X0160703Y0182106D01*
X0160433Y0181455D01*
X0160433Y0180750D01*
X0160703Y0180099D01*
X0161201Y0179600D01*
X0161852Y0179331D01*
X0162557Y0179331D01*
X0163208Y0179600D01*
X0163707Y0180099D01*
X0163976Y0180750D01*
X0163976Y0180937D01*
X0164136Y0181043D01*
X0164840Y0181043D01*
X0165492Y0181313D01*
X0165990Y0181811D01*
X0166260Y0182463D01*
X0166260Y0183167D01*
X0165990Y0183818D01*
X0165492Y0184317D01*
X0164840Y0184587D01*
D02*
G37*
G36*
X0154289Y0178937D02*
X0153585Y0178937D01*
X0152933Y0178667D01*
X0152876Y0178610D01*
X0152362Y0178224D01*
X0151848Y0178610D01*
X0151791Y0178667D01*
X0151140Y0178937D01*
X0150435Y0178937D01*
X0149784Y0178667D01*
X0149285Y0178169D01*
X0149016Y0177518D01*
X0149016Y0176813D01*
X0149285Y0176162D01*
X0149784Y0175663D01*
X0150435Y0175394D01*
X0151140Y0175394D01*
X0151791Y0175663D01*
X0151848Y0175720D01*
X0152362Y0176107D01*
X0152876Y0175720D01*
X0152933Y0175663D01*
X0153585Y0175394D01*
X0154289Y0175394D01*
X0154940Y0175663D01*
X0155439Y0176162D01*
X0155709Y0176813D01*
X0155709Y0177518D01*
X0155439Y0178169D01*
X0154940Y0178667D01*
X0154289Y0178937D01*
D02*
G37*
G36*
X0058571Y0179331D02*
X0057866Y0179331D01*
X0057215Y0179061D01*
X0056716Y0178562D01*
X0056528Y0178108D01*
X0056339Y0178018D01*
X0055915Y0177929D01*
X0055670Y0177937D01*
X0055334Y0178273D01*
X0054683Y0178543D01*
X0053978Y0178543D01*
X0053327Y0178273D01*
X0052829Y0177775D01*
X0052559Y0177124D01*
X0052559Y0176419D01*
X0052829Y0175768D01*
X0053327Y0175270D01*
X0053978Y0175000D01*
X0054683Y0175000D01*
X0055334Y0175270D01*
X0055832Y0175768D01*
X0056021Y0176222D01*
X0056210Y0176313D01*
X0056634Y0176401D01*
X0056879Y0176393D01*
X0057215Y0176057D01*
X0057866Y0175787D01*
X0058571Y0175787D01*
X0059222Y0176057D01*
X0059720Y0176555D01*
X0059990Y0177207D01*
X0059990Y0177911D01*
X0059720Y0178562D01*
X0059222Y0179061D01*
X0058571Y0179331D01*
D02*
G37*
G36*
X0118856Y0180118D02*
X0118151Y0180118D01*
X0117500Y0179848D01*
X0117002Y0179350D01*
X0116732Y0178699D01*
X0116732Y0177994D01*
X0117002Y0177343D01*
X0117500Y0176844D01*
X0118151Y0176575D01*
X0118856Y0176575D01*
X0119507Y0176844D01*
X0119552Y0176889D01*
X0120457Y0176681D01*
X0120549Y0176460D01*
X0121047Y0175961D01*
X0121698Y0175692D01*
X0122403Y0175692D01*
X0123054Y0175961D01*
X0123553Y0176460D01*
X0123822Y0177111D01*
X0123822Y0177816D01*
X0123553Y0178467D01*
X0123054Y0178965D01*
X0122403Y0179235D01*
X0121698Y0179235D01*
X0121047Y0178965D01*
X0121003Y0178921D01*
X0120097Y0179129D01*
X0120006Y0179350D01*
X0119507Y0179848D01*
X0118856Y0180118D01*
D02*
G37*
G36*
X0070577Y0178270D02*
X0069872Y0178270D01*
X0069221Y0178000D01*
X0068722Y0177502D01*
X0068453Y0176850D01*
X0068453Y0176146D01*
X0068722Y0175495D01*
X0069221Y0174996D01*
X0069872Y0174726D01*
X0070577Y0174726D01*
X0071228Y0174996D01*
X0071726Y0175495D01*
X0071996Y0176146D01*
X0071996Y0176850D01*
X0071726Y0177502D01*
X0071228Y0178000D01*
X0070577Y0178270D01*
D02*
G37*
G36*
X0138541Y0176575D02*
X0137836Y0176575D01*
X0137185Y0176305D01*
X0136687Y0175807D01*
X0136417Y0175155D01*
X0136417Y0174451D01*
X0136687Y0173800D01*
X0137185Y0173301D01*
X0137836Y0173031D01*
X0138541Y0173031D01*
X0139192Y0173301D01*
X0139691Y0173800D01*
X0139961Y0174451D01*
X0139961Y0175155D01*
X0139691Y0175807D01*
X0139192Y0176305D01*
X0138541Y0176575D01*
D02*
G37*
G36*
X0142872Y0176329D02*
X0142167Y0176329D01*
X0141516Y0176059D01*
X0141018Y0175561D01*
X0140748Y0174909D01*
X0140748Y0174205D01*
X0141018Y0173553D01*
X0141516Y0173055D01*
X0142167Y0172785D01*
X0142872Y0172785D01*
X0143523Y0173055D01*
X0144021Y0173553D01*
X0144291Y0174205D01*
X0144291Y0174909D01*
X0144021Y0175561D01*
X0143523Y0176059D01*
X0142872Y0176329D01*
D02*
G37*
G36*
X0093914Y0175796D02*
X0093209Y0175796D01*
X0092558Y0175526D01*
X0092059Y0175028D01*
X0091790Y0174376D01*
X0091790Y0173672D01*
X0091881Y0173451D01*
X0091770Y0173219D01*
X0091324Y0172739D01*
X0090837Y0172739D01*
X0090446Y0172577D01*
X0090379Y0172626D01*
X0089921Y0173213D01*
X0090108Y0173663D01*
X0090108Y0174368D01*
X0089838Y0175019D01*
X0089340Y0175517D01*
X0088689Y0175787D01*
X0087984Y0175787D01*
X0087333Y0175517D01*
X0086835Y0175019D01*
X0086565Y0174368D01*
X0086565Y0173663D01*
X0086835Y0173012D01*
X0087258Y0172589D01*
X0086835Y0172165D01*
X0086565Y0171514D01*
X0086565Y0170809D01*
X0086835Y0170158D01*
X0087333Y0169659D01*
X0087984Y0169390D01*
X0088689Y0169390D01*
X0089340Y0169659D01*
X0090177Y0169474D01*
X0090185Y0169466D01*
X0090826Y0169201D01*
X0090853Y0169188D01*
X0091535Y0168856D01*
X0091535Y0168151D01*
X0091805Y0167500D01*
X0091852Y0167454D01*
X0091667Y0166525D01*
X0091516Y0166463D01*
X0091018Y0165964D01*
X0090748Y0165313D01*
X0090748Y0164608D01*
X0091018Y0163957D01*
X0091516Y0163459D01*
X0092167Y0163189D01*
X0092872Y0163189D01*
X0093523Y0163459D01*
X0094021Y0163957D01*
X0094291Y0164608D01*
X0094291Y0165313D01*
X0094021Y0165964D01*
X0093975Y0166011D01*
X0094160Y0166939D01*
X0094310Y0167002D01*
X0094809Y0167500D01*
X0095079Y0168151D01*
X0095079Y0168856D01*
X0094809Y0169507D01*
X0094310Y0170006D01*
X0093670Y0170271D01*
X0093643Y0170284D01*
X0092961Y0170615D01*
X0092961Y0171320D01*
X0092869Y0171541D01*
X0092980Y0171773D01*
X0093427Y0172252D01*
X0093914Y0172252D01*
X0094565Y0172522D01*
X0095063Y0173020D01*
X0095333Y0173672D01*
X0095333Y0174376D01*
X0095063Y0175028D01*
X0094565Y0175526D01*
X0093914Y0175796D01*
D02*
G37*
G36*
X0118856Y0171457D02*
X0118151Y0171457D01*
X0117500Y0171187D01*
X0117002Y0170688D01*
X0116217Y0170852D01*
X0115707Y0171063D01*
X0115002Y0171063D01*
X0114351Y0170793D01*
X0113852Y0170295D01*
X0113582Y0169644D01*
X0113582Y0168939D01*
X0113852Y0168288D01*
X0114351Y0167789D01*
X0115002Y0167520D01*
X0115707Y0167520D01*
X0116358Y0167789D01*
X0116856Y0168288D01*
X0117641Y0168125D01*
X0118151Y0167913D01*
X0118856Y0167913D01*
X0119507Y0168183D01*
X0120006Y0168681D01*
X0120275Y0169333D01*
X0120275Y0170037D01*
X0120006Y0170688D01*
X0119507Y0171187D01*
X0118856Y0171457D01*
D02*
G37*
G36*
X0078403Y0173427D02*
X0077699Y0173427D01*
X0077047Y0173157D01*
X0076549Y0172659D01*
X0076279Y0172008D01*
X0076279Y0171303D01*
X0076549Y0170652D01*
X0077047Y0170154D01*
X0077699Y0169884D01*
X0078403Y0169884D01*
X0079055Y0170154D01*
X0079553Y0170652D01*
X0079823Y0171303D01*
X0079823Y0172008D01*
X0079553Y0172659D01*
X0079055Y0173157D01*
X0078403Y0173427D01*
D02*
G37*
G36*
X0188872Y0177707D02*
X0188167Y0177707D01*
X0187516Y0177437D01*
X0187018Y0176939D01*
X0186748Y0176288D01*
X0186748Y0175583D01*
X0187018Y0174932D01*
X0187516Y0174433D01*
X0188167Y0174163D01*
X0188872Y0174163D01*
X0189523Y0174433D01*
X0189937Y0174847D01*
X0190427Y0174858D01*
X0190814Y0174787D01*
X0190856Y0174685D01*
X0191355Y0174187D01*
X0192006Y0173917D01*
X0192711Y0173917D01*
X0192862Y0173190D01*
X0192303Y0172959D01*
X0191805Y0172460D01*
X0191535Y0171809D01*
X0191535Y0171104D01*
X0191805Y0170453D01*
X0192303Y0169955D01*
X0192955Y0169685D01*
X0193659Y0169685D01*
X0194310Y0169955D01*
X0194809Y0170453D01*
X0195079Y0171104D01*
X0195079Y0171809D01*
X0195100Y0171841D01*
X0195529Y0171841D01*
X0196180Y0172111D01*
X0196679Y0172609D01*
X0196949Y0173261D01*
X0196949Y0173965D01*
X0196679Y0174617D01*
X0196180Y0175115D01*
X0195529Y0175385D01*
X0194825Y0175385D01*
X0194130Y0175949D01*
X0194130Y0176041D01*
X0193860Y0176692D01*
X0193362Y0177191D01*
X0192711Y0177461D01*
X0192006Y0177461D01*
X0191355Y0177191D01*
X0190941Y0176777D01*
X0190451Y0176766D01*
X0190064Y0176837D01*
X0190022Y0176939D01*
X0189523Y0177437D01*
X0188872Y0177707D01*
D02*
G37*
G36*
X0071063Y0172533D02*
X0070358Y0172533D01*
X0069707Y0172264D01*
X0069208Y0171765D01*
X0068939Y0171114D01*
X0068939Y0170409D01*
X0069208Y0169758D01*
X0069707Y0169260D01*
X0070358Y0168990D01*
X0071063Y0168990D01*
X0071714Y0169260D01*
X0072212Y0169758D01*
X0072482Y0170409D01*
X0072482Y0171114D01*
X0072212Y0171765D01*
X0071714Y0172264D01*
X0071063Y0172533D01*
D02*
G37*
G36*
X0175155Y0173425D02*
X0174451Y0173425D01*
X0173799Y0173155D01*
X0173301Y0172657D01*
X0173031Y0172006D01*
X0173031Y0171301D01*
X0173301Y0170650D01*
X0173799Y0170151D01*
X0174451Y0169882D01*
X0174924Y0169882D01*
X0175303Y0169187D01*
X0175310Y0169154D01*
X0175270Y0169114D01*
X0175000Y0168463D01*
X0175000Y0167758D01*
X0175270Y0167107D01*
X0175768Y0166608D01*
X0176419Y0166339D01*
X0177124Y0166339D01*
X0177775Y0166608D01*
X0178273Y0167107D01*
X0178543Y0167758D01*
X0178543Y0168463D01*
X0178273Y0169114D01*
X0177775Y0169612D01*
X0177124Y0169882D01*
X0176650Y0169882D01*
X0176271Y0170576D01*
X0176264Y0170609D01*
X0176305Y0170650D01*
X0176575Y0171301D01*
X0176575Y0172006D01*
X0176305Y0172657D01*
X0175806Y0173155D01*
X0175155Y0173425D01*
D02*
G37*
G36*
X0158620Y0165551D02*
X0157915Y0165551D01*
X0157264Y0165281D01*
X0157207Y0165225D01*
X0156693Y0164838D01*
X0156178Y0165225D01*
X0156122Y0165281D01*
X0155470Y0165551D01*
X0154765Y0165551D01*
X0154114Y0165281D01*
X0153616Y0164783D01*
X0153346Y0164132D01*
X0153346Y0163427D01*
X0153616Y0162776D01*
X0154114Y0162278D01*
X0154765Y0162008D01*
X0155470Y0162008D01*
X0156122Y0162278D01*
X0156178Y0162334D01*
X0156693Y0162721D01*
X0157207Y0162334D01*
X0157264Y0162278D01*
X0157915Y0162008D01*
X0158620Y0162008D01*
X0159271Y0162278D01*
X0159769Y0162776D01*
X0160039Y0163427D01*
X0160039Y0164132D01*
X0159769Y0164783D01*
X0159271Y0165281D01*
X0158620Y0165551D01*
D02*
G37*
G36*
X0146900Y0165661D02*
X0146195Y0165661D01*
X0145544Y0165392D01*
X0145046Y0164893D01*
X0144776Y0164242D01*
X0144685Y0164196D01*
X0144536Y0164204D01*
X0143772Y0164545D01*
X0143628Y0164893D01*
X0143129Y0165392D01*
X0142478Y0165661D01*
X0141773Y0165661D01*
X0141122Y0165392D01*
X0140624Y0164893D01*
X0140354Y0164242D01*
X0140354Y0163537D01*
X0140624Y0162886D01*
X0141122Y0162388D01*
X0141773Y0162118D01*
X0142478Y0162118D01*
X0142569Y0161832D01*
X0142569Y0161727D01*
X0142839Y0161076D01*
X0143337Y0160578D01*
X0143988Y0160308D01*
X0144693Y0160308D01*
X0145344Y0160578D01*
X0145842Y0161076D01*
X0146672Y0161022D01*
X0146825Y0160654D01*
X0147323Y0160156D01*
X0147974Y0159886D01*
X0148679Y0159886D01*
X0149330Y0160156D01*
X0149829Y0160654D01*
X0150098Y0161305D01*
X0150098Y0162010D01*
X0149829Y0162661D01*
X0149330Y0163160D01*
X0148679Y0163429D01*
X0148621Y0163429D01*
X0148319Y0163537D01*
X0148319Y0164242D01*
X0148049Y0164893D01*
X0147551Y0165392D01*
X0146900Y0165661D01*
D02*
G37*
G36*
X0086966Y0166929D02*
X0086262Y0166929D01*
X0085610Y0166659D01*
X0085112Y0166161D01*
X0084842Y0165510D01*
X0084842Y0164805D01*
X0085112Y0164154D01*
X0085610Y0163655D01*
X0086262Y0163386D01*
X0086966Y0163386D01*
X0087618Y0163655D01*
X0088116Y0164154D01*
X0088386Y0164805D01*
X0088386Y0165510D01*
X0088116Y0166161D01*
X0087618Y0166659D01*
X0086966Y0166929D01*
D02*
G37*
G36*
X0078403Y0166339D02*
X0077699Y0166339D01*
X0077047Y0166069D01*
X0076549Y0165570D01*
X0076279Y0164919D01*
X0076279Y0164214D01*
X0076549Y0163563D01*
X0077047Y0163065D01*
X0077699Y0162795D01*
X0078403Y0162795D01*
X0079055Y0163065D01*
X0079553Y0163563D01*
X0079823Y0164214D01*
X0079823Y0164919D01*
X0079553Y0165570D01*
X0079055Y0166069D01*
X0078403Y0166339D01*
D02*
G37*
G36*
X0112915Y0166088D02*
X0112210Y0166088D01*
X0111559Y0165819D01*
X0111060Y0165320D01*
X0110790Y0164669D01*
X0110790Y0163964D01*
X0111060Y0163313D01*
X0111559Y0162815D01*
X0112210Y0162545D01*
X0112915Y0162545D01*
X0113566Y0162815D01*
X0114064Y0163313D01*
X0114334Y0163964D01*
X0114334Y0164669D01*
X0114064Y0165320D01*
X0113566Y0165819D01*
X0112915Y0166088D01*
D02*
G37*
G36*
X0069151Y0167963D02*
X0068447Y0167963D01*
X0067795Y0167693D01*
X0067297Y0167195D01*
X0067027Y0166544D01*
X0067027Y0165839D01*
X0067297Y0165188D01*
X0067795Y0164690D01*
X0068447Y0164420D01*
X0069151Y0164420D01*
X0069528Y0163724D01*
X0069758Y0163170D01*
X0070256Y0162671D01*
X0070907Y0162402D01*
X0071612Y0162402D01*
X0072263Y0162671D01*
X0072762Y0163170D01*
X0073031Y0163821D01*
X0073031Y0164526D01*
X0072762Y0165177D01*
X0072263Y0165675D01*
X0071612Y0165945D01*
X0070907Y0165945D01*
X0070531Y0166641D01*
X0070301Y0167195D01*
X0069803Y0167693D01*
X0069151Y0167963D01*
D02*
G37*
G36*
X0194033Y0165571D02*
X0193328Y0165571D01*
X0192677Y0165302D01*
X0192178Y0164803D01*
X0191909Y0164152D01*
X0191909Y0163447D01*
X0192178Y0162796D01*
X0192677Y0162298D01*
X0193328Y0162028D01*
X0194033Y0162028D01*
X0194684Y0162298D01*
X0195182Y0162796D01*
X0195452Y0163447D01*
X0195452Y0164152D01*
X0195182Y0164803D01*
X0194684Y0165302D01*
X0194033Y0165571D01*
D02*
G37*
G36*
X0137360Y0164480D02*
X0136655Y0164480D01*
X0136004Y0164210D01*
X0135506Y0163712D01*
X0135236Y0163061D01*
X0135236Y0162356D01*
X0135506Y0161705D01*
X0136004Y0161207D01*
X0136655Y0160937D01*
X0137360Y0160937D01*
X0138011Y0161207D01*
X0138510Y0161705D01*
X0138779Y0162356D01*
X0138779Y0163061D01*
X0138510Y0163712D01*
X0138011Y0164210D01*
X0137360Y0164480D01*
D02*
G37*
G36*
X0102197Y0169109D02*
X0101492Y0169109D01*
X0100841Y0168840D01*
X0100342Y0168341D01*
X0100073Y0167690D01*
X0100073Y0166985D01*
X0100342Y0166334D01*
X0100841Y0165836D01*
X0101492Y0165566D01*
X0102197Y0165566D01*
X0102728Y0164934D01*
X0102559Y0164526D01*
X0102559Y0163821D01*
X0102829Y0163170D01*
X0102933Y0163066D01*
X0102606Y0162278D01*
X0102362Y0162278D01*
X0101710Y0162008D01*
X0101212Y0161510D01*
X0100942Y0160859D01*
X0100942Y0160154D01*
X0101212Y0159503D01*
X0101710Y0159005D01*
X0102002Y0158884D01*
X0102064Y0158858D01*
X0101907Y0158071D01*
X0101852Y0158071D01*
X0101616Y0158071D01*
X0100965Y0157801D01*
X0100466Y0157303D01*
X0100197Y0156652D01*
X0100197Y0155947D01*
X0100466Y0155296D01*
X0100965Y0154797D01*
X0101616Y0154528D01*
X0102321Y0154528D01*
X0102972Y0154797D01*
X0103470Y0155296D01*
X0103740Y0155947D01*
X0103740Y0156652D01*
X0103470Y0157303D01*
X0102972Y0157801D01*
X0102680Y0157922D01*
X0102619Y0157947D01*
X0102775Y0158735D01*
X0102830Y0158735D01*
X0103066Y0158735D01*
X0103718Y0159005D01*
X0104216Y0159503D01*
X0104451Y0160070D01*
X0104540Y0160088D01*
X0105191Y0159818D01*
X0105896Y0159818D01*
X0106292Y0159130D01*
X0106372Y0158937D01*
X0106870Y0158439D01*
X0107521Y0158169D01*
X0108226Y0158169D01*
X0108877Y0158439D01*
X0109376Y0158937D01*
X0109646Y0159588D01*
X0109646Y0160293D01*
X0109376Y0160944D01*
X0108877Y0161443D01*
X0108226Y0161713D01*
X0107521Y0161713D01*
X0107125Y0162401D01*
X0107046Y0162593D01*
X0106547Y0163091D01*
X0105910Y0163356D01*
X0106102Y0163821D01*
X0106102Y0164526D01*
X0105832Y0165177D01*
X0105334Y0165675D01*
X0104683Y0165945D01*
X0103978Y0165945D01*
X0103447Y0166577D01*
X0103616Y0166985D01*
X0103616Y0167690D01*
X0103346Y0168341D01*
X0102848Y0168840D01*
X0102197Y0169109D01*
D02*
G37*
G36*
X0178306Y0161221D02*
X0177601Y0161221D01*
X0176950Y0160951D01*
X0176451Y0160453D01*
X0176181Y0159802D01*
X0176181Y0159097D01*
X0176451Y0158446D01*
X0176950Y0157947D01*
X0177601Y0157678D01*
X0178306Y0157678D01*
X0178957Y0157947D01*
X0179455Y0158446D01*
X0179725Y0159097D01*
X0179725Y0159802D01*
X0179455Y0160453D01*
X0178957Y0160951D01*
X0178306Y0161221D01*
D02*
G37*
G36*
X0169330Y0156057D02*
X0168626Y0156057D01*
X0167974Y0155787D01*
X0167476Y0155289D01*
X0167206Y0154637D01*
X0167206Y0153933D01*
X0167476Y0153281D01*
X0167974Y0152783D01*
X0168626Y0152513D01*
X0169330Y0152513D01*
X0169982Y0152783D01*
X0170480Y0153281D01*
X0170750Y0153933D01*
X0170750Y0154637D01*
X0170480Y0155289D01*
X0169982Y0155787D01*
X0169330Y0156057D01*
D02*
G37*
G36*
X0078184Y0155512D02*
X0077479Y0155512D01*
X0076828Y0155242D01*
X0076329Y0154744D01*
X0076059Y0154092D01*
X0076059Y0153388D01*
X0076329Y0152737D01*
X0076828Y0152238D01*
X0077479Y0151968D01*
X0078184Y0151968D01*
X0078835Y0152238D01*
X0079333Y0152737D01*
X0079603Y0153388D01*
X0079603Y0154092D01*
X0079333Y0154744D01*
X0078835Y0155242D01*
X0078184Y0155512D01*
D02*
G37*
G36*
X0196218Y0155020D02*
X0195514Y0155020D01*
X0194862Y0154750D01*
X0194364Y0154251D01*
X0194094Y0153600D01*
X0194094Y0152895D01*
X0194364Y0152244D01*
X0194862Y0151746D01*
X0195514Y0151476D01*
X0196218Y0151476D01*
X0196870Y0151746D01*
X0197368Y0152244D01*
X0197638Y0152895D01*
X0197638Y0153600D01*
X0197368Y0154251D01*
X0196870Y0154750D01*
X0196218Y0155020D01*
D02*
G37*
G36*
X0162189Y0154967D02*
X0161484Y0154967D01*
X0160833Y0154697D01*
X0160334Y0154199D01*
X0160065Y0153548D01*
X0160065Y0152843D01*
X0160334Y0152192D01*
X0160833Y0151693D01*
X0161484Y0151424D01*
X0162189Y0151424D01*
X0162840Y0151693D01*
X0163338Y0152192D01*
X0163608Y0152843D01*
X0163608Y0153548D01*
X0163338Y0154199D01*
X0162840Y0154697D01*
X0162189Y0154967D01*
D02*
G37*
G36*
X0159407Y0150197D02*
X0158703Y0150197D01*
X0158051Y0149927D01*
X0157553Y0149429D01*
X0157513Y0149331D01*
X0156660Y0149331D01*
X0156620Y0149429D01*
X0156122Y0149927D01*
X0155470Y0150197D01*
X0154765Y0150197D01*
X0154114Y0149927D01*
X0153616Y0149429D01*
X0153346Y0148778D01*
X0153346Y0148073D01*
X0153616Y0147422D01*
X0154114Y0146923D01*
X0154765Y0146654D01*
X0155470Y0146654D01*
X0156122Y0146923D01*
X0156620Y0147422D01*
X0156660Y0147519D01*
X0157513Y0147519D01*
X0157553Y0147422D01*
X0158051Y0146923D01*
X0158703Y0146654D01*
X0159407Y0146654D01*
X0160058Y0146923D01*
X0160557Y0147422D01*
X0160827Y0148073D01*
X0160827Y0148778D01*
X0160557Y0149429D01*
X0160058Y0149927D01*
X0159407Y0150197D01*
D02*
G37*
G36*
X0070037Y0152559D02*
X0069333Y0152559D01*
X0068681Y0152289D01*
X0068183Y0151791D01*
X0067913Y0151140D01*
X0067913Y0150435D01*
X0068183Y0149784D01*
X0068681Y0149285D01*
X0069333Y0149016D01*
X0070037Y0149016D01*
X0070688Y0149285D01*
X0071187Y0149784D01*
X0071457Y0150435D01*
X0071457Y0151140D01*
X0071187Y0151791D01*
X0070688Y0152289D01*
X0070037Y0152559D01*
D02*
G37*
G36*
X0147203Y0151771D02*
X0146498Y0151771D01*
X0145847Y0151502D01*
X0145348Y0151003D01*
X0145079Y0150352D01*
X0145079Y0149647D01*
X0145348Y0148996D01*
X0145847Y0148498D01*
X0146498Y0148228D01*
X0147203Y0148228D01*
X0147854Y0148498D01*
X0148352Y0148996D01*
X0148622Y0149647D01*
X0148622Y0150352D01*
X0148352Y0151003D01*
X0147854Y0151502D01*
X0147203Y0151771D01*
D02*
G37*
G36*
X0094447Y0151771D02*
X0093742Y0151771D01*
X0093091Y0151502D01*
X0092592Y0151003D01*
X0092323Y0150352D01*
X0092323Y0149647D01*
X0092592Y0148996D01*
X0093091Y0148498D01*
X0093742Y0148228D01*
X0094447Y0148228D01*
X0095098Y0148498D01*
X0095596Y0148996D01*
X0095866Y0149647D01*
X0095866Y0150352D01*
X0095596Y0151003D01*
X0095098Y0151502D01*
X0094447Y0151771D01*
D02*
G37*
G36*
X0178512Y0151378D02*
X0177807Y0151378D01*
X0177156Y0151108D01*
X0176657Y0150610D01*
X0176388Y0149959D01*
X0176388Y0149254D01*
X0176657Y0148603D01*
X0177046Y0148214D01*
X0176998Y0147809D01*
X0176783Y0147408D01*
X0176359Y0147379D01*
X0175884Y0147967D01*
X0175806Y0148156D01*
X0175308Y0148654D01*
X0174656Y0148924D01*
X0173952Y0148924D01*
X0173301Y0148654D01*
X0172802Y0148156D01*
X0172532Y0147505D01*
X0172532Y0146800D01*
X0172802Y0146149D01*
X0173301Y0145650D01*
X0173952Y0145381D01*
X0174656Y0145381D01*
X0175172Y0144742D01*
X0175251Y0144553D01*
X0175749Y0144055D01*
X0175689Y0143227D01*
X0175587Y0143185D01*
X0175089Y0142686D01*
X0174819Y0142035D01*
X0174819Y0141330D01*
X0175089Y0140679D01*
X0175587Y0140181D01*
X0176238Y0139911D01*
X0176943Y0139911D01*
X0177594Y0140181D01*
X0178092Y0140679D01*
X0178362Y0141330D01*
X0178362Y0142035D01*
X0178092Y0142686D01*
X0177594Y0143185D01*
X0177654Y0144012D01*
X0177756Y0144055D01*
X0178254Y0144553D01*
X0178524Y0145204D01*
X0178524Y0145909D01*
X0178254Y0146560D01*
X0177785Y0147029D01*
X0177757Y0147058D01*
X0177756Y0147058D01*
X0177716Y0147085D01*
X0177841Y0147834D01*
X0178030Y0147834D01*
X0178512Y0147834D01*
X0179163Y0148104D01*
X0179661Y0148603D01*
X0179931Y0149254D01*
X0179931Y0149959D01*
X0179661Y0150610D01*
X0179163Y0151108D01*
X0178512Y0151378D01*
D02*
G37*
G36*
X0084833Y0147095D02*
X0084129Y0147095D01*
X0083477Y0146825D01*
X0082979Y0146327D01*
X0082709Y0145676D01*
X0082709Y0144971D01*
X0082979Y0144320D01*
X0083477Y0143822D01*
X0084129Y0143552D01*
X0084833Y0143552D01*
X0085485Y0143822D01*
X0085983Y0144320D01*
X0086253Y0144971D01*
X0086253Y0145676D01*
X0085983Y0146327D01*
X0085485Y0146825D01*
X0084833Y0147095D01*
D02*
G37*
G36*
X0121924Y0145906D02*
X0121219Y0145906D01*
X0120568Y0145637D01*
X0120070Y0145138D01*
X0119800Y0144487D01*
X0119800Y0143782D01*
X0120070Y0143131D01*
X0120568Y0142633D01*
X0121219Y0142363D01*
X0121924Y0142363D01*
X0122576Y0142633D01*
X0123074Y0143131D01*
X0123344Y0143782D01*
X0123344Y0144487D01*
X0123074Y0145138D01*
X0122576Y0145637D01*
X0121924Y0145906D01*
D02*
G37*
G36*
X0124565Y0149508D02*
X0123860Y0149508D01*
X0123209Y0149238D01*
X0122711Y0148740D01*
X0122441Y0148089D01*
X0122441Y0147384D01*
X0122711Y0146733D01*
X0123209Y0146234D01*
X0123860Y0145964D01*
X0124565Y0145964D01*
X0124725Y0146031D01*
X0125170Y0145363D01*
X0124905Y0145098D01*
X0124636Y0144447D01*
X0124636Y0143742D01*
X0124905Y0143091D01*
X0125404Y0142593D01*
X0126055Y0142323D01*
X0126760Y0142323D01*
X0127411Y0142593D01*
X0127909Y0143091D01*
X0128179Y0143742D01*
X0128179Y0144447D01*
X0127909Y0145098D01*
X0127411Y0145596D01*
X0126760Y0145866D01*
X0126055Y0145866D01*
X0125895Y0145800D01*
X0125449Y0146468D01*
X0125714Y0146733D01*
X0125984Y0147384D01*
X0125984Y0148089D01*
X0125714Y0148740D01*
X0125216Y0149238D01*
X0124565Y0149508D01*
D02*
G37*
G36*
X0092085Y0145866D02*
X0091380Y0145866D01*
X0090729Y0145596D01*
X0090230Y0145098D01*
X0089961Y0144447D01*
X0089961Y0143742D01*
X0090230Y0143091D01*
X0090729Y0142593D01*
X0091380Y0142323D01*
X0092085Y0142323D01*
X0092736Y0142593D01*
X0093234Y0143091D01*
X0093504Y0143742D01*
X0093504Y0144447D01*
X0093234Y0145098D01*
X0092736Y0145596D01*
X0092085Y0145866D01*
D02*
G37*
G36*
X0167967Y0148479D02*
X0167262Y0148479D01*
X0166611Y0148209D01*
X0166113Y0147711D01*
X0165843Y0147060D01*
X0165843Y0146355D01*
X0166113Y0145704D01*
X0166611Y0145206D01*
X0166647Y0145005D01*
X0166644Y0144340D01*
X0166251Y0143946D01*
X0165981Y0143295D01*
X0165981Y0142590D01*
X0166251Y0141939D01*
X0166749Y0141441D01*
X0167400Y0141171D01*
X0168105Y0141171D01*
X0168756Y0141441D01*
X0169254Y0141939D01*
X0169524Y0142590D01*
X0169524Y0143295D01*
X0169254Y0143946D01*
X0168756Y0144444D01*
X0168720Y0144645D01*
X0168723Y0145310D01*
X0169117Y0145704D01*
X0169386Y0146355D01*
X0169386Y0147060D01*
X0169117Y0147711D01*
X0168618Y0148209D01*
X0167967Y0148479D01*
D02*
G37*
G36*
X0157439Y0143898D02*
X0156734Y0143898D01*
X0156083Y0143628D01*
X0155585Y0143129D01*
X0155315Y0142478D01*
X0155315Y0141773D01*
X0155585Y0141122D01*
X0156083Y0140624D01*
X0156734Y0140354D01*
X0157439Y0140354D01*
X0158090Y0140624D01*
X0158588Y0141122D01*
X0158858Y0141773D01*
X0158858Y0142478D01*
X0158588Y0143129D01*
X0158090Y0143628D01*
X0157439Y0143898D01*
D02*
G37*
G36*
X0135683Y0142936D02*
X0134978Y0142936D01*
X0134327Y0142666D01*
X0133828Y0142168D01*
X0133559Y0141517D01*
X0133559Y0140812D01*
X0133828Y0140161D01*
X0134327Y0139662D01*
X0134978Y0139393D01*
X0135683Y0139393D01*
X0136334Y0139662D01*
X0136832Y0140161D01*
X0137102Y0140812D01*
X0137102Y0141517D01*
X0136832Y0142168D01*
X0136334Y0142666D01*
X0135683Y0142936D01*
D02*
G37*
G36*
X0104683Y0146260D02*
X0103978Y0146260D01*
X0103327Y0145990D01*
X0102829Y0145492D01*
X0102559Y0144841D01*
X0102559Y0144136D01*
X0102780Y0143602D01*
X0102594Y0143130D01*
X0102385Y0142815D01*
X0102108Y0142815D01*
X0101457Y0142545D01*
X0100959Y0142047D01*
X0100689Y0141396D01*
X0100689Y0140691D01*
X0100959Y0140040D01*
X0101457Y0139541D01*
X0102108Y0139271D01*
X0102813Y0139271D01*
X0103464Y0139541D01*
X0103962Y0140040D01*
X0104232Y0140691D01*
X0104232Y0141396D01*
X0104011Y0141929D01*
X0104197Y0142401D01*
X0104406Y0142717D01*
X0104683Y0142717D01*
X0105334Y0142986D01*
X0105832Y0143485D01*
X0106102Y0144136D01*
X0106102Y0144841D01*
X0105832Y0145492D01*
X0105334Y0145990D01*
X0104683Y0146260D01*
D02*
G37*
G36*
X0117675Y0138779D02*
X0116970Y0138779D01*
X0116319Y0138510D01*
X0116075Y0138266D01*
X0115732Y0138039D01*
X0115066Y0138246D01*
X0114957Y0138355D01*
X0114306Y0138625D01*
X0113601Y0138625D01*
X0112950Y0138355D01*
X0112451Y0137857D01*
X0112249Y0137368D01*
X0111657Y0137264D01*
X0111429Y0137290D01*
X0111375Y0137421D01*
X0110876Y0137919D01*
X0110225Y0138189D01*
X0109520Y0138189D01*
X0108869Y0137919D01*
X0108371Y0137421D01*
X0108101Y0136770D01*
X0108101Y0136065D01*
X0108371Y0135414D01*
X0108869Y0134915D01*
X0109520Y0134645D01*
X0110225Y0134645D01*
X0110876Y0134915D01*
X0111375Y0135414D01*
X0111577Y0135903D01*
X0112169Y0136006D01*
X0112397Y0135981D01*
X0112451Y0135850D01*
X0112950Y0135352D01*
X0112846Y0134542D01*
X0112794Y0134418D01*
X0112794Y0133713D01*
X0113064Y0133062D01*
X0113562Y0132564D01*
X0114213Y0132294D01*
X0114918Y0132294D01*
X0115569Y0132564D01*
X0116068Y0133062D01*
X0116337Y0133713D01*
X0116337Y0134418D01*
X0116223Y0134693D01*
X0116826Y0135296D01*
X0116970Y0135236D01*
X0117675Y0135236D01*
X0118326Y0135506D01*
X0118825Y0136004D01*
X0119094Y0136655D01*
X0119094Y0137360D01*
X0118825Y0138011D01*
X0118326Y0138510D01*
X0117675Y0138779D01*
D02*
G37*
G36*
X0070037Y0147047D02*
X0069333Y0147047D01*
X0068681Y0146777D01*
X0068183Y0146279D01*
X0067913Y0145628D01*
X0067913Y0144923D01*
X0068183Y0144272D01*
X0068607Y0143848D01*
X0068183Y0143425D01*
X0067913Y0142774D01*
X0067913Y0142069D01*
X0068183Y0141418D01*
X0068534Y0141067D01*
X0068514Y0140423D01*
X0068429Y0140171D01*
X0068219Y0140084D01*
X0067721Y0139586D01*
X0067451Y0138935D01*
X0067451Y0138230D01*
X0067721Y0137579D01*
X0068219Y0137081D01*
X0068870Y0136811D01*
X0069575Y0136811D01*
X0070226Y0137081D01*
X0070725Y0137579D01*
X0070994Y0138230D01*
X0070994Y0138935D01*
X0070725Y0139586D01*
X0070374Y0139937D01*
X0070394Y0140580D01*
X0070479Y0140832D01*
X0070688Y0140919D01*
X0071187Y0141418D01*
X0071457Y0142069D01*
X0071457Y0142774D01*
X0071187Y0143425D01*
X0070763Y0143848D01*
X0071187Y0144272D01*
X0071457Y0144923D01*
X0071457Y0145628D01*
X0071187Y0146279D01*
X0070688Y0146777D01*
X0070037Y0147047D01*
D02*
G37*
G36*
X0161376Y0136811D02*
X0160671Y0136811D01*
X0160020Y0136541D01*
X0159909Y0136431D01*
X0159503Y0136054D01*
X0158880Y0136431D01*
X0158877Y0136434D01*
X0158226Y0136704D01*
X0157521Y0136704D01*
X0156870Y0136434D01*
X0156372Y0135935D01*
X0156102Y0135284D01*
X0156102Y0134579D01*
X0156372Y0133928D01*
X0156870Y0133430D01*
X0157521Y0133160D01*
X0158226Y0133160D01*
X0158877Y0133430D01*
X0158988Y0133540D01*
X0159394Y0133917D01*
X0160017Y0133540D01*
X0160020Y0133537D01*
X0160671Y0133268D01*
X0161376Y0133268D01*
X0162027Y0133537D01*
X0162525Y0134036D01*
X0162795Y0134687D01*
X0162795Y0135392D01*
X0162525Y0136043D01*
X0162027Y0136541D01*
X0161376Y0136811D01*
D02*
G37*
G36*
X0124171Y0139026D02*
X0123466Y0139026D01*
X0122815Y0138756D01*
X0122317Y0138258D01*
X0122047Y0137607D01*
X0122047Y0136902D01*
X0122317Y0136251D01*
X0122690Y0135877D01*
X0122218Y0135405D01*
X0121949Y0134754D01*
X0121949Y0134049D01*
X0122218Y0133398D01*
X0122717Y0132899D01*
X0123368Y0132630D01*
X0124073Y0132630D01*
X0124724Y0132899D01*
X0125222Y0133398D01*
X0125492Y0134049D01*
X0125492Y0134754D01*
X0125222Y0135405D01*
X0124849Y0135778D01*
X0125321Y0136251D01*
X0125454Y0136571D01*
X0126302Y0136561D01*
X0126451Y0136201D01*
X0126949Y0135703D01*
X0127600Y0135433D01*
X0128305Y0135433D01*
X0128956Y0135703D01*
X0129454Y0136201D01*
X0129724Y0136852D01*
X0129724Y0137557D01*
X0129454Y0138208D01*
X0128956Y0138706D01*
X0128305Y0138976D01*
X0127600Y0138976D01*
X0126949Y0138706D01*
X0126451Y0138208D01*
X0126318Y0137888D01*
X0125470Y0137898D01*
X0125321Y0138258D01*
X0124822Y0138756D01*
X0124171Y0139026D01*
D02*
G37*
G36*
X0170236Y0139289D02*
X0169531Y0139289D01*
X0168880Y0139019D01*
X0168382Y0138520D01*
X0168112Y0137869D01*
X0168112Y0137165D01*
X0168382Y0136513D01*
X0168880Y0136015D01*
X0169531Y0135745D01*
X0170126Y0135745D01*
X0170465Y0135425D01*
X0170706Y0135088D01*
X0170669Y0134998D01*
X0170669Y0134293D01*
X0170939Y0133642D01*
X0171437Y0133144D01*
X0172088Y0132874D01*
X0172793Y0132874D01*
X0172867Y0132904D01*
X0173193Y0132687D01*
X0173462Y0132036D01*
X0173961Y0131537D01*
X0174612Y0131268D01*
X0175317Y0131268D01*
X0175577Y0131375D01*
X0176023Y0130708D01*
X0175747Y0130432D01*
X0175384Y0129804D01*
X0175197Y0129103D01*
X0175197Y0128377D01*
X0175384Y0127676D01*
X0175747Y0127048D01*
X0176260Y0126535D01*
X0176889Y0126172D01*
X0177590Y0125984D01*
X0178315Y0125984D01*
X0179016Y0126172D01*
X0179645Y0126535D01*
X0180158Y0127048D01*
X0180521Y0127676D01*
X0180709Y0128377D01*
X0180709Y0129103D01*
X0180521Y0129804D01*
X0180158Y0130432D01*
X0179645Y0130945D01*
X0179016Y0131308D01*
X0178315Y0131496D01*
X0177590Y0131496D01*
X0176889Y0131308D01*
X0176802Y0131258D01*
X0176319Y0131888D01*
X0176466Y0132036D01*
X0176736Y0132687D01*
X0176736Y0133392D01*
X0176466Y0134043D01*
X0175968Y0134541D01*
X0175317Y0134811D01*
X0174896Y0134811D01*
X0174461Y0135207D01*
X0174424Y0136091D01*
X0174634Y0136302D01*
X0175159Y0136308D01*
X0175514Y0136234D01*
X0175619Y0135982D01*
X0176117Y0135484D01*
X0176768Y0135214D01*
X0177473Y0135214D01*
X0178124Y0135484D01*
X0178622Y0135982D01*
X0178892Y0136633D01*
X0178892Y0137338D01*
X0178622Y0137989D01*
X0178124Y0138487D01*
X0177473Y0138757D01*
X0176768Y0138757D01*
X0176117Y0138487D01*
X0175715Y0138085D01*
X0175189Y0138079D01*
X0174834Y0138153D01*
X0174730Y0138405D01*
X0174232Y0138903D01*
X0173581Y0139173D01*
X0172876Y0139173D01*
X0172225Y0138903D01*
X0172122Y0138801D01*
X0171486Y0138559D01*
X0171099Y0138807D01*
X0170887Y0139019D01*
X0170236Y0139289D01*
D02*
G37*
G36*
X0183423Y0137992D02*
X0182718Y0137992D01*
X0182067Y0137722D01*
X0181569Y0137224D01*
X0181299Y0136573D01*
X0181299Y0135868D01*
X0181569Y0135217D01*
X0182067Y0134719D01*
X0182718Y0134449D01*
X0183423Y0134449D01*
X0184074Y0134719D01*
X0184573Y0135217D01*
X0184842Y0135868D01*
X0184842Y0136573D01*
X0184573Y0137224D01*
X0184074Y0137722D01*
X0183423Y0137992D01*
D02*
G37*
G36*
X0099959Y0133661D02*
X0099254Y0133661D01*
X0098603Y0133392D01*
X0098104Y0132893D01*
X0097835Y0132242D01*
X0097835Y0131537D01*
X0098104Y0130886D01*
X0098603Y0130388D01*
X0099254Y0130118D01*
X0099959Y0130118D01*
X0100610Y0130388D01*
X0101108Y0130886D01*
X0101378Y0131537D01*
X0101378Y0132242D01*
X0101108Y0132893D01*
X0100610Y0133392D01*
X0099959Y0133661D01*
D02*
G37*
G36*
X0093241Y0136066D02*
X0092536Y0136066D01*
X0091885Y0135796D01*
X0091387Y0135298D01*
X0091117Y0134646D01*
X0091117Y0133942D01*
X0091387Y0133290D01*
X0091885Y0132792D01*
X0091970Y0132757D01*
X0092544Y0132084D01*
X0092544Y0131379D01*
X0092814Y0130728D01*
X0093312Y0130230D01*
X0093963Y0129960D01*
X0094668Y0129960D01*
X0095319Y0130230D01*
X0095817Y0130728D01*
X0096087Y0131379D01*
X0096087Y0132084D01*
X0095817Y0132735D01*
X0095319Y0133234D01*
X0095234Y0133269D01*
X0094660Y0133942D01*
X0094660Y0134646D01*
X0094390Y0135298D01*
X0093892Y0135796D01*
X0093241Y0136066D01*
D02*
G37*
G36*
X0057519Y0133366D02*
X0056814Y0133366D01*
X0056163Y0133096D01*
X0055665Y0132598D01*
X0055395Y0131947D01*
X0055395Y0131242D01*
X0055665Y0130591D01*
X0056163Y0130092D01*
X0056814Y0129823D01*
X0057519Y0129823D01*
X0058170Y0130092D01*
X0058669Y0130591D01*
X0058938Y0131242D01*
X0058938Y0131947D01*
X0058669Y0132598D01*
X0058170Y0133096D01*
X0057519Y0133366D01*
D02*
G37*
G36*
X0069250Y0132167D02*
X0068545Y0132167D01*
X0067894Y0131898D01*
X0067395Y0131399D01*
X0067126Y0130748D01*
X0067126Y0130043D01*
X0067395Y0129392D01*
X0067894Y0128894D01*
X0068545Y0128624D01*
X0069250Y0128624D01*
X0069901Y0128894D01*
X0070399Y0129392D01*
X0070669Y0130043D01*
X0070669Y0130748D01*
X0070399Y0131399D01*
X0069901Y0131898D01*
X0069250Y0132167D01*
D02*
G37*
G36*
X0064329Y0131299D02*
X0063624Y0131299D01*
X0062973Y0131029D01*
X0062474Y0130531D01*
X0062205Y0129880D01*
X0062205Y0129175D01*
X0062474Y0128524D01*
X0062973Y0128026D01*
X0063624Y0127756D01*
X0064329Y0127756D01*
X0064980Y0128026D01*
X0065478Y0128524D01*
X0065748Y0129175D01*
X0065748Y0129880D01*
X0065478Y0130531D01*
X0064980Y0131029D01*
X0064329Y0131299D01*
D02*
G37*
G36*
X0074368Y0130315D02*
X0073663Y0130315D01*
X0073012Y0130045D01*
X0072514Y0129547D01*
X0072244Y0128896D01*
X0072244Y0128191D01*
X0072514Y0127540D01*
X0073012Y0127041D01*
X0073663Y0126771D01*
X0074368Y0126771D01*
X0075019Y0127041D01*
X0075517Y0127540D01*
X0075787Y0128191D01*
X0075787Y0128896D01*
X0075517Y0129547D01*
X0075019Y0130045D01*
X0074368Y0130315D01*
D02*
G37*
G36*
X0164132Y0128543D02*
X0163427Y0128543D01*
X0162776Y0128273D01*
X0162277Y0127775D01*
X0162008Y0127124D01*
X0161506Y0126739D01*
X0161386Y0126771D01*
X0160661Y0126771D01*
X0159960Y0126584D01*
X0159862Y0126527D01*
X0158982Y0126594D01*
X0158484Y0127092D01*
X0157833Y0127362D01*
X0157128Y0127362D01*
X0156701Y0127185D01*
X0156477Y0127092D01*
X0155833Y0127381D01*
X0155334Y0127880D01*
X0154683Y0128150D01*
X0153978Y0128150D01*
X0153327Y0127880D01*
X0152829Y0127381D01*
X0152559Y0126730D01*
X0152559Y0126025D01*
X0152614Y0125893D01*
X0151918Y0125550D01*
X0151866Y0125614D01*
X0151811Y0125708D01*
X0151298Y0126221D01*
X0150670Y0126584D01*
X0149969Y0126772D01*
X0149243Y0126772D01*
X0148542Y0126584D01*
X0147914Y0126221D01*
X0147401Y0125708D01*
X0147038Y0125079D01*
X0146850Y0124379D01*
X0146850Y0123653D01*
X0147038Y0122952D01*
X0147401Y0122324D01*
X0147914Y0121810D01*
X0148542Y0121448D01*
X0149243Y0121260D01*
X0149969Y0121260D01*
X0150670Y0121448D01*
X0151298Y0121810D01*
X0151811Y0122324D01*
X0152174Y0122952D01*
X0152362Y0123653D01*
X0152362Y0124379D01*
X0152239Y0124836D01*
X0152203Y0124971D01*
X0152328Y0125051D01*
X0152940Y0125263D01*
X0152988Y0125215D01*
X0153327Y0124876D01*
X0153978Y0124606D01*
X0154683Y0124606D01*
X0155110Y0124783D01*
X0155334Y0124876D01*
X0155978Y0124587D01*
X0156477Y0124089D01*
X0157128Y0123819D01*
X0157833Y0123819D01*
X0158390Y0123197D01*
X0158455Y0122952D01*
X0158818Y0122324D01*
X0159331Y0121810D01*
X0159960Y0121447D01*
X0160661Y0121260D01*
X0161386Y0121260D01*
X0162087Y0121447D01*
X0162716Y0121810D01*
X0163229Y0122324D01*
X0163592Y0122952D01*
X0163779Y0123653D01*
X0163779Y0124226D01*
X0163983Y0124360D01*
X0164738Y0124322D01*
X0165236Y0123823D01*
X0165888Y0123553D01*
X0166592Y0123553D01*
X0167244Y0123823D01*
X0167742Y0124322D01*
X0168012Y0124973D01*
X0168012Y0125677D01*
X0167742Y0126329D01*
X0167244Y0126827D01*
X0166592Y0127097D01*
X0165888Y0127097D01*
X0165309Y0127709D01*
X0165281Y0127775D01*
X0164783Y0128273D01*
X0164132Y0128543D01*
D02*
G37*
G36*
X0050662Y0128923D02*
X0049957Y0128923D01*
X0049306Y0128654D01*
X0048808Y0128155D01*
X0048538Y0127504D01*
X0048538Y0126799D01*
X0048808Y0126148D01*
X0049306Y0125650D01*
X0049957Y0125380D01*
X0050662Y0125380D01*
X0051313Y0125650D01*
X0051812Y0126148D01*
X0052082Y0126799D01*
X0052082Y0127504D01*
X0051812Y0128155D01*
X0051313Y0128654D01*
X0050662Y0128923D01*
D02*
G37*
G36*
X0085924Y0130217D02*
X0085219Y0130217D01*
X0084568Y0129947D01*
X0084069Y0129448D01*
X0083800Y0128797D01*
X0083800Y0128092D01*
X0084069Y0127441D01*
X0084568Y0126943D01*
X0085219Y0126673D01*
X0085924Y0126673D01*
X0086575Y0126943D01*
X0086811Y0127179D01*
X0087598Y0126853D01*
X0087598Y0126813D01*
X0087868Y0126162D01*
X0088366Y0125663D01*
X0089017Y0125394D01*
X0089722Y0125394D01*
X0089851Y0125447D01*
X0090517Y0124871D01*
X0090509Y0124836D01*
X0089707Y0124450D01*
X0089329Y0124606D01*
X0088624Y0124606D01*
X0087973Y0124336D01*
X0087474Y0123838D01*
X0087205Y0123187D01*
X0087205Y0122482D01*
X0087474Y0121831D01*
X0087973Y0121333D01*
X0088624Y0121063D01*
X0089329Y0121063D01*
X0089980Y0121333D01*
X0090478Y0121831D01*
X0090748Y0122482D01*
X0091516Y0122809D01*
X0092167Y0122539D01*
X0092872Y0122539D01*
X0093523Y0122809D01*
X0093565Y0122851D01*
X0094092Y0122817D01*
X0094473Y0122632D01*
X0094511Y0122520D01*
X0094516Y0122279D01*
X0094289Y0121731D01*
X0094289Y0121026D01*
X0094558Y0120375D01*
X0095057Y0119877D01*
X0095226Y0118955D01*
X0095092Y0118631D01*
X0095092Y0117927D01*
X0095362Y0117275D01*
X0095860Y0116777D01*
X0096511Y0116507D01*
X0097216Y0116507D01*
X0097867Y0116777D01*
X0098365Y0117275D01*
X0098635Y0117927D01*
X0098635Y0118631D01*
X0098365Y0119283D01*
X0097867Y0119781D01*
X0097698Y0120703D01*
X0097832Y0121026D01*
X0097832Y0121731D01*
X0097763Y0121898D01*
X0097592Y0122414D01*
X0098097Y0122961D01*
X0098149Y0122992D01*
X0098662Y0123505D01*
X0099025Y0124133D01*
X0099212Y0124834D01*
X0099212Y0125560D01*
X0099025Y0126261D01*
X0098662Y0126889D01*
X0098149Y0127402D01*
X0097520Y0127765D01*
X0096819Y0127953D01*
X0096094Y0127953D01*
X0095393Y0127765D01*
X0094764Y0127402D01*
X0094251Y0126889D01*
X0093976Y0126412D01*
X0093854Y0126251D01*
X0093010Y0126025D01*
X0092872Y0126082D01*
X0092167Y0126082D01*
X0091577Y0125838D01*
X0091376Y0125952D01*
X0090957Y0126368D01*
X0091142Y0126813D01*
X0091142Y0127518D01*
X0090872Y0128169D01*
X0090373Y0128667D01*
X0089722Y0128937D01*
X0089017Y0128937D01*
X0088366Y0128667D01*
X0088130Y0128431D01*
X0087343Y0128757D01*
X0087343Y0128797D01*
X0087073Y0129448D01*
X0086575Y0129947D01*
X0085924Y0130217D01*
D02*
G37*
G36*
X0061106Y0127846D02*
X0060401Y0127846D01*
X0059750Y0127576D01*
X0059252Y0127078D01*
X0058982Y0126427D01*
X0058982Y0125722D01*
X0059252Y0125071D01*
X0059750Y0124572D01*
X0060401Y0124303D01*
X0061106Y0124303D01*
X0061757Y0124572D01*
X0062256Y0125071D01*
X0062526Y0125722D01*
X0062526Y0126427D01*
X0062256Y0127078D01*
X0061757Y0127576D01*
X0061106Y0127846D01*
D02*
G37*
G36*
X0108620Y0128386D02*
X0107915Y0128386D01*
X0107264Y0128116D01*
X0106766Y0127618D01*
X0106496Y0126967D01*
X0106496Y0126262D01*
X0106766Y0125611D01*
X0107254Y0125122D01*
X0106896Y0124763D01*
X0106626Y0124112D01*
X0106626Y0123407D01*
X0106896Y0122756D01*
X0107394Y0122258D01*
X0108046Y0121988D01*
X0108750Y0121988D01*
X0109401Y0122258D01*
X0109900Y0122756D01*
X0109994Y0122983D01*
X0110759Y0122954D01*
X0110827Y0122936D01*
X0111180Y0122324D01*
X0111694Y0121810D01*
X0112322Y0121447D01*
X0113023Y0121260D01*
X0113749Y0121260D01*
X0114449Y0121447D01*
X0114865Y0121687D01*
X0115558Y0121570D01*
X0115820Y0121439D01*
X0115821Y0121437D01*
X0116319Y0120939D01*
X0116970Y0120669D01*
X0117675Y0120669D01*
X0118326Y0120939D01*
X0118825Y0121437D01*
X0119094Y0122088D01*
X0119094Y0122793D01*
X0118825Y0123444D01*
X0118748Y0123521D01*
X0119194Y0124188D01*
X0119356Y0124121D01*
X0120061Y0124121D01*
X0120712Y0124391D01*
X0121211Y0124889D01*
X0121480Y0125540D01*
X0121480Y0126245D01*
X0121211Y0126896D01*
X0120712Y0127395D01*
X0120061Y0127664D01*
X0119356Y0127664D01*
X0118705Y0127395D01*
X0118207Y0126896D01*
X0117937Y0126245D01*
X0117937Y0125540D01*
X0118207Y0124889D01*
X0118283Y0124813D01*
X0117837Y0124145D01*
X0117675Y0124213D01*
X0116970Y0124213D01*
X0116929Y0124195D01*
X0116725Y0124243D01*
X0116059Y0124687D01*
X0115954Y0125079D01*
X0115591Y0125708D01*
X0115078Y0126221D01*
X0114449Y0126584D01*
X0113749Y0126771D01*
X0113023Y0126771D01*
X0112322Y0126584D01*
X0111694Y0126221D01*
X0111180Y0125708D01*
X0110818Y0125079D01*
X0110751Y0124832D01*
X0110012Y0124749D01*
X0109509Y0125350D01*
X0109769Y0125611D01*
X0110039Y0126262D01*
X0110039Y0126967D01*
X0109769Y0127618D01*
X0109271Y0128116D01*
X0108620Y0128386D01*
D02*
G37*
G36*
X0184211Y0126181D02*
X0183506Y0126181D01*
X0182855Y0125911D01*
X0182356Y0125413D01*
X0182087Y0124762D01*
X0182087Y0124057D01*
X0182356Y0123406D01*
X0182855Y0122907D01*
X0183506Y0122638D01*
X0184211Y0122638D01*
X0184752Y0122862D01*
X0185492Y0123132D01*
X0185991Y0122634D01*
X0186642Y0122364D01*
X0187347Y0122364D01*
X0187998Y0122634D01*
X0188496Y0123132D01*
X0188766Y0123783D01*
X0188766Y0124488D01*
X0188496Y0125139D01*
X0187998Y0125638D01*
X0187347Y0125907D01*
X0186642Y0125907D01*
X0186100Y0125683D01*
X0185360Y0125413D01*
X0184862Y0125911D01*
X0184211Y0126181D01*
D02*
G37*
G36*
X0053108Y0123425D02*
X0052403Y0123425D01*
X0051752Y0123155D01*
X0051254Y0122657D01*
X0051127Y0122351D01*
X0050804Y0121993D01*
X0050197Y0121948D01*
X0049958Y0122047D01*
X0049254Y0122047D01*
X0048603Y0121777D01*
X0048104Y0121279D01*
X0047834Y0120628D01*
X0047834Y0119923D01*
X0048104Y0119272D01*
X0048603Y0118774D01*
X0049254Y0118504D01*
X0049958Y0118504D01*
X0050610Y0118774D01*
X0051108Y0119272D01*
X0051235Y0119578D01*
X0051558Y0119936D01*
X0052115Y0119977D01*
X0052756Y0119463D01*
X0052756Y0118918D01*
X0053025Y0118266D01*
X0053524Y0117768D01*
X0054175Y0117498D01*
X0054880Y0117498D01*
X0055531Y0117768D01*
X0056029Y0118266D01*
X0056299Y0118918D01*
X0056299Y0119622D01*
X0056029Y0120274D01*
X0055531Y0120772D01*
X0054880Y0121042D01*
X0054701Y0121042D01*
X0054527Y0121301D01*
X0054527Y0122006D01*
X0054258Y0122657D01*
X0053759Y0123155D01*
X0053108Y0123425D01*
D02*
G37*
G36*
X0127124Y0128543D02*
X0126419Y0128543D01*
X0125768Y0128273D01*
X0125270Y0127775D01*
X0125000Y0127124D01*
X0125000Y0126419D01*
X0125270Y0125768D01*
X0125316Y0125722D01*
X0125131Y0124793D01*
X0124981Y0124730D01*
X0124482Y0124232D01*
X0124213Y0123581D01*
X0124213Y0122876D01*
X0124482Y0122225D01*
X0124981Y0121726D01*
X0125632Y0121457D01*
X0126337Y0121457D01*
X0126988Y0121726D01*
X0127486Y0122225D01*
X0127650Y0122620D01*
X0128460Y0122748D01*
X0128488Y0122743D01*
X0128503Y0122717D01*
X0129016Y0122204D01*
X0129645Y0121841D01*
X0130346Y0121653D01*
X0131071Y0121653D01*
X0131772Y0121841D01*
X0132401Y0122204D01*
X0132465Y0122268D01*
X0133082Y0122586D01*
X0133507Y0122255D01*
X0133642Y0122120D01*
X0134293Y0121850D01*
X0134998Y0121850D01*
X0135649Y0122120D01*
X0136147Y0122618D01*
X0136417Y0123270D01*
X0136417Y0123974D01*
X0136403Y0124010D01*
X0136436Y0124876D01*
X0136935Y0125374D01*
X0137205Y0126025D01*
X0137205Y0126730D01*
X0136935Y0127381D01*
X0136436Y0127880D01*
X0135785Y0128150D01*
X0135080Y0128150D01*
X0134429Y0127880D01*
X0133931Y0127381D01*
X0133661Y0126730D01*
X0133661Y0126382D01*
X0133055Y0126154D01*
X0132874Y0126141D01*
X0132401Y0126615D01*
X0131772Y0126977D01*
X0131071Y0127165D01*
X0130346Y0127165D01*
X0129645Y0126977D01*
X0129330Y0126796D01*
X0128617Y0127093D01*
X0128564Y0127137D01*
X0128514Y0127194D01*
X0128273Y0127775D01*
X0127775Y0128273D01*
X0127124Y0128543D01*
D02*
G37*
G36*
X0081455Y0125394D02*
X0080750Y0125394D01*
X0080099Y0125124D01*
X0079600Y0124625D01*
X0079331Y0123974D01*
X0079331Y0123269D01*
X0079600Y0122618D01*
X0080099Y0122120D01*
X0080750Y0121850D01*
X0081455Y0121850D01*
X0082106Y0122120D01*
X0082604Y0122618D01*
X0082874Y0123269D01*
X0082874Y0123974D01*
X0082604Y0124625D01*
X0082106Y0125124D01*
X0081455Y0125394D01*
D02*
G37*
G36*
X0044699Y0125218D02*
X0043994Y0125218D01*
X0043343Y0124949D01*
X0042845Y0124450D01*
X0042575Y0123799D01*
X0042575Y0123094D01*
X0042845Y0122443D01*
X0043343Y0121945D01*
X0043994Y0121675D01*
X0044699Y0121675D01*
X0045350Y0121945D01*
X0045849Y0122443D01*
X0046118Y0123094D01*
X0046118Y0123799D01*
X0045849Y0124450D01*
X0045350Y0124949D01*
X0044699Y0125218D01*
D02*
G37*
G36*
X0173197Y0126771D02*
X0172472Y0126771D01*
X0171771Y0126584D01*
X0171142Y0126221D01*
X0170629Y0125708D01*
X0170266Y0125079D01*
X0170079Y0124378D01*
X0170079Y0123653D01*
X0170266Y0122952D01*
X0170629Y0122324D01*
X0171142Y0121810D01*
X0171771Y0121447D01*
X0172472Y0121260D01*
X0173197Y0121260D01*
X0173898Y0121447D01*
X0174527Y0121810D01*
X0175040Y0122324D01*
X0175403Y0122952D01*
X0175590Y0123653D01*
X0175590Y0124378D01*
X0175403Y0125079D01*
X0175040Y0125708D01*
X0174527Y0126221D01*
X0173898Y0126584D01*
X0173197Y0126771D01*
D02*
G37*
G36*
X0143426Y0127756D02*
X0142721Y0127756D01*
X0142070Y0127486D01*
X0141571Y0126988D01*
X0141302Y0126337D01*
X0141302Y0126121D01*
X0141299Y0125631D01*
X0140592Y0125394D01*
X0139941Y0125124D01*
X0139443Y0124625D01*
X0139173Y0123974D01*
X0139173Y0123270D01*
X0139443Y0122618D01*
X0139941Y0122120D01*
X0140592Y0121850D01*
X0141297Y0121850D01*
X0141948Y0122120D01*
X0142013Y0122185D01*
X0142800Y0121859D01*
X0142800Y0121579D01*
X0143070Y0120928D01*
X0143568Y0120429D01*
X0144220Y0120160D01*
X0144924Y0120160D01*
X0145575Y0120429D01*
X0146074Y0120928D01*
X0146344Y0121579D01*
X0146344Y0122284D01*
X0146074Y0122935D01*
X0145575Y0123433D01*
X0144924Y0123703D01*
X0144220Y0123703D01*
X0143952Y0124430D01*
X0144077Y0124482D01*
X0144575Y0124981D01*
X0144845Y0125632D01*
X0144845Y0126337D01*
X0144575Y0126988D01*
X0144077Y0127486D01*
X0143426Y0127756D01*
D02*
G37*
G36*
X0067289Y0127299D02*
X0066584Y0127299D01*
X0065933Y0127030D01*
X0065434Y0126531D01*
X0065165Y0125880D01*
X0065165Y0125745D01*
X0065112Y0125164D01*
X0064437Y0125017D01*
X0064394Y0125017D01*
X0063742Y0124748D01*
X0063244Y0124249D01*
X0062974Y0123598D01*
X0062974Y0122893D01*
X0063244Y0122242D01*
X0063742Y0121744D01*
X0064394Y0121474D01*
X0065098Y0121474D01*
X0065750Y0121744D01*
X0066248Y0122242D01*
X0066518Y0122893D01*
X0066518Y0123029D01*
X0066570Y0123610D01*
X0067245Y0123756D01*
X0067289Y0123756D01*
X0067940Y0124026D01*
X0068398Y0124484D01*
X0068600Y0124469D01*
X0069185Y0124270D01*
X0069185Y0123976D01*
X0069455Y0123324D01*
X0069953Y0122826D01*
X0070604Y0122556D01*
X0070617Y0122556D01*
X0070807Y0122272D01*
X0070807Y0121567D01*
X0071077Y0120916D01*
X0071575Y0120418D01*
X0072226Y0120148D01*
X0072931Y0120148D01*
X0073582Y0120418D01*
X0074081Y0120916D01*
X0074350Y0121567D01*
X0074350Y0122272D01*
X0074081Y0122923D01*
X0073582Y0123422D01*
X0072931Y0123691D01*
X0072918Y0123691D01*
X0072728Y0123976D01*
X0072728Y0124680D01*
X0072459Y0125332D01*
X0071960Y0125830D01*
X0071309Y0126100D01*
X0070604Y0126100D01*
X0069953Y0125830D01*
X0069495Y0125372D01*
X0069292Y0125387D01*
X0068708Y0125586D01*
X0068708Y0125880D01*
X0068438Y0126531D01*
X0067940Y0127030D01*
X0067289Y0127299D01*
D02*
G37*
G36*
X0119250Y0119882D02*
X0118545Y0119882D01*
X0117894Y0119612D01*
X0117421Y0119139D01*
X0116948Y0119612D01*
X0116297Y0119882D01*
X0115592Y0119882D01*
X0114941Y0119612D01*
X0114443Y0119114D01*
X0114173Y0118463D01*
X0114173Y0117758D01*
X0114443Y0117107D01*
X0114941Y0116608D01*
X0115592Y0116339D01*
X0116297Y0116339D01*
X0116948Y0116608D01*
X0117421Y0117081D01*
X0117894Y0116608D01*
X0118545Y0116339D01*
X0119250Y0116339D01*
X0119901Y0116608D01*
X0120399Y0117107D01*
X0120669Y0117758D01*
X0120669Y0118463D01*
X0120399Y0119114D01*
X0119901Y0119612D01*
X0119250Y0119882D01*
D02*
G37*
G36*
X0077518Y0121063D02*
X0076813Y0121063D01*
X0076162Y0120793D01*
X0075663Y0120295D01*
X0075394Y0119644D01*
X0075394Y0118939D01*
X0075663Y0118288D01*
X0076162Y0117789D01*
X0076813Y0117520D01*
X0077518Y0117520D01*
X0078169Y0117789D01*
X0078667Y0118288D01*
X0078937Y0118939D01*
X0078937Y0119644D01*
X0078667Y0120295D01*
X0078169Y0120793D01*
X0077518Y0121063D01*
D02*
G37*
G36*
X0082833Y0121063D02*
X0082128Y0121063D01*
X0081477Y0120793D01*
X0080978Y0120295D01*
X0080708Y0119644D01*
X0080708Y0118939D01*
X0080978Y0118288D01*
X0081477Y0117789D01*
X0082128Y0117520D01*
X0082833Y0117520D01*
X0083484Y0117789D01*
X0083982Y0118288D01*
X0084252Y0118939D01*
X0084252Y0119644D01*
X0083982Y0120295D01*
X0083484Y0120793D01*
X0082833Y0121063D01*
D02*
G37*
G36*
X0187428Y0120931D02*
X0186723Y0120931D01*
X0186072Y0120661D01*
X0185573Y0120163D01*
X0185304Y0119512D01*
X0185304Y0118807D01*
X0185573Y0118156D01*
X0186072Y0117657D01*
X0186723Y0117388D01*
X0187428Y0117388D01*
X0188079Y0117657D01*
X0188577Y0118156D01*
X0188847Y0118807D01*
X0188847Y0119512D01*
X0188577Y0120163D01*
X0188079Y0120661D01*
X0187428Y0120931D01*
D02*
G37*
G36*
X0132636Y0117126D02*
X0131931Y0117126D01*
X0131280Y0116856D01*
X0130781Y0116358D01*
X0130007Y0116546D01*
X0129486Y0116762D01*
X0128781Y0116762D01*
X0128130Y0116492D01*
X0128059Y0116420D01*
X0127574Y0116034D01*
X0127030Y0116420D01*
X0126988Y0116462D01*
X0126337Y0116732D01*
X0125632Y0116732D01*
X0124981Y0116462D01*
X0124482Y0115964D01*
X0124213Y0115313D01*
X0124213Y0114608D01*
X0124482Y0113957D01*
X0124981Y0113459D01*
X0125632Y0113189D01*
X0126337Y0113189D01*
X0126988Y0113459D01*
X0127059Y0113530D01*
X0127544Y0113916D01*
X0128088Y0113530D01*
X0128130Y0113488D01*
X0128781Y0113218D01*
X0129486Y0113218D01*
X0130137Y0113488D01*
X0130636Y0113986D01*
X0131410Y0113798D01*
X0131931Y0113583D01*
X0132636Y0113583D01*
X0133287Y0113852D01*
X0133785Y0114351D01*
X0134055Y0115002D01*
X0134055Y0115707D01*
X0133785Y0116358D01*
X0133287Y0116856D01*
X0132636Y0117126D01*
D02*
G37*
G36*
X0161966Y0119882D02*
X0161262Y0119882D01*
X0160610Y0119612D01*
X0160112Y0119114D01*
X0159842Y0118463D01*
X0159842Y0117758D01*
X0160112Y0117107D01*
X0160610Y0116608D01*
X0161262Y0116339D01*
X0161966Y0116339D01*
X0162618Y0116608D01*
X0163116Y0117107D01*
X0163156Y0117204D01*
X0164009Y0117204D01*
X0164049Y0117107D01*
X0164548Y0116608D01*
X0165199Y0116339D01*
X0165903Y0116339D01*
X0166555Y0116608D01*
X0167053Y0117107D01*
X0167323Y0117758D01*
X0167323Y0118463D01*
X0167053Y0119114D01*
X0166555Y0119612D01*
X0165903Y0119882D01*
X0165199Y0119882D01*
X0164548Y0119612D01*
X0164049Y0119114D01*
X0164009Y0119016D01*
X0163156Y0119016D01*
X0163116Y0119114D01*
X0162618Y0119612D01*
X0161966Y0119882D01*
D02*
G37*
G36*
X0110009Y0116884D02*
X0109304Y0116884D01*
X0108653Y0116615D01*
X0108431Y0116393D01*
X0108052Y0116153D01*
X0107412Y0116382D01*
X0107303Y0116492D01*
X0106652Y0116762D01*
X0105947Y0116762D01*
X0105296Y0116492D01*
X0105224Y0116420D01*
X0104740Y0116034D01*
X0104195Y0116420D01*
X0104153Y0116462D01*
X0103502Y0116732D01*
X0102797Y0116732D01*
X0102146Y0116462D01*
X0101648Y0115964D01*
X0101378Y0115313D01*
X0101378Y0114608D01*
X0101648Y0113957D01*
X0102146Y0113459D01*
X0102797Y0113189D01*
X0103502Y0113189D01*
X0104153Y0113459D01*
X0104225Y0113530D01*
X0104709Y0113916D01*
X0105253Y0113530D01*
X0105296Y0113488D01*
X0105947Y0113218D01*
X0106652Y0113218D01*
X0107303Y0113488D01*
X0107525Y0113710D01*
X0107903Y0113950D01*
X0108543Y0113720D01*
X0108653Y0113611D01*
X0109304Y0113341D01*
X0110009Y0113341D01*
X0110660Y0113611D01*
X0111158Y0114109D01*
X0111428Y0114760D01*
X0111428Y0115465D01*
X0111158Y0116116D01*
X0110660Y0116615D01*
X0110009Y0116884D01*
D02*
G37*
G36*
X0175155Y0116762D02*
X0174451Y0116762D01*
X0173799Y0116492D01*
X0173728Y0116420D01*
X0173243Y0116034D01*
X0172699Y0116420D01*
X0172657Y0116462D01*
X0172006Y0116732D01*
X0171301Y0116732D01*
X0170650Y0116462D01*
X0170151Y0115964D01*
X0169882Y0115313D01*
X0169882Y0114608D01*
X0170151Y0113957D01*
X0170650Y0113459D01*
X0171301Y0113189D01*
X0172006Y0113189D01*
X0172657Y0113459D01*
X0172729Y0113530D01*
X0173213Y0113916D01*
X0173757Y0113530D01*
X0173799Y0113488D01*
X0174451Y0113218D01*
X0175155Y0113218D01*
X0175807Y0113488D01*
X0175849Y0113530D01*
X0176393Y0113916D01*
X0176877Y0113530D01*
X0176949Y0113459D01*
X0177600Y0113189D01*
X0178305Y0113189D01*
X0178512Y0113275D01*
X0179310Y0113404D01*
X0179808Y0112906D01*
X0180460Y0112636D01*
X0181165Y0112636D01*
X0181816Y0112906D01*
X0182314Y0113404D01*
X0182584Y0114056D01*
X0182584Y0114760D01*
X0182314Y0115412D01*
X0181816Y0115910D01*
X0181165Y0116180D01*
X0180460Y0116180D01*
X0180253Y0116094D01*
X0179455Y0115964D01*
X0178956Y0116462D01*
X0178305Y0116732D01*
X0177600Y0116732D01*
X0176949Y0116462D01*
X0176907Y0116420D01*
X0176363Y0116034D01*
X0175878Y0116420D01*
X0175807Y0116492D01*
X0175155Y0116762D01*
D02*
G37*
G36*
X0152321Y0116762D02*
X0151616Y0116762D01*
X0150965Y0116492D01*
X0150893Y0116420D01*
X0150409Y0116034D01*
X0149864Y0116420D01*
X0149822Y0116462D01*
X0149171Y0116732D01*
X0148466Y0116732D01*
X0147815Y0116462D01*
X0147317Y0115964D01*
X0147047Y0115313D01*
X0147047Y0114608D01*
X0147317Y0113957D01*
X0147815Y0113459D01*
X0148466Y0113189D01*
X0149171Y0113189D01*
X0149822Y0113459D01*
X0149894Y0113530D01*
X0150378Y0113916D01*
X0150923Y0113530D01*
X0150965Y0113488D01*
X0151616Y0113218D01*
X0152321Y0113218D01*
X0152972Y0113488D01*
X0153014Y0113530D01*
X0153559Y0113916D01*
X0154043Y0113530D01*
X0154114Y0113459D01*
X0154765Y0113189D01*
X0155470Y0113189D01*
X0156122Y0113459D01*
X0156620Y0113957D01*
X0156890Y0114608D01*
X0156890Y0115313D01*
X0156620Y0115964D01*
X0156122Y0116462D01*
X0155470Y0116732D01*
X0154765Y0116732D01*
X0154114Y0116462D01*
X0154072Y0116420D01*
X0153528Y0116034D01*
X0153043Y0116420D01*
X0152972Y0116492D01*
X0152321Y0116762D01*
D02*
G37*
G36*
X0072793Y0118307D02*
X0072088Y0118307D01*
X0071437Y0118037D01*
X0070939Y0117539D01*
X0070669Y0116888D01*
X0070669Y0116183D01*
X0070939Y0115532D01*
X0071437Y0115033D01*
X0072088Y0114764D01*
X0072793Y0114764D01*
X0073444Y0115033D01*
X0073943Y0115532D01*
X0074212Y0116183D01*
X0074212Y0116888D01*
X0073943Y0117539D01*
X0073444Y0118037D01*
X0072793Y0118307D01*
D02*
G37*
G36*
X0140207Y0119982D02*
X0139502Y0119982D01*
X0138851Y0119712D01*
X0138353Y0119214D01*
X0138083Y0118563D01*
X0138083Y0117858D01*
X0138353Y0117207D01*
X0138851Y0116708D01*
X0139502Y0116439D01*
X0140207Y0116439D01*
X0140757Y0116071D01*
X0140757Y0115974D01*
X0141027Y0115323D01*
X0141525Y0114825D01*
X0142176Y0114555D01*
X0142881Y0114555D01*
X0143532Y0114825D01*
X0144031Y0115323D01*
X0144300Y0115974D01*
X0144300Y0116679D01*
X0144031Y0117330D01*
X0143532Y0117829D01*
X0142881Y0118098D01*
X0142176Y0118098D01*
X0141626Y0118466D01*
X0141626Y0118563D01*
X0141357Y0119214D01*
X0140858Y0119712D01*
X0140207Y0119982D01*
D02*
G37*
G36*
X0089424Y0119739D02*
X0088719Y0119739D01*
X0088068Y0119469D01*
X0087569Y0118971D01*
X0087300Y0118319D01*
X0087300Y0117615D01*
X0087569Y0116963D01*
X0087923Y0116610D01*
X0088047Y0116278D01*
X0087977Y0115650D01*
X0087701Y0115373D01*
X0087431Y0114722D01*
X0087431Y0114018D01*
X0087701Y0113366D01*
X0088084Y0112983D01*
X0088071Y0112919D01*
X0087573Y0112421D01*
X0087303Y0111770D01*
X0087303Y0111295D01*
X0086809Y0110841D01*
X0086585Y0110740D01*
X0086376Y0110827D01*
X0085671Y0110827D01*
X0085020Y0110557D01*
X0084522Y0110059D01*
X0084252Y0109407D01*
X0084252Y0108703D01*
X0084522Y0108051D01*
X0085020Y0107553D01*
X0085671Y0107283D01*
X0086376Y0107283D01*
X0087027Y0107553D01*
X0087525Y0108051D01*
X0087795Y0108703D01*
X0087795Y0109177D01*
X0088289Y0109631D01*
X0088513Y0109732D01*
X0088722Y0109646D01*
X0089427Y0109646D01*
X0090078Y0109915D01*
X0090577Y0110414D01*
X0090846Y0111065D01*
X0090846Y0111770D01*
X0090577Y0112421D01*
X0090193Y0112804D01*
X0090206Y0112868D01*
X0090704Y0113366D01*
X0090974Y0114018D01*
X0090974Y0114722D01*
X0090704Y0115373D01*
X0090351Y0115727D01*
X0090227Y0116059D01*
X0090297Y0116687D01*
X0090573Y0116963D01*
X0090843Y0117615D01*
X0090843Y0118319D01*
X0090573Y0118971D01*
X0090075Y0119469D01*
X0089424Y0119739D01*
D02*
G37*
G36*
X0045529Y0113189D02*
X0044825Y0113189D01*
X0044173Y0112919D01*
X0043675Y0112421D01*
X0043405Y0111770D01*
X0043405Y0111065D01*
X0043675Y0110414D01*
X0044173Y0109915D01*
X0044825Y0109646D01*
X0045529Y0109646D01*
X0046181Y0109915D01*
X0046679Y0110414D01*
X0046949Y0111065D01*
X0046949Y0111770D01*
X0046679Y0112421D01*
X0046181Y0112919D01*
X0045529Y0113189D01*
D02*
G37*
G36*
X0188147Y0110039D02*
X0187443Y0110039D01*
X0186792Y0109770D01*
X0186293Y0109271D01*
X0186023Y0108620D01*
X0186023Y0108540D01*
X0185236Y0108214D01*
X0185059Y0108392D01*
X0184407Y0108661D01*
X0183703Y0108661D01*
X0183051Y0108392D01*
X0182553Y0107893D01*
X0182283Y0107242D01*
X0182283Y0106537D01*
X0182553Y0105886D01*
X0183051Y0105388D01*
X0183703Y0105118D01*
X0184407Y0105118D01*
X0185059Y0105388D01*
X0185557Y0105886D01*
X0185827Y0106537D01*
X0185827Y0106617D01*
X0186614Y0106943D01*
X0186792Y0106766D01*
X0187443Y0106496D01*
X0188090Y0106258D01*
X0188090Y0105553D01*
X0188360Y0104902D01*
X0188858Y0104404D01*
X0189510Y0104134D01*
X0190214Y0104134D01*
X0190866Y0104404D01*
X0191364Y0104902D01*
X0191634Y0105553D01*
X0191634Y0106258D01*
X0191364Y0106909D01*
X0190866Y0107407D01*
X0190214Y0107677D01*
X0189567Y0107915D01*
X0189567Y0108620D01*
X0189297Y0109271D01*
X0188799Y0109770D01*
X0188147Y0110039D01*
D02*
G37*
G36*
X0051941Y0111148D02*
X0051236Y0111148D01*
X0050585Y0110878D01*
X0050086Y0110380D01*
X0049817Y0109729D01*
X0049817Y0109024D01*
X0050086Y0108373D01*
X0050585Y0107875D01*
X0051236Y0107605D01*
X0051941Y0107605D01*
X0052592Y0107875D01*
X0053090Y0108373D01*
X0053360Y0109024D01*
X0053360Y0109729D01*
X0053090Y0110380D01*
X0052592Y0110878D01*
X0051941Y0111148D01*
D02*
G37*
G36*
X0056954Y0111078D02*
X0056249Y0111078D01*
X0055598Y0110808D01*
X0055099Y0110310D01*
X0054830Y0109659D01*
X0054830Y0108954D01*
X0055099Y0108303D01*
X0055598Y0107805D01*
X0056249Y0107535D01*
X0056954Y0107535D01*
X0057605Y0107805D01*
X0058103Y0108303D01*
X0058373Y0108954D01*
X0058373Y0109659D01*
X0058103Y0110310D01*
X0057605Y0110808D01*
X0056954Y0111078D01*
D02*
G37*
G36*
X0101730Y0110039D02*
X0101025Y0110039D01*
X0100374Y0109769D01*
X0099876Y0109271D01*
X0099606Y0108620D01*
X0099606Y0107915D01*
X0099876Y0107264D01*
X0100374Y0106766D01*
X0101025Y0106496D01*
X0101730Y0106496D01*
X0102381Y0106766D01*
X0102880Y0107264D01*
X0103150Y0107915D01*
X0103150Y0108620D01*
X0102880Y0109271D01*
X0102381Y0109769D01*
X0101730Y0110039D01*
D02*
G37*
G36*
X0170234Y0110039D02*
X0169529Y0110039D01*
X0168878Y0109769D01*
X0168380Y0109271D01*
X0168110Y0108620D01*
X0168110Y0107915D01*
X0168380Y0107264D01*
X0168878Y0106766D01*
X0169529Y0106496D01*
X0170234Y0106496D01*
X0170885Y0106766D01*
X0171384Y0107264D01*
X0171653Y0107915D01*
X0171653Y0108620D01*
X0171384Y0109271D01*
X0170885Y0109769D01*
X0170234Y0110039D01*
D02*
G37*
G36*
X0147399Y0110039D02*
X0146695Y0110039D01*
X0146044Y0109769D01*
X0145545Y0109271D01*
X0145275Y0108620D01*
X0145275Y0107915D01*
X0145545Y0107264D01*
X0146044Y0106766D01*
X0146695Y0106496D01*
X0147399Y0106496D01*
X0148051Y0106766D01*
X0148549Y0107264D01*
X0148819Y0107915D01*
X0148819Y0108620D01*
X0148549Y0109271D01*
X0148051Y0109769D01*
X0147399Y0110039D01*
D02*
G37*
G36*
X0124565Y0110039D02*
X0123860Y0110039D01*
X0123209Y0109769D01*
X0122711Y0109271D01*
X0122441Y0108620D01*
X0122441Y0107915D01*
X0122711Y0107264D01*
X0123209Y0106766D01*
X0123860Y0106496D01*
X0124565Y0106496D01*
X0125216Y0106766D01*
X0125714Y0107264D01*
X0125984Y0107915D01*
X0125984Y0108620D01*
X0125714Y0109271D01*
X0125216Y0109769D01*
X0124565Y0110039D01*
D02*
G37*
G36*
X0073485Y0112545D02*
X0072781Y0112545D01*
X0072129Y0112275D01*
X0071631Y0111777D01*
X0071361Y0111126D01*
X0071361Y0110421D01*
X0071457Y0110190D01*
X0071716Y0109445D01*
X0071218Y0108946D01*
X0070948Y0108295D01*
X0070948Y0107590D01*
X0071218Y0106939D01*
X0071716Y0106441D01*
X0072367Y0106171D01*
X0073072Y0106171D01*
X0073723Y0106441D01*
X0074222Y0106939D01*
X0074491Y0107590D01*
X0074491Y0108295D01*
X0074396Y0108526D01*
X0074137Y0109271D01*
X0074635Y0109769D01*
X0074905Y0110421D01*
X0074905Y0111126D01*
X0074635Y0111777D01*
X0074137Y0112275D01*
X0073485Y0112545D01*
D02*
G37*
G36*
X0193810Y0110198D02*
X0193105Y0110198D01*
X0192454Y0109928D01*
X0191955Y0109430D01*
X0191686Y0108779D01*
X0191686Y0108074D01*
X0191955Y0107423D01*
X0192454Y0106924D01*
X0193105Y0106655D01*
X0193810Y0106655D01*
X0194461Y0106924D01*
X0194470Y0106933D01*
X0195348Y0106870D01*
X0195847Y0106372D01*
X0196498Y0106102D01*
X0197203Y0106102D01*
X0197854Y0106372D01*
X0198352Y0106870D01*
X0198622Y0107522D01*
X0198622Y0108226D01*
X0198352Y0108878D01*
X0197854Y0109376D01*
X0197203Y0109646D01*
X0196498Y0109646D01*
X0195847Y0109376D01*
X0195838Y0109367D01*
X0194959Y0109430D01*
X0194461Y0109928D01*
X0193810Y0110198D01*
D02*
G37*
G36*
X0061474Y0118993D02*
X0060770Y0118993D01*
X0060118Y0118723D01*
X0059620Y0118225D01*
X0059350Y0117574D01*
X0059350Y0116869D01*
X0059620Y0116218D01*
X0060106Y0115732D01*
X0059748Y0115373D01*
X0059478Y0114722D01*
X0059478Y0114018D01*
X0059748Y0113366D01*
X0059700Y0112500D01*
X0059620Y0112421D01*
X0059350Y0111770D01*
X0059350Y0111065D01*
X0059620Y0110414D01*
X0060021Y0110012D01*
X0060118Y0109856D01*
X0060106Y0109068D01*
X0059915Y0108878D01*
X0059645Y0108226D01*
X0059645Y0107522D01*
X0059915Y0106870D01*
X0060414Y0106372D01*
X0061065Y0106102D01*
X0061770Y0106102D01*
X0062421Y0106372D01*
X0062919Y0106870D01*
X0063189Y0107522D01*
X0063189Y0108226D01*
X0062919Y0108878D01*
X0062518Y0109279D01*
X0062422Y0109435D01*
X0062433Y0110223D01*
X0062624Y0110414D01*
X0062894Y0111065D01*
X0062894Y0111770D01*
X0062624Y0112421D01*
X0062672Y0113287D01*
X0062752Y0113366D01*
X0063022Y0114018D01*
X0063022Y0114722D01*
X0062752Y0115373D01*
X0062266Y0115860D01*
X0062624Y0116218D01*
X0062894Y0116869D01*
X0062894Y0117574D01*
X0062624Y0118225D01*
X0062126Y0118723D01*
X0061474Y0118993D01*
D02*
G37*
G36*
X0143069Y0108661D02*
X0142364Y0108661D01*
X0141713Y0108392D01*
X0141215Y0107893D01*
X0140945Y0107242D01*
X0140945Y0106537D01*
X0141215Y0105886D01*
X0141713Y0105388D01*
X0142364Y0105118D01*
X0143069Y0105118D01*
X0143720Y0105388D01*
X0144218Y0105886D01*
X0144488Y0106537D01*
X0144488Y0107242D01*
X0144218Y0107893D01*
X0143720Y0108392D01*
X0143069Y0108661D01*
D02*
G37*
G36*
X0120234Y0108661D02*
X0119529Y0108661D01*
X0118878Y0108392D01*
X0118380Y0107893D01*
X0118110Y0107242D01*
X0118110Y0106537D01*
X0118380Y0105886D01*
X0118878Y0105388D01*
X0119529Y0105118D01*
X0120234Y0105118D01*
X0120885Y0105388D01*
X0121384Y0105886D01*
X0121653Y0106537D01*
X0121653Y0107242D01*
X0121384Y0107893D01*
X0120885Y0108392D01*
X0120234Y0108661D01*
D02*
G37*
G36*
X0165903Y0108661D02*
X0165199Y0108661D01*
X0164548Y0108392D01*
X0164049Y0107893D01*
X0163779Y0107242D01*
X0163779Y0106537D01*
X0164049Y0105886D01*
X0164548Y0105388D01*
X0165199Y0105118D01*
X0165903Y0105118D01*
X0166555Y0105388D01*
X0167053Y0105886D01*
X0167323Y0106537D01*
X0167323Y0107242D01*
X0167053Y0107893D01*
X0166555Y0108392D01*
X0165903Y0108661D01*
D02*
G37*
G36*
X0097400Y0108661D02*
X0096695Y0108661D01*
X0096044Y0108392D01*
X0095545Y0107893D01*
X0095276Y0107242D01*
X0095276Y0106537D01*
X0095545Y0105886D01*
X0096044Y0105388D01*
X0096695Y0105118D01*
X0097400Y0105118D01*
X0098051Y0105388D01*
X0098549Y0105886D01*
X0098819Y0106537D01*
X0098819Y0107242D01*
X0098549Y0107893D01*
X0098051Y0108392D01*
X0097400Y0108661D01*
D02*
G37*
G36*
X0157587Y0110187D02*
X0156882Y0110187D01*
X0156231Y0109917D01*
X0155732Y0109419D01*
X0155463Y0108768D01*
X0155463Y0108063D01*
X0155732Y0107412D01*
X0156205Y0106939D01*
X0155781Y0106515D01*
X0155512Y0105864D01*
X0155512Y0105159D01*
X0155781Y0104508D01*
X0156280Y0104010D01*
X0156931Y0103740D01*
X0157636Y0103740D01*
X0158287Y0104010D01*
X0158785Y0104508D01*
X0159055Y0105159D01*
X0159055Y0105864D01*
X0158785Y0106515D01*
X0158312Y0106988D01*
X0158736Y0107412D01*
X0159006Y0108063D01*
X0159006Y0108768D01*
X0158736Y0109419D01*
X0158238Y0109917D01*
X0157587Y0110187D01*
D02*
G37*
G36*
X0111917Y0110187D02*
X0111212Y0110187D01*
X0110561Y0109917D01*
X0110063Y0109419D01*
X0109793Y0108768D01*
X0109793Y0108063D01*
X0110063Y0107412D01*
X0110536Y0106939D01*
X0110112Y0106515D01*
X0109842Y0105864D01*
X0109842Y0105159D01*
X0110112Y0104508D01*
X0110611Y0104010D01*
X0111262Y0103740D01*
X0111966Y0103740D01*
X0112618Y0104010D01*
X0113116Y0104508D01*
X0113386Y0105159D01*
X0113386Y0105864D01*
X0113116Y0106515D01*
X0112643Y0106988D01*
X0113067Y0107412D01*
X0113337Y0108063D01*
X0113337Y0108768D01*
X0113067Y0109419D01*
X0112568Y0109917D01*
X0111917Y0110187D01*
D02*
G37*
G36*
X0080077Y0110827D02*
X0079372Y0110827D01*
X0078721Y0110557D01*
X0078222Y0110059D01*
X0077953Y0109407D01*
X0077953Y0108703D01*
X0078222Y0108051D01*
X0078721Y0107553D01*
X0079372Y0107283D01*
X0079733Y0107283D01*
X0079844Y0107082D01*
X0079975Y0106496D01*
X0079600Y0106122D01*
X0079331Y0105470D01*
X0079331Y0104766D01*
X0079600Y0104114D01*
X0080099Y0103616D01*
X0080750Y0103346D01*
X0081455Y0103346D01*
X0082106Y0103616D01*
X0082604Y0104114D01*
X0082874Y0104766D01*
X0082874Y0105470D01*
X0082604Y0106122D01*
X0082106Y0106620D01*
X0081455Y0106890D01*
X0081093Y0106890D01*
X0080982Y0107091D01*
X0080852Y0107677D01*
X0081226Y0108051D01*
X0081496Y0108703D01*
X0081496Y0109407D01*
X0081226Y0110059D01*
X0080728Y0110557D01*
X0080077Y0110827D01*
D02*
G37*
G36*
X0135392Y0112795D02*
X0134687Y0112795D01*
X0134036Y0112526D01*
X0133537Y0112027D01*
X0133268Y0111376D01*
X0133268Y0110671D01*
X0133537Y0110020D01*
X0133594Y0109963D01*
X0133981Y0109449D01*
X0133594Y0108934D01*
X0133537Y0108878D01*
X0133268Y0108226D01*
X0133268Y0107522D01*
X0133537Y0106870D01*
X0134009Y0106398D01*
X0133636Y0106025D01*
X0133366Y0105374D01*
X0133366Y0104669D01*
X0133636Y0104018D01*
X0134134Y0103519D01*
X0134785Y0103250D01*
X0135490Y0103250D01*
X0136141Y0103519D01*
X0136640Y0104018D01*
X0136909Y0104669D01*
X0136909Y0105374D01*
X0136640Y0106025D01*
X0136168Y0106497D01*
X0136541Y0106870D01*
X0136811Y0107522D01*
X0136811Y0108226D01*
X0136541Y0108878D01*
X0136484Y0108934D01*
X0136098Y0109449D01*
X0136484Y0109963D01*
X0136541Y0110020D01*
X0136811Y0110671D01*
X0136811Y0111376D01*
X0136541Y0112027D01*
X0136043Y0112526D01*
X0135392Y0112795D01*
D02*
G37*
G36*
X0042281Y0106496D02*
X0041577Y0106496D01*
X0040925Y0106226D01*
X0040427Y0105728D01*
X0040157Y0105077D01*
X0040157Y0104372D01*
X0040427Y0103721D01*
X0040925Y0103222D01*
X0041577Y0102953D01*
X0042281Y0102953D01*
X0042933Y0103222D01*
X0043431Y0103721D01*
X0043701Y0104372D01*
X0043701Y0105077D01*
X0043431Y0105728D01*
X0042933Y0106226D01*
X0042281Y0106496D01*
D02*
G37*
G36*
X0089612Y0106420D02*
X0088907Y0106420D01*
X0088256Y0106150D01*
X0087757Y0105652D01*
X0087488Y0105001D01*
X0087488Y0104296D01*
X0087757Y0103645D01*
X0088256Y0103146D01*
X0088907Y0102877D01*
X0089612Y0102877D01*
X0090263Y0103146D01*
X0090761Y0103645D01*
X0091031Y0104296D01*
X0091031Y0105001D01*
X0090761Y0105652D01*
X0090263Y0106150D01*
X0089612Y0106420D01*
D02*
G37*
G36*
X0101730Y0103740D02*
X0101025Y0103740D01*
X0100374Y0103470D01*
X0099876Y0102972D01*
X0099606Y0102321D01*
X0099606Y0101650D01*
X0099247Y0101310D01*
X0098950Y0101143D01*
X0098384Y0101378D01*
X0097679Y0101378D01*
X0097028Y0101108D01*
X0096529Y0100610D01*
X0096260Y0099959D01*
X0096260Y0099254D01*
X0096529Y0098603D01*
X0097028Y0098104D01*
X0097679Y0097835D01*
X0098384Y0097835D01*
X0099035Y0098104D01*
X0099533Y0098603D01*
X0099803Y0099254D01*
X0099803Y0099924D01*
X0100162Y0100265D01*
X0100460Y0100431D01*
X0101025Y0100197D01*
X0101730Y0100197D01*
X0102381Y0100467D01*
X0102880Y0100965D01*
X0103150Y0101616D01*
X0103150Y0102321D01*
X0102880Y0102972D01*
X0102381Y0103470D01*
X0101730Y0103740D01*
D02*
G37*
G36*
X0078305Y0103740D02*
X0077600Y0103740D01*
X0076949Y0103470D01*
X0076451Y0102972D01*
X0076181Y0102321D01*
X0076181Y0101616D01*
X0076451Y0100965D01*
X0076949Y0100467D01*
X0077600Y0100197D01*
X0078305Y0100197D01*
X0078956Y0100467D01*
X0079454Y0100965D01*
X0079724Y0101616D01*
X0079724Y0102321D01*
X0079454Y0102972D01*
X0078956Y0103470D01*
X0078305Y0103740D01*
D02*
G37*
G36*
X0067675Y0103740D02*
X0066970Y0103740D01*
X0066319Y0103470D01*
X0065821Y0102972D01*
X0065551Y0102321D01*
X0065551Y0101616D01*
X0065821Y0100965D01*
X0066319Y0100467D01*
X0066970Y0100197D01*
X0067675Y0100197D01*
X0068326Y0100467D01*
X0068825Y0100965D01*
X0069094Y0101616D01*
X0069094Y0102321D01*
X0068825Y0102972D01*
X0068326Y0103470D01*
X0067675Y0103740D01*
D02*
G37*
G36*
X0170234Y0103740D02*
X0169529Y0103740D01*
X0168878Y0103470D01*
X0168380Y0102972D01*
X0168110Y0102321D01*
X0168110Y0101616D01*
X0168380Y0100965D01*
X0168878Y0100467D01*
X0169529Y0100197D01*
X0170234Y0100197D01*
X0170885Y0100467D01*
X0171384Y0100965D01*
X0171653Y0101616D01*
X0171653Y0102321D01*
X0171384Y0102972D01*
X0170885Y0103470D01*
X0170234Y0103740D01*
D02*
G37*
G36*
X0147399Y0103740D02*
X0146695Y0103740D01*
X0146044Y0103470D01*
X0145545Y0102972D01*
X0145275Y0102321D01*
X0145275Y0101616D01*
X0145545Y0100965D01*
X0146044Y0100467D01*
X0146695Y0100197D01*
X0147399Y0100197D01*
X0148051Y0100467D01*
X0148549Y0100965D01*
X0148819Y0101616D01*
X0148819Y0102321D01*
X0148549Y0102972D01*
X0148051Y0103470D01*
X0147399Y0103740D01*
D02*
G37*
G36*
X0124565Y0103740D02*
X0123860Y0103740D01*
X0123209Y0103470D01*
X0122711Y0102972D01*
X0122441Y0102321D01*
X0122441Y0101616D01*
X0122711Y0100965D01*
X0123209Y0100467D01*
X0123860Y0100197D01*
X0124565Y0100197D01*
X0125216Y0100467D01*
X0125714Y0100965D01*
X0125984Y0101616D01*
X0125984Y0102321D01*
X0125714Y0102972D01*
X0125216Y0103470D01*
X0124565Y0103740D01*
D02*
G37*
G36*
X0053502Y0106890D02*
X0052797Y0106890D01*
X0052146Y0106620D01*
X0051647Y0106122D01*
X0051378Y0105470D01*
X0051378Y0104766D01*
X0051536Y0104383D01*
X0051582Y0104019D01*
X0051195Y0103454D01*
X0050979Y0103365D01*
X0050481Y0102866D01*
X0050211Y0102215D01*
X0050211Y0101510D01*
X0050481Y0100859D01*
X0050979Y0100361D01*
X0051631Y0100091D01*
X0051795Y0100091D01*
X0051951Y0099304D01*
X0051555Y0099140D01*
X0051057Y0098641D01*
X0050787Y0097990D01*
X0050787Y0097285D01*
X0051057Y0096634D01*
X0051555Y0096136D01*
X0052207Y0095866D01*
X0052911Y0095866D01*
X0053563Y0096136D01*
X0054061Y0096634D01*
X0054331Y0097285D01*
X0054331Y0097990D01*
X0054061Y0098641D01*
X0053563Y0099140D01*
X0052911Y0099409D01*
X0052747Y0099409D01*
X0052590Y0100197D01*
X0052986Y0100361D01*
X0053425Y0100799D01*
X0053824Y0100816D01*
X0054295Y0100757D01*
X0054366Y0100583D01*
X0054865Y0100085D01*
X0055516Y0099815D01*
X0056221Y0099815D01*
X0056872Y0100085D01*
X0057370Y0100583D01*
X0057640Y0101234D01*
X0057640Y0101939D01*
X0057370Y0102590D01*
X0056872Y0103089D01*
X0056221Y0103358D01*
X0055516Y0103358D01*
X0054865Y0103089D01*
X0054168Y0103130D01*
X0054153Y0103616D01*
X0054651Y0104114D01*
X0054921Y0104766D01*
X0054921Y0105470D01*
X0054651Y0106122D01*
X0054153Y0106620D01*
X0053502Y0106890D01*
D02*
G37*
G36*
X0046809Y0102756D02*
X0046104Y0102756D01*
X0045453Y0102486D01*
X0044955Y0101988D01*
X0044685Y0101336D01*
X0044685Y0100632D01*
X0044955Y0099981D01*
X0045453Y0099482D01*
X0046104Y0099212D01*
X0046809Y0099212D01*
X0047460Y0099482D01*
X0047958Y0099981D01*
X0048228Y0100632D01*
X0048228Y0101336D01*
X0047958Y0101988D01*
X0047460Y0102486D01*
X0046809Y0102756D01*
D02*
G37*
G36*
X0085112Y0102497D02*
X0084407Y0102497D01*
X0083756Y0102227D01*
X0083258Y0101729D01*
X0082988Y0101077D01*
X0082988Y0100373D01*
X0083258Y0099722D01*
X0083756Y0099223D01*
X0084407Y0098953D01*
X0085112Y0098953D01*
X0085763Y0099223D01*
X0086262Y0099722D01*
X0086532Y0100373D01*
X0086532Y0101077D01*
X0086262Y0101729D01*
X0085763Y0102227D01*
X0085112Y0102497D01*
D02*
G37*
G36*
X0166494Y0101378D02*
X0165789Y0101378D01*
X0165138Y0101108D01*
X0164640Y0100610D01*
X0164370Y0099959D01*
X0164370Y0099254D01*
X0164640Y0098603D01*
X0165138Y0098104D01*
X0165789Y0097835D01*
X0166494Y0097835D01*
X0167145Y0098104D01*
X0167643Y0098603D01*
X0167913Y0099254D01*
X0167913Y0099959D01*
X0167643Y0100610D01*
X0167145Y0101108D01*
X0166494Y0101378D01*
D02*
G37*
G36*
X0160589Y0101378D02*
X0159884Y0101378D01*
X0159232Y0101108D01*
X0158734Y0100610D01*
X0158464Y0099959D01*
X0158464Y0099254D01*
X0158734Y0098603D01*
X0159232Y0098104D01*
X0159884Y0097835D01*
X0160589Y0097835D01*
X0161240Y0098104D01*
X0161738Y0098603D01*
X0162008Y0099254D01*
X0162008Y0099959D01*
X0161738Y0100610D01*
X0161240Y0101108D01*
X0160589Y0101378D01*
D02*
G37*
G36*
X0143659Y0101378D02*
X0142955Y0101378D01*
X0142303Y0101108D01*
X0141805Y0100610D01*
X0141535Y0099959D01*
X0141535Y0099254D01*
X0141805Y0098603D01*
X0142303Y0098104D01*
X0142955Y0097835D01*
X0143659Y0097835D01*
X0144310Y0098104D01*
X0144809Y0098603D01*
X0145079Y0099254D01*
X0145079Y0099959D01*
X0144809Y0100610D01*
X0144310Y0101108D01*
X0143659Y0101378D01*
D02*
G37*
G36*
X0137754Y0101378D02*
X0137049Y0101378D01*
X0136398Y0101108D01*
X0135900Y0100610D01*
X0135630Y0099959D01*
X0135630Y0099254D01*
X0135900Y0098603D01*
X0136398Y0098104D01*
X0137049Y0097835D01*
X0137754Y0097835D01*
X0138405Y0098104D01*
X0138903Y0098603D01*
X0139173Y0099254D01*
X0139173Y0099959D01*
X0138903Y0100610D01*
X0138405Y0101108D01*
X0137754Y0101378D01*
D02*
G37*
G36*
X0120825Y0101378D02*
X0120120Y0101378D01*
X0119469Y0101108D01*
X0118970Y0100610D01*
X0118701Y0099959D01*
X0118701Y0099254D01*
X0118970Y0098603D01*
X0119469Y0098104D01*
X0120120Y0097835D01*
X0120825Y0097835D01*
X0121476Y0098104D01*
X0121974Y0098603D01*
X0122244Y0099254D01*
X0122244Y0099959D01*
X0121974Y0100610D01*
X0121476Y0101108D01*
X0120825Y0101378D01*
D02*
G37*
G36*
X0115313Y0101378D02*
X0114608Y0101378D01*
X0113957Y0101108D01*
X0113459Y0100610D01*
X0113189Y0099959D01*
X0113189Y0099254D01*
X0113459Y0098603D01*
X0113957Y0098104D01*
X0114608Y0097835D01*
X0115313Y0097835D01*
X0115964Y0098104D01*
X0116462Y0098603D01*
X0116732Y0099254D01*
X0116732Y0099959D01*
X0116462Y0100610D01*
X0115964Y0101108D01*
X0115313Y0101378D01*
D02*
G37*
G36*
X0090116Y0099409D02*
X0089411Y0099409D01*
X0088760Y0099140D01*
X0088262Y0098641D01*
X0087992Y0097990D01*
X0087992Y0097285D01*
X0088262Y0096634D01*
X0088760Y0096136D01*
X0089411Y0095866D01*
X0090116Y0095866D01*
X0090767Y0096136D01*
X0091266Y0096634D01*
X0091535Y0097285D01*
X0091535Y0097990D01*
X0091266Y0098641D01*
X0090767Y0099140D01*
X0090116Y0099409D01*
D02*
G37*
G36*
X0077714Y0099409D02*
X0077010Y0099409D01*
X0076358Y0099140D01*
X0075860Y0098641D01*
X0075590Y0097990D01*
X0075590Y0097285D01*
X0075860Y0096634D01*
X0076358Y0096136D01*
X0077010Y0095866D01*
X0077714Y0095866D01*
X0078366Y0096136D01*
X0078864Y0096634D01*
X0079134Y0097285D01*
X0079134Y0097990D01*
X0078864Y0098641D01*
X0078366Y0099140D01*
X0077714Y0099409D01*
D02*
G37*
G36*
X0065313Y0099409D02*
X0064608Y0099409D01*
X0063957Y0099140D01*
X0063459Y0098641D01*
X0063189Y0097990D01*
X0063189Y0097285D01*
X0063459Y0096634D01*
X0063957Y0096136D01*
X0064608Y0095866D01*
X0065313Y0095866D01*
X0065964Y0096136D01*
X0066462Y0096634D01*
X0066732Y0097285D01*
X0066732Y0097990D01*
X0066462Y0098641D01*
X0065964Y0099140D01*
X0065313Y0099409D01*
D02*
G37*
G36*
X0040510Y0099409D02*
X0039805Y0099409D01*
X0039154Y0099140D01*
X0038655Y0098641D01*
X0038386Y0097990D01*
X0038386Y0097285D01*
X0038655Y0096634D01*
X0039154Y0096136D01*
X0039805Y0095866D01*
X0040510Y0095866D01*
X0041161Y0096136D01*
X0041659Y0096634D01*
X0041929Y0097285D01*
X0041929Y0097990D01*
X0041659Y0098641D01*
X0041161Y0099140D01*
X0040510Y0099409D01*
D02*
G37*
G36*
X0185422Y0100227D02*
X0184717Y0100227D01*
X0184066Y0099957D01*
X0183567Y0099459D01*
X0183298Y0098808D01*
X0183298Y0098103D01*
X0183567Y0097452D01*
X0183090Y0096816D01*
X0182947Y0096673D01*
X0182677Y0096022D01*
X0182677Y0095317D01*
X0182947Y0094666D01*
X0183445Y0094167D01*
X0184096Y0093898D01*
X0184801Y0093898D01*
X0185452Y0094167D01*
X0185951Y0094666D01*
X0186220Y0095317D01*
X0186220Y0096022D01*
X0185951Y0096673D01*
X0186428Y0097309D01*
X0186571Y0097452D01*
X0186841Y0098103D01*
X0186841Y0098808D01*
X0186571Y0099459D01*
X0186073Y0099957D01*
X0185422Y0100227D01*
D02*
G37*
G36*
X0189821Y0097244D02*
X0189116Y0097244D01*
X0188465Y0096974D01*
X0187966Y0096476D01*
X0187697Y0095825D01*
X0187697Y0095120D01*
X0187966Y0094469D01*
X0188465Y0093970D01*
X0189116Y0093701D01*
X0189821Y0093701D01*
X0190472Y0093970D01*
X0190970Y0094469D01*
X0191240Y0095120D01*
X0191240Y0095825D01*
X0190970Y0096476D01*
X0190472Y0096974D01*
X0189821Y0097244D01*
D02*
G37*
G36*
X0198653Y0096750D02*
X0197948Y0096750D01*
X0197297Y0096480D01*
X0196798Y0095982D01*
X0196529Y0095331D01*
X0196529Y0094626D01*
X0196798Y0093975D01*
X0197297Y0093476D01*
X0197948Y0093207D01*
X0198653Y0093207D01*
X0199304Y0093476D01*
X0199802Y0093975D01*
X0200072Y0094626D01*
X0200072Y0095331D01*
X0199802Y0095982D01*
X0199304Y0096480D01*
X0198653Y0096750D01*
D02*
G37*
G36*
X0096684Y0096474D02*
X0095979Y0096474D01*
X0095328Y0096204D01*
X0094829Y0095705D01*
X0094560Y0095054D01*
X0094560Y0094349D01*
X0094829Y0093698D01*
X0095328Y0093200D01*
X0095979Y0092930D01*
X0096684Y0092930D01*
X0097335Y0093200D01*
X0097833Y0093698D01*
X0098103Y0094349D01*
X0098103Y0095054D01*
X0097833Y0095705D01*
X0097335Y0096204D01*
X0096684Y0096474D01*
D02*
G37*
G36*
X0194053Y0095866D02*
X0193348Y0095866D01*
X0192697Y0095596D01*
X0192199Y0095098D01*
X0191929Y0094447D01*
X0191929Y0093742D01*
X0192199Y0093091D01*
X0192697Y0092593D01*
X0193348Y0092323D01*
X0194053Y0092323D01*
X0194704Y0092593D01*
X0195203Y0093091D01*
X0195472Y0093742D01*
X0195472Y0094447D01*
X0195203Y0095098D01*
X0194704Y0095596D01*
X0194053Y0095866D01*
D02*
G37*
G36*
X0078305Y0093504D02*
X0077600Y0093504D01*
X0076949Y0093234D01*
X0076451Y0092736D01*
X0076214Y0092165D01*
X0075941Y0092085D01*
X0075394Y0092086D01*
X0075370Y0092145D01*
X0074872Y0092643D01*
X0074220Y0092913D01*
X0073516Y0092913D01*
X0072864Y0092643D01*
X0072366Y0092145D01*
X0072096Y0091494D01*
X0072096Y0090789D01*
X0072366Y0090138D01*
X0072864Y0089640D01*
X0073516Y0089370D01*
X0074220Y0089370D01*
X0074872Y0089640D01*
X0075370Y0090138D01*
X0075607Y0090709D01*
X0075880Y0090789D01*
X0076426Y0090787D01*
X0076451Y0090729D01*
X0076949Y0090230D01*
X0077600Y0089961D01*
X0078305Y0089961D01*
X0078956Y0090230D01*
X0079118Y0090392D01*
X0079973Y0090336D01*
X0080054Y0090275D01*
X0080492Y0089837D01*
X0081144Y0089567D01*
X0081848Y0089567D01*
X0082500Y0089837D01*
X0082998Y0090335D01*
X0083268Y0090986D01*
X0083268Y0091691D01*
X0082998Y0092342D01*
X0082500Y0092840D01*
X0081848Y0093110D01*
X0081144Y0093110D01*
X0080492Y0092840D01*
X0080330Y0092679D01*
X0079476Y0092734D01*
X0079395Y0092796D01*
X0078956Y0093234D01*
X0078305Y0093504D01*
D02*
G37*
G36*
X0048051Y0094866D02*
X0047346Y0094866D01*
X0046695Y0094596D01*
X0046196Y0094098D01*
X0045927Y0093447D01*
X0045927Y0092742D01*
X0046196Y0092091D01*
X0046695Y0091592D01*
X0047346Y0091322D01*
X0048051Y0091322D01*
X0048702Y0091592D01*
X0049200Y0092091D01*
X0049470Y0092742D01*
X0049470Y0093447D01*
X0049200Y0094098D01*
X0048702Y0094596D01*
X0048051Y0094866D01*
D02*
G37*
G36*
X0104104Y0094071D02*
X0103399Y0094071D01*
X0102748Y0093801D01*
X0102249Y0093303D01*
X0101980Y0092652D01*
X0101980Y0091947D01*
X0102249Y0091296D01*
X0102748Y0090797D01*
X0103399Y0090528D01*
X0104104Y0090528D01*
X0104755Y0090797D01*
X0105253Y0091296D01*
X0105523Y0091947D01*
X0105523Y0092652D01*
X0105253Y0093303D01*
X0104755Y0093801D01*
X0104104Y0094071D01*
D02*
G37*
G36*
X0154880Y0093898D02*
X0154175Y0093898D01*
X0153524Y0093628D01*
X0153025Y0093130D01*
X0152756Y0092478D01*
X0152756Y0091774D01*
X0153025Y0091122D01*
X0153524Y0090624D01*
X0154175Y0090354D01*
X0154880Y0090354D01*
X0155531Y0090624D01*
X0156029Y0091122D01*
X0156299Y0091774D01*
X0156299Y0092478D01*
X0156029Y0093130D01*
X0155531Y0093628D01*
X0154880Y0093898D01*
D02*
G37*
G36*
X0125326Y0093749D02*
X0124621Y0093749D01*
X0123970Y0093479D01*
X0123472Y0092981D01*
X0123202Y0092330D01*
X0123202Y0091625D01*
X0123472Y0090974D01*
X0123970Y0090475D01*
X0124621Y0090206D01*
X0125326Y0090206D01*
X0125977Y0090475D01*
X0126476Y0090974D01*
X0126745Y0091625D01*
X0126745Y0092330D01*
X0126476Y0092981D01*
X0125977Y0093479D01*
X0125326Y0093749D01*
D02*
G37*
G36*
X0067675Y0093602D02*
X0066970Y0093602D01*
X0066319Y0093333D01*
X0065821Y0092834D01*
X0065551Y0092183D01*
X0065551Y0091478D01*
X0065821Y0090827D01*
X0066319Y0090329D01*
X0066970Y0090059D01*
X0067675Y0090059D01*
X0068326Y0090329D01*
X0068825Y0090827D01*
X0069094Y0091478D01*
X0069094Y0092183D01*
X0068825Y0092834D01*
X0068326Y0093333D01*
X0067675Y0093602D01*
D02*
G37*
G36*
X0062951Y0093602D02*
X0062246Y0093602D01*
X0061595Y0093333D01*
X0061096Y0092834D01*
X0060827Y0092183D01*
X0060827Y0091478D01*
X0061096Y0090827D01*
X0061595Y0090329D01*
X0062246Y0090059D01*
X0062951Y0090059D01*
X0063602Y0090329D01*
X0064100Y0090827D01*
X0064370Y0091478D01*
X0064370Y0092183D01*
X0064100Y0092834D01*
X0063602Y0093333D01*
X0062951Y0093602D01*
D02*
G37*
G36*
X0174762Y0093504D02*
X0174057Y0093504D01*
X0173406Y0093234D01*
X0172907Y0092736D01*
X0172638Y0092085D01*
X0172638Y0091380D01*
X0172907Y0090729D01*
X0173406Y0090230D01*
X0174057Y0089961D01*
X0174762Y0089961D01*
X0175413Y0090230D01*
X0175911Y0090729D01*
X0176181Y0091380D01*
X0176181Y0092085D01*
X0175911Y0092736D01*
X0175413Y0093234D01*
X0174762Y0093504D01*
D02*
G37*
G36*
X0168709Y0092913D02*
X0168004Y0092913D01*
X0167353Y0092643D01*
X0166854Y0092145D01*
X0166585Y0091494D01*
X0166585Y0090789D01*
X0166854Y0090138D01*
X0167353Y0089640D01*
X0168004Y0089370D01*
X0168709Y0089370D01*
X0169360Y0089640D01*
X0169858Y0090138D01*
X0170128Y0090789D01*
X0170128Y0091494D01*
X0169858Y0092145D01*
X0169360Y0092643D01*
X0168709Y0092913D01*
D02*
G37*
G36*
X0149811Y0092913D02*
X0149106Y0092913D01*
X0148455Y0092643D01*
X0147957Y0092145D01*
X0147687Y0091494D01*
X0147687Y0090789D01*
X0147957Y0090138D01*
X0148455Y0089640D01*
X0149106Y0089370D01*
X0149811Y0089370D01*
X0150462Y0089640D01*
X0150961Y0090138D01*
X0151230Y0090789D01*
X0151230Y0091494D01*
X0150961Y0092145D01*
X0150462Y0092643D01*
X0149811Y0092913D01*
D02*
G37*
G36*
X0130913Y0092913D02*
X0130208Y0092913D01*
X0129557Y0092643D01*
X0129059Y0092145D01*
X0128789Y0091494D01*
X0128789Y0090789D01*
X0129059Y0090138D01*
X0129557Y0089640D01*
X0130208Y0089370D01*
X0130913Y0089370D01*
X0131564Y0089640D01*
X0132063Y0090138D01*
X0132333Y0090789D01*
X0132333Y0091494D01*
X0132063Y0092145D01*
X0131564Y0092643D01*
X0130913Y0092913D01*
D02*
G37*
G36*
X0112016Y0092913D02*
X0111311Y0092913D01*
X0110660Y0092643D01*
X0110161Y0092145D01*
X0109892Y0091494D01*
X0109892Y0090789D01*
X0110161Y0090138D01*
X0110660Y0089640D01*
X0111311Y0089370D01*
X0112016Y0089370D01*
X0112667Y0089640D01*
X0113165Y0090138D01*
X0113435Y0090789D01*
X0113435Y0091494D01*
X0113165Y0092145D01*
X0112667Y0092643D01*
X0112016Y0092913D01*
D02*
G37*
G36*
X0093118Y0092913D02*
X0092413Y0092913D01*
X0091762Y0092643D01*
X0091264Y0092145D01*
X0090994Y0091494D01*
X0090994Y0090789D01*
X0091264Y0090138D01*
X0091762Y0089640D01*
X0092413Y0089370D01*
X0093118Y0089370D01*
X0093769Y0089640D01*
X0094267Y0090138D01*
X0094537Y0090789D01*
X0094537Y0091494D01*
X0094267Y0092145D01*
X0093769Y0092643D01*
X0093118Y0092913D01*
D02*
G37*
G36*
X0055323Y0092913D02*
X0054618Y0092913D01*
X0053967Y0092643D01*
X0053468Y0092145D01*
X0053199Y0091494D01*
X0053199Y0090789D01*
X0053468Y0090138D01*
X0053967Y0089640D01*
X0054618Y0089370D01*
X0055323Y0089370D01*
X0055974Y0089640D01*
X0056472Y0090138D01*
X0056742Y0090789D01*
X0056742Y0091494D01*
X0056472Y0092145D01*
X0055974Y0092643D01*
X0055323Y0092913D01*
D02*
G37*
G36*
X0180273Y0091929D02*
X0179569Y0091929D01*
X0178918Y0091659D01*
X0178419Y0091161D01*
X0178149Y0090510D01*
X0178149Y0089805D01*
X0178419Y0089154D01*
X0178918Y0088656D01*
X0179569Y0088386D01*
X0180273Y0088386D01*
X0180925Y0088656D01*
X0181423Y0089154D01*
X0181693Y0089805D01*
X0181693Y0090510D01*
X0181423Y0091161D01*
X0180925Y0091659D01*
X0180273Y0091929D01*
D02*
G37*
G36*
X0044053Y0091535D02*
X0043348Y0091535D01*
X0042697Y0091266D01*
X0042199Y0090767D01*
X0041929Y0090116D01*
X0041929Y0089411D01*
X0042199Y0088760D01*
X0042697Y0088262D01*
X0043348Y0087992D01*
X0044053Y0087992D01*
X0044704Y0088262D01*
X0045203Y0088760D01*
X0045472Y0089411D01*
X0045472Y0090116D01*
X0045203Y0090767D01*
X0044704Y0091266D01*
X0044053Y0091535D01*
D02*
G37*
G36*
X0188935Y0087992D02*
X0188230Y0087992D01*
X0187579Y0087722D01*
X0187302Y0087445D01*
X0186811Y0087302D01*
X0186320Y0087445D01*
X0186043Y0087722D01*
X0185392Y0087992D01*
X0184687Y0087992D01*
X0184036Y0087722D01*
X0183537Y0087224D01*
X0183268Y0086573D01*
X0183268Y0085868D01*
X0183537Y0085217D01*
X0184036Y0084718D01*
X0184687Y0084449D01*
X0185392Y0084449D01*
X0186043Y0084718D01*
X0186320Y0084996D01*
X0186811Y0085138D01*
X0187302Y0084996D01*
X0187579Y0084718D01*
X0188230Y0084449D01*
X0188935Y0084449D01*
X0189586Y0084718D01*
X0190085Y0085217D01*
X0190354Y0085868D01*
X0190354Y0086573D01*
X0190085Y0087224D01*
X0189586Y0087722D01*
X0188935Y0087992D01*
D02*
G37*
G36*
X0041691Y0086712D02*
X0040986Y0086712D01*
X0040335Y0086443D01*
X0039837Y0085944D01*
X0039567Y0085293D01*
X0039567Y0084588D01*
X0039837Y0083937D01*
X0040335Y0083439D01*
X0040986Y0083169D01*
X0041691Y0083169D01*
X0042342Y0083439D01*
X0042840Y0083937D01*
X0043110Y0084588D01*
X0043110Y0085293D01*
X0042840Y0085944D01*
X0042342Y0086443D01*
X0041691Y0086712D01*
D02*
G37*
G36*
X0055707Y0082716D02*
X0055002Y0082716D01*
X0054351Y0082447D01*
X0054306Y0082402D01*
X0053513Y0082210D01*
X0053211Y0082336D01*
X0052862Y0082480D01*
X0052157Y0082480D01*
X0051506Y0082210D01*
X0051008Y0081712D01*
X0050738Y0081061D01*
X0050738Y0080356D01*
X0051008Y0079705D01*
X0051506Y0079207D01*
X0052157Y0078937D01*
X0052862Y0078937D01*
X0053513Y0079207D01*
X0053558Y0079251D01*
X0054351Y0079443D01*
X0054653Y0079318D01*
X0055002Y0079173D01*
X0055707Y0079173D01*
X0056358Y0079443D01*
X0056856Y0079941D01*
X0057126Y0080592D01*
X0057126Y0081297D01*
X0056856Y0081948D01*
X0056358Y0082447D01*
X0055707Y0082716D01*
D02*
G37*
G36*
X0092359Y0082693D02*
X0091654Y0082693D01*
X0091003Y0082423D01*
X0090537Y0081958D01*
X0090157Y0082338D01*
X0089506Y0082608D01*
X0088801Y0082608D01*
X0088150Y0082338D01*
X0087651Y0081840D01*
X0087382Y0081189D01*
X0087382Y0080484D01*
X0087651Y0079833D01*
X0088150Y0079334D01*
X0088801Y0079065D01*
X0089506Y0079065D01*
X0090157Y0079334D01*
X0090622Y0079800D01*
X0091003Y0079420D01*
X0091654Y0079150D01*
X0092359Y0079150D01*
X0093010Y0079420D01*
X0093508Y0079918D01*
X0093778Y0080569D01*
X0093778Y0081274D01*
X0093508Y0081925D01*
X0093010Y0082423D01*
X0092359Y0082693D01*
D02*
G37*
G36*
X0149959Y0082480D02*
X0149254Y0082480D01*
X0148603Y0082210D01*
X0148546Y0082154D01*
X0148031Y0081767D01*
X0147517Y0082154D01*
X0147460Y0082210D01*
X0146809Y0082480D01*
X0146104Y0082480D01*
X0145453Y0082210D01*
X0144955Y0081712D01*
X0144685Y0081061D01*
X0144685Y0080356D01*
X0144955Y0079705D01*
X0145453Y0079207D01*
X0146104Y0078937D01*
X0146809Y0078937D01*
X0147460Y0079207D01*
X0147517Y0079263D01*
X0148031Y0079650D01*
X0148546Y0079263D01*
X0148603Y0079207D01*
X0149254Y0078937D01*
X0149959Y0078937D01*
X0150610Y0079207D01*
X0151108Y0079705D01*
X0151378Y0080356D01*
X0151378Y0081061D01*
X0151108Y0081712D01*
X0150610Y0082210D01*
X0149959Y0082480D01*
D02*
G37*
G36*
X0168856Y0082480D02*
X0168151Y0082480D01*
X0167500Y0082210D01*
X0167443Y0082154D01*
X0166929Y0081767D01*
X0166415Y0082154D01*
X0166358Y0082210D01*
X0165707Y0082480D01*
X0165002Y0082480D01*
X0164351Y0082210D01*
X0163852Y0081712D01*
X0163583Y0081061D01*
X0163583Y0080356D01*
X0163852Y0079705D01*
X0164351Y0079207D01*
X0165002Y0078937D01*
X0165707Y0078937D01*
X0166358Y0079207D01*
X0166415Y0079263D01*
X0166929Y0079650D01*
X0167443Y0079263D01*
X0167500Y0079207D01*
X0168151Y0078937D01*
X0168856Y0078937D01*
X0169507Y0079207D01*
X0170006Y0079705D01*
X0170275Y0080356D01*
X0170275Y0081061D01*
X0170006Y0081712D01*
X0169507Y0082210D01*
X0168856Y0082480D01*
D02*
G37*
G36*
X0198384Y0091142D02*
X0197679Y0091142D01*
X0197028Y0090872D01*
X0196529Y0090374D01*
X0196260Y0089722D01*
X0196260Y0089018D01*
X0196529Y0088366D01*
X0197028Y0087868D01*
X0197179Y0087806D01*
X0197632Y0087309D01*
X0197560Y0086860D01*
X0197441Y0086573D01*
X0197441Y0085868D01*
X0197711Y0085217D01*
X0198209Y0084718D01*
X0198470Y0084611D01*
X0198498Y0084468D01*
X0198228Y0083817D01*
X0198228Y0083112D01*
X0198498Y0082461D01*
X0198996Y0081963D01*
X0199647Y0081693D01*
X0200352Y0081693D01*
X0201003Y0081963D01*
X0201502Y0082461D01*
X0201771Y0083112D01*
X0201771Y0083817D01*
X0201502Y0084468D01*
X0201003Y0084966D01*
X0200743Y0085074D01*
X0200714Y0085217D01*
X0200984Y0085868D01*
X0200984Y0086573D01*
X0200714Y0087224D01*
X0200216Y0087722D01*
X0200065Y0087785D01*
X0199611Y0088281D01*
X0199684Y0088730D01*
X0199803Y0089018D01*
X0199803Y0089722D01*
X0199533Y0090374D01*
X0199035Y0090872D01*
X0198384Y0091142D01*
D02*
G37*
G36*
X0074841Y0082782D02*
X0074136Y0082782D01*
X0073485Y0082512D01*
X0072987Y0082014D01*
X0072749Y0081439D01*
X0072355Y0081399D01*
X0071961Y0081439D01*
X0071723Y0082014D01*
X0071225Y0082512D01*
X0070574Y0082782D01*
X0069869Y0082782D01*
X0069218Y0082512D01*
X0068719Y0082014D01*
X0068450Y0081363D01*
X0068450Y0080658D01*
X0068719Y0080007D01*
X0069218Y0079508D01*
X0069869Y0079239D01*
X0070574Y0079239D01*
X0071225Y0079508D01*
X0071723Y0080007D01*
X0071961Y0080581D01*
X0072355Y0080621D01*
X0072749Y0080581D01*
X0072987Y0080007D01*
X0073485Y0079508D01*
X0074136Y0079239D01*
X0074841Y0079239D01*
X0075492Y0079508D01*
X0075991Y0080007D01*
X0076260Y0080658D01*
X0076260Y0081363D01*
X0075991Y0082014D01*
X0075492Y0082512D01*
X0074841Y0082782D01*
D02*
G37*
G36*
X0131258Y0082480D02*
X0130553Y0082480D01*
X0129902Y0082210D01*
X0129403Y0081712D01*
X0129283Y0081421D01*
X0129090Y0081336D01*
X0128406Y0081268D01*
X0128070Y0081604D01*
X0127419Y0081874D01*
X0126714Y0081874D01*
X0126063Y0081604D01*
X0125565Y0081106D01*
X0125295Y0080455D01*
X0125295Y0079750D01*
X0125565Y0079099D01*
X0126063Y0078600D01*
X0126714Y0078331D01*
X0127419Y0078331D01*
X0128070Y0078600D01*
X0128569Y0079099D01*
X0128689Y0079390D01*
X0128882Y0079475D01*
X0129566Y0079543D01*
X0129902Y0079207D01*
X0130553Y0078937D01*
X0131258Y0078937D01*
X0131909Y0079207D01*
X0132407Y0079705D01*
X0132677Y0080356D01*
X0132677Y0081061D01*
X0132407Y0081712D01*
X0131909Y0082210D01*
X0131258Y0082480D01*
D02*
G37*
G36*
X0121612Y0080905D02*
X0120907Y0080905D01*
X0120256Y0080636D01*
X0120199Y0080579D01*
X0119685Y0080192D01*
X0119170Y0080579D01*
X0119114Y0080636D01*
X0118463Y0080905D01*
X0117758Y0080905D01*
X0117107Y0080636D01*
X0116608Y0080137D01*
X0116339Y0079486D01*
X0116339Y0078781D01*
X0116608Y0078130D01*
X0117107Y0077632D01*
X0117758Y0077362D01*
X0118463Y0077362D01*
X0119114Y0077632D01*
X0119170Y0077689D01*
X0119685Y0078075D01*
X0120199Y0077689D01*
X0120256Y0077632D01*
X0120907Y0077362D01*
X0121612Y0077362D01*
X0122263Y0077632D01*
X0122762Y0078130D01*
X0123031Y0078781D01*
X0123031Y0079486D01*
X0122762Y0080137D01*
X0122263Y0080636D01*
X0121612Y0080905D01*
D02*
G37*
G36*
X0083817Y0080905D02*
X0083112Y0080905D01*
X0082461Y0080636D01*
X0082404Y0080579D01*
X0081890Y0080192D01*
X0081375Y0080579D01*
X0081318Y0080636D01*
X0080667Y0080905D01*
X0079962Y0080905D01*
X0079311Y0080636D01*
X0078813Y0080137D01*
X0078543Y0079486D01*
X0078543Y0078781D01*
X0078813Y0078130D01*
X0079311Y0077632D01*
X0079962Y0077362D01*
X0080667Y0077362D01*
X0081318Y0077632D01*
X0081375Y0077689D01*
X0081890Y0078075D01*
X0082404Y0077689D01*
X0082461Y0077632D01*
X0083112Y0077362D01*
X0083817Y0077362D01*
X0084468Y0077632D01*
X0084966Y0078130D01*
X0085236Y0078781D01*
X0085236Y0079486D01*
X0084966Y0080137D01*
X0084468Y0080636D01*
X0083817Y0080905D01*
D02*
G37*
G36*
X0159407Y0080905D02*
X0158703Y0080905D01*
X0158052Y0080636D01*
X0157995Y0080579D01*
X0157480Y0080192D01*
X0156966Y0080579D01*
X0156909Y0080636D01*
X0156258Y0080905D01*
X0155553Y0080905D01*
X0154902Y0080636D01*
X0154403Y0080137D01*
X0154134Y0079486D01*
X0154134Y0078781D01*
X0154403Y0078130D01*
X0154902Y0077632D01*
X0155553Y0077362D01*
X0156258Y0077362D01*
X0156909Y0077632D01*
X0156966Y0077689D01*
X0157480Y0078075D01*
X0157995Y0077689D01*
X0158052Y0077632D01*
X0158703Y0077362D01*
X0159407Y0077362D01*
X0160059Y0077632D01*
X0160557Y0078130D01*
X0160827Y0078781D01*
X0160827Y0079486D01*
X0160557Y0080137D01*
X0160059Y0080636D01*
X0159407Y0080905D01*
D02*
G37*
G36*
X0140510Y0080905D02*
X0139805Y0080905D01*
X0139154Y0080636D01*
X0139097Y0080579D01*
X0138583Y0080192D01*
X0138068Y0080579D01*
X0138011Y0080636D01*
X0137360Y0080905D01*
X0136655Y0080905D01*
X0136004Y0080636D01*
X0135506Y0080137D01*
X0135236Y0079486D01*
X0135236Y0078781D01*
X0135506Y0078130D01*
X0136004Y0077632D01*
X0136655Y0077362D01*
X0137360Y0077362D01*
X0138011Y0077632D01*
X0138068Y0077689D01*
X0138583Y0078075D01*
X0139097Y0077689D01*
X0139154Y0077632D01*
X0139805Y0077362D01*
X0140510Y0077362D01*
X0141161Y0077632D01*
X0141659Y0078130D01*
X0141929Y0078781D01*
X0141929Y0079486D01*
X0141659Y0080137D01*
X0141161Y0080636D01*
X0140510Y0080905D01*
D02*
G37*
G36*
X0064919Y0080905D02*
X0064214Y0080905D01*
X0063563Y0080636D01*
X0063506Y0080579D01*
X0062992Y0080192D01*
X0062478Y0080579D01*
X0062421Y0080636D01*
X0061770Y0080905D01*
X0061065Y0080905D01*
X0060414Y0080636D01*
X0059915Y0080137D01*
X0059645Y0079486D01*
X0059645Y0078781D01*
X0059915Y0078130D01*
X0060414Y0077632D01*
X0061065Y0077362D01*
X0061770Y0077362D01*
X0062421Y0077632D01*
X0062478Y0077689D01*
X0062992Y0078075D01*
X0063506Y0077689D01*
X0063563Y0077632D01*
X0064214Y0077362D01*
X0064919Y0077362D01*
X0065570Y0077632D01*
X0066069Y0078130D01*
X0066338Y0078781D01*
X0066338Y0079486D01*
X0066069Y0080137D01*
X0065570Y0080636D01*
X0064919Y0080905D01*
D02*
G37*
G36*
X0103073Y0080679D02*
X0102368Y0080679D01*
X0101717Y0080409D01*
X0101219Y0079911D01*
X0100384Y0079911D01*
X0099885Y0080409D01*
X0099234Y0080679D01*
X0098529Y0080679D01*
X0097878Y0080409D01*
X0097380Y0079911D01*
X0097110Y0079260D01*
X0097110Y0078555D01*
X0097380Y0077904D01*
X0097878Y0077405D01*
X0098529Y0077136D01*
X0099234Y0077136D01*
X0099885Y0077405D01*
X0100384Y0077904D01*
X0101219Y0077904D01*
X0101717Y0077405D01*
X0102368Y0077136D01*
X0103073Y0077136D01*
X0103724Y0077405D01*
X0104222Y0077904D01*
X0104492Y0078555D01*
X0104492Y0079260D01*
X0104222Y0079911D01*
X0103724Y0080409D01*
X0103073Y0080679D01*
D02*
G37*
G36*
X0108184Y0082948D02*
X0107479Y0082948D01*
X0106828Y0082679D01*
X0106330Y0082180D01*
X0106060Y0081529D01*
X0106060Y0080824D01*
X0106330Y0080173D01*
X0106828Y0079675D01*
X0107479Y0079405D01*
X0108184Y0079405D01*
X0108835Y0079675D01*
X0109334Y0080173D01*
X0109603Y0080824D01*
X0109603Y0081529D01*
X0109334Y0082180D01*
X0108835Y0082679D01*
X0108184Y0082948D01*
D02*
G37*
G36*
X0112605Y0082779D02*
X0111901Y0082779D01*
X0111249Y0082510D01*
X0110751Y0082011D01*
X0110481Y0081360D01*
X0110481Y0080655D01*
X0110751Y0080004D01*
X0111249Y0079506D01*
X0111901Y0079236D01*
X0112605Y0079236D01*
X0113257Y0079506D01*
X0113755Y0080004D01*
X0114025Y0080655D01*
X0114025Y0081360D01*
X0113755Y0082011D01*
X0113257Y0082510D01*
X0112605Y0082779D01*
D02*
G37*
G36*
X0045726Y0082328D02*
X0045021Y0082328D01*
X0044370Y0082058D01*
X0043872Y0081560D01*
X0043602Y0080909D01*
X0043602Y0080204D01*
X0043872Y0079553D01*
X0044370Y0079055D01*
X0045021Y0078785D01*
X0045726Y0078785D01*
X0046377Y0079055D01*
X0046876Y0079553D01*
X0047145Y0080204D01*
X0047145Y0080909D01*
X0046876Y0081560D01*
X0046377Y0082058D01*
X0045726Y0082328D01*
D02*
G37*
G36*
X0177518Y0083268D02*
X0176813Y0083268D01*
X0176162Y0082998D01*
X0175663Y0082500D01*
X0175393Y0081848D01*
X0175393Y0081633D01*
X0175214Y0081085D01*
X0174666Y0080905D01*
X0174451Y0080905D01*
X0173800Y0080636D01*
X0173301Y0080137D01*
X0173031Y0079486D01*
X0173031Y0078781D01*
X0173301Y0078130D01*
X0173800Y0077632D01*
X0174451Y0077362D01*
X0175155Y0077362D01*
X0175807Y0077632D01*
X0176305Y0078130D01*
X0176575Y0078781D01*
X0176575Y0078997D01*
X0176754Y0079545D01*
X0177302Y0079724D01*
X0177518Y0079724D01*
X0178169Y0079994D01*
X0178667Y0080492D01*
X0178937Y0081144D01*
X0178937Y0081848D01*
X0178667Y0082500D01*
X0178169Y0082998D01*
X0177518Y0083268D01*
D02*
G37*
G36*
X0189833Y0074980D02*
X0189128Y0074980D01*
X0188477Y0074711D01*
X0187979Y0074212D01*
X0187709Y0073561D01*
X0187709Y0072857D01*
X0187979Y0072205D01*
X0188477Y0071707D01*
X0189128Y0071437D01*
X0189833Y0071437D01*
X0190484Y0071707D01*
X0190983Y0072205D01*
X0191252Y0072857D01*
X0191252Y0073561D01*
X0190983Y0074212D01*
X0190484Y0074711D01*
X0189833Y0074980D01*
D02*
G37*
G36*
X0185109Y0074980D02*
X0184404Y0074980D01*
X0183753Y0074711D01*
X0183254Y0074212D01*
X0182985Y0073561D01*
X0182985Y0072857D01*
X0183254Y0072205D01*
X0183753Y0071707D01*
X0184404Y0071437D01*
X0185109Y0071437D01*
X0185760Y0071707D01*
X0186258Y0072205D01*
X0186528Y0072857D01*
X0186528Y0073561D01*
X0186258Y0074212D01*
X0185760Y0074711D01*
X0185109Y0074980D01*
D02*
G37*
G36*
X0194259Y0074917D02*
X0193554Y0074917D01*
X0192903Y0074648D01*
X0192405Y0074149D01*
X0192135Y0073498D01*
X0192135Y0072793D01*
X0192405Y0072142D01*
X0192903Y0071644D01*
X0193554Y0071374D01*
X0194259Y0071374D01*
X0194910Y0071644D01*
X0195409Y0072142D01*
X0195678Y0072793D01*
X0195678Y0073498D01*
X0195409Y0074149D01*
X0194910Y0074648D01*
X0194259Y0074917D01*
D02*
G37*
G36*
X0044055Y0071850D02*
X0043350Y0071850D01*
X0042699Y0071581D01*
X0042201Y0071082D01*
X0041931Y0070431D01*
X0041931Y0069726D01*
X0042201Y0069075D01*
X0042699Y0068577D01*
X0043350Y0068307D01*
X0044055Y0068307D01*
X0044707Y0068577D01*
X0045205Y0069075D01*
X0045475Y0069726D01*
X0045475Y0070431D01*
X0045205Y0071082D01*
X0044707Y0071581D01*
X0044055Y0071850D01*
D02*
G37*
%LPD*%
D20*
X0037008Y0090551D02*
D03*
D16*
X0037008Y0067520D02*
D03*
D19*
X0037008Y0116929D02*
D03*
D27*
X0202756Y0066929D02*
D03*
D18*
X0037008Y0164370D02*
D03*
D17*
X0037008Y0196653D02*
D03*
D22*
X0049606Y0220472D02*
D03*
D23*
X0083071Y0220472D02*
D03*
D24*
X0121850Y0220472D02*
D03*
D26*
X0202756Y0089173D02*
D03*
D25*
X0202756Y0214567D02*
D03*
D21*
X0044094Y0063386D02*
D03*
D10*
X0093701Y0177915D02*
D03*
X0101968Y0184252D02*
D03*
X0101861Y0179835D02*
D03*
X0039206Y0125500D02*
D03*
X0053454Y0156949D02*
D03*
X0108809Y0090748D02*
D03*
X0066257Y0206860D02*
D03*
X0076771Y0200390D02*
D03*
X0093209Y0193110D02*
D03*
X0124801Y0174801D02*
D03*
X0132283Y0157480D02*
D03*
X0127559Y0152756D02*
D03*
X0192913Y0153248D02*
D03*
X0155905Y0158116D02*
D03*
X0176987Y0204706D02*
D03*
X0153260Y0210017D02*
D03*
X0192353Y0210111D02*
D03*
X0199230Y0201151D02*
D03*
X0169301Y0191015D02*
D03*
X0183070Y0088976D02*
D03*
X0167716Y0176378D02*
D03*
X0167716Y0166929D02*
D03*
X0161811Y0174015D02*
D03*
X0155905Y0190551D02*
D03*
X0147637Y0188189D02*
D03*
X0141732Y0190551D02*
D03*
X0140551Y0155118D02*
D03*
X0141732Y0148031D02*
D03*
X0129921Y0190551D02*
D03*
X0125196Y0195275D02*
D03*
X0047244Y0204724D02*
D03*
X0185293Y0178138D02*
D03*
X0109547Y0191732D02*
D03*
X0052165Y0092126D02*
D03*
X0038189Y0091732D02*
D03*
X0079702Y0217323D02*
D03*
X0111024Y0184252D02*
D03*
X0122835Y0186220D02*
D03*
X0077060Y0219426D02*
D03*
X0112376Y0199791D02*
D03*
X0044882Y0218898D02*
D03*
X0047638Y0188189D02*
D03*
X0038583Y0201575D02*
D03*
X0038779Y0205512D02*
D03*
X0078467Y0143549D02*
D03*
X0177069Y0177264D02*
D03*
X0112598Y0148031D02*
D03*
X0123228Y0157874D02*
D03*
X0191831Y0144587D02*
D03*
X0109449Y0179134D02*
D03*
X0103543Y0123622D02*
D03*
X0130468Y0135832D02*
D03*
X0152147Y0134187D02*
D03*
X0038606Y0068160D02*
D03*
X0057357Y0171011D02*
D03*
X0059771Y0182404D02*
D03*
X0044132Y0064485D02*
D03*
X0123585Y0218370D02*
D03*
X0155378Y0172999D02*
D03*
X0101866Y0200910D02*
D03*
X0132538Y0210685D02*
D03*
X0146604Y0091142D02*
D03*
X0116633Y0209744D02*
D03*
X0077953Y0159449D02*
D03*
X0114259Y0218434D02*
D03*
X0055708Y0218898D02*
D03*
X0038189Y0166535D02*
D03*
X0201575Y0067323D02*
D03*
X0201181Y0212598D02*
D03*
X0054009Y0133899D02*
D03*
X0169181Y0122838D02*
D03*
X0184252Y0128346D02*
D03*
X0061516Y0149606D02*
D03*
X0103445Y0148481D02*
D03*
X0093649Y0160433D02*
D03*
X0177260Y0156678D02*
D03*
X0193688Y0101115D02*
D03*
X0196850Y0092520D02*
D03*
X0188838Y0111023D02*
D03*
X0088582Y0144685D02*
D03*
X0088778Y0193834D02*
D03*
X0088765Y0201599D02*
D03*
X0043307Y0162205D02*
D03*
X0044510Y0182411D02*
D03*
X0050394Y0176734D02*
D03*
X0082724Y0128642D02*
D03*
X0078013Y0131698D02*
D03*
X0078051Y0149606D02*
D03*
X0061516Y0156693D02*
D03*
X0061516Y0142520D02*
D03*
X0061516Y0135433D02*
D03*
X0069564Y0135219D02*
D03*
X0069291Y0158268D02*
D03*
X0200000Y0079527D02*
D03*
X0192519Y0066142D02*
D03*
X0183071Y0066142D02*
D03*
X0187795Y0066142D02*
D03*
X0197244Y0066142D02*
D03*
X0165502Y0091142D02*
D03*
X0127707Y0091142D02*
D03*
X0089911Y0091142D02*
D03*
X0071014Y0091142D02*
D03*
M02*
