G75*
G70*
%OFA0B0*%
%FSLAX25Y25*%
%IPPOS*%
%LPD*%
%AMOC8*
5,1,8,0,0,1.08239X$1,22.5*
%
%AMM17*
21,1,0.039370,0.030320,0.000000,0.000000,90.000000*
21,1,0.028350,0.041340,0.000000,0.000000,90.000000*
1,1,0.011020,0.015160,0.014170*
1,1,0.011020,0.015160,-0.014170*
1,1,0.011020,-0.015160,-0.014170*
1,1,0.011020,-0.015160,0.014170*
%
%AMM23*
21,1,0.031500,0.018900,0.000000,0.000000,180.000000*
21,1,0.022840,0.027560,0.000000,0.000000,180.000000*
1,1,0.008660,-0.011420,0.009450*
1,1,0.008660,0.011420,0.009450*
1,1,0.008660,0.011420,-0.009450*
1,1,0.008660,-0.011420,-0.009450*
%
%AMM26*
21,1,0.029530,0.026380,0.000000,0.000000,90.000000*
21,1,0.020470,0.035430,0.000000,0.000000,90.000000*
1,1,0.009060,0.013190,0.010240*
1,1,0.009060,0.013190,-0.010240*
1,1,0.009060,-0.013190,-0.010240*
1,1,0.009060,-0.013190,0.010240*
%
%AMM27*
21,1,0.021650,0.027950,0.000000,0.000000,90.000000*
21,1,0.014170,0.035430,0.000000,0.000000,90.000000*
1,1,0.007480,0.013980,0.007090*
1,1,0.007480,0.013980,-0.007090*
1,1,0.007480,-0.013980,-0.007090*
1,1,0.007480,-0.013980,0.007090*
%
%AMM29*
21,1,0.016540,0.028980,0.000000,0.000000,90.000000*
21,1,0.010080,0.035430,0.000000,0.000000,90.000000*
1,1,0.006460,0.014490,0.005040*
1,1,0.006460,0.014490,-0.005040*
1,1,0.006460,-0.014490,-0.005040*
1,1,0.006460,-0.014490,0.005040*
%
%AMM32*
21,1,0.031500,0.018900,0.000000,0.000000,90.000000*
21,1,0.022840,0.027560,0.000000,0.000000,90.000000*
1,1,0.008660,0.009450,0.011420*
1,1,0.008660,0.009450,-0.011420*
1,1,0.008660,-0.009450,-0.011420*
1,1,0.008660,-0.009450,0.011420*
%
%AMM46*
21,1,0.037400,0.026770,0.000000,0.000000,180.000000*
21,1,0.026770,0.037400,0.000000,0.000000,180.000000*
1,1,0.010630,-0.013390,0.013390*
1,1,0.010630,0.013390,0.013390*
1,1,0.010630,0.013390,-0.013390*
1,1,0.010630,-0.013390,-0.013390*
%
%AMM47*
21,1,0.039370,0.030320,0.000000,0.000000,180.000000*
21,1,0.028350,0.041340,0.000000,0.000000,180.000000*
1,1,0.011020,-0.014170,0.015160*
1,1,0.011020,0.014170,0.015160*
1,1,0.011020,0.014170,-0.015160*
1,1,0.011020,-0.014170,-0.015160*
%
%AMM48*
21,1,0.039760,0.026770,0.000000,0.000000,0.000000*
21,1,0.029130,0.037400,0.000000,0.000000,0.000000*
1,1,0.010630,0.014570,-0.013390*
1,1,0.010630,-0.014570,-0.013390*
1,1,0.010630,-0.014570,0.013390*
1,1,0.010630,0.014570,0.013390*
%
%AMM49*
21,1,0.074800,0.036220,0.000000,0.000000,0.000000*
21,1,0.061810,0.049210,0.000000,0.000000,0.000000*
1,1,0.012990,0.030910,-0.018110*
1,1,0.012990,-0.030910,-0.018110*
1,1,0.012990,-0.030910,0.018110*
1,1,0.012990,0.030910,0.018110*
%
%AMM50*
21,1,0.062990,0.020470,0.000000,0.000000,90.000000*
21,1,0.053940,0.029530,0.000000,0.000000,90.000000*
1,1,0.009060,0.010240,0.026970*
1,1,0.009060,0.010240,-0.026970*
1,1,0.009060,-0.010240,-0.026970*
1,1,0.009060,-0.010240,0.026970*
%
%AMM51*
21,1,0.082680,0.045670,0.000000,0.000000,90.000000*
21,1,0.067320,0.061020,0.000000,0.000000,90.000000*
1,1,0.015350,0.022840,0.033660*
1,1,0.015350,0.022840,-0.033660*
1,1,0.015350,-0.022840,-0.033660*
1,1,0.015350,-0.022840,0.033660*
%
%AMM52*
21,1,0.029530,0.026380,0.000000,0.000000,0.000000*
21,1,0.020470,0.035430,0.000000,0.000000,0.000000*
1,1,0.009060,0.010240,-0.013190*
1,1,0.009060,-0.010240,-0.013190*
1,1,0.009060,-0.010240,0.013190*
1,1,0.009060,0.010240,0.013190*
%
%AMM53*
21,1,0.021650,0.027950,0.000000,0.000000,0.000000*
21,1,0.014170,0.035430,0.000000,0.000000,0.000000*
1,1,0.007480,0.007090,-0.013980*
1,1,0.007480,-0.007090,-0.013980*
1,1,0.007480,-0.007090,0.013980*
1,1,0.007480,0.007090,0.013980*
%
%AMM54*
21,1,0.031500,0.030710,0.000000,0.000000,90.000000*
21,1,0.022050,0.040160,0.000000,0.000000,90.000000*
1,1,0.009450,0.015350,0.011020*
1,1,0.009450,0.015350,-0.011020*
1,1,0.009450,-0.015350,-0.011020*
1,1,0.009450,-0.015350,0.011020*
%
%AMM55*
21,1,0.031500,0.049610,0.000000,0.000000,270.000000*
21,1,0.022050,0.059060,0.000000,0.000000,270.000000*
1,1,0.009450,-0.024800,-0.011020*
1,1,0.009450,-0.024800,0.011020*
1,1,0.009450,0.024800,0.011020*
1,1,0.009450,0.024800,-0.011020*
%
%AMM56*
21,1,0.031500,0.030710,0.000000,0.000000,0.000000*
21,1,0.022050,0.040160,0.000000,0.000000,0.000000*
1,1,0.009450,0.011020,-0.015350*
1,1,0.009450,-0.011020,-0.015350*
1,1,0.009450,-0.011020,0.015350*
1,1,0.009450,0.011020,0.015350*
%
%AMM57*
21,1,0.074800,0.036220,0.000000,0.000000,90.000000*
21,1,0.061810,0.049210,0.000000,0.000000,90.000000*
1,1,0.012990,0.018110,0.030910*
1,1,0.012990,0.018110,-0.030910*
1,1,0.012990,-0.018110,-0.030910*
1,1,0.012990,-0.018110,0.030910*
%
%AMM58*
21,1,0.037400,0.026770,0.000000,0.000000,270.000000*
21,1,0.026770,0.037400,0.000000,0.000000,270.000000*
1,1,0.010630,-0.013390,-0.013390*
1,1,0.010630,-0.013390,0.013390*
1,1,0.010630,0.013390,0.013390*
1,1,0.010630,0.013390,-0.013390*
%
%ADD10C,0.02362*%
%ADD120M46*%
%ADD121M47*%
%ADD122M48*%
%ADD123R,0.04331X0.04724*%
%ADD124M49*%
%ADD125M50*%
%ADD126M51*%
%ADD127R,0.09843X0.07087*%
%ADD128M52*%
%ADD129M53*%
%ADD130M54*%
%ADD131M55*%
%ADD132M56*%
%ADD133M57*%
%ADD134M58*%
%ADD135O,0.05354X0.01378*%
%ADD136R,0.01378X0.01772*%
%ADD137R,0.01772X0.01378*%
%ADD70M17*%
%ADD77M23*%
%ADD81M26*%
%ADD82M27*%
%ADD86M29*%
%ADD92M32*%
%ADD93C,0.04294*%
%ADD94C,0.04724*%
%ADD95C,0.05906*%
X0000000Y0000000D02*
%LPD*%
G01*
D10*
X0094882Y0046654D03*
X0094882Y0041929D03*
X0094882Y0051378D03*
X0094882Y0056102D03*
X0038091Y0030669D03*
X0038091Y0026732D03*
X0036614Y0019488D02*
%LPD*%
G01*
D10*
X0094882Y0046653D03*
X0094882Y0041929D03*
X0094882Y0051378D03*
X0094882Y0056102D03*
X0038090Y0030669D03*
X0038090Y0026732D03*
X0036614Y0062992D02*
G01*
G75*
D70*
X0048229Y0164234D02*
D03*
X0057481Y0167974D02*
D03*
D70*
X0048229Y0171715D02*
D03*
D77*
X0068307Y0114960D02*
D03*
X0068307Y0118897D02*
D03*
X0188976Y0157874D02*
D03*
X0188976Y0153937D02*
D03*
X0065256Y0217126D02*
D03*
X0065256Y0213189D02*
D03*
X0098439Y0139764D02*
D03*
X0098439Y0135827D02*
D03*
X0115344Y0139692D02*
D03*
X0115344Y0143629D02*
D03*
X0093307Y0136220D02*
D03*
X0093307Y0140157D02*
D03*
X0042113Y0119808D02*
D03*
X0042113Y0115871D02*
D03*
X0059842Y0188976D02*
D03*
X0059842Y0185039D02*
D03*
X0039370Y0208071D02*
D03*
X0039370Y0212008D02*
D03*
X0171260Y0132283D02*
D03*
X0171260Y0128346D02*
D03*
X0097638Y0196850D02*
D03*
X0097638Y0200787D02*
D03*
X0127855Y0130413D02*
D03*
X0127855Y0134350D02*
D03*
X0116830Y0211713D02*
D03*
X0116830Y0215649D02*
D03*
X0169685Y0144094D02*
D03*
X0169685Y0140157D02*
D03*
X0173622Y0144094D02*
D03*
X0173622Y0140157D02*
D03*
X0043504Y0208071D02*
D03*
X0043504Y0212008D02*
D03*
X0180512Y0159449D02*
D03*
X0180512Y0155512D02*
D03*
X0180315Y0181890D02*
D03*
X0180315Y0177953D02*
D03*
X0132185Y0130413D02*
D03*
X0132185Y0134350D02*
D03*
X0135827Y0216929D02*
D03*
X0135827Y0212992D02*
D03*
X0097638Y0167323D02*
D03*
X0097638Y0171260D02*
D03*
X0097638Y0163779D02*
D03*
X0097638Y0159842D02*
D03*
X0084252Y0087401D02*
D03*
X0084252Y0083464D02*
D03*
X0088976Y0087401D02*
D03*
X0088976Y0083464D02*
D03*
X0093701Y0087401D02*
D03*
X0093701Y0083464D02*
D03*
X0098425Y0087401D02*
D03*
X0098425Y0083464D02*
D03*
X0183071Y0068110D02*
D03*
X0183071Y0072047D02*
D03*
X0187795Y0072047D02*
D03*
X0187795Y0068110D02*
D03*
X0192519Y0068110D02*
D03*
X0192519Y0072047D02*
D03*
X0197244Y0068110D02*
D03*
X0197244Y0072047D02*
D03*
X0064370Y0114960D02*
D03*
X0064370Y0118897D02*
D03*
X0092323Y0114960D02*
D03*
X0092323Y0118897D02*
D03*
X0060630Y0087401D02*
D03*
X0060630Y0083464D02*
D03*
X0055906Y0087401D02*
D03*
X0055906Y0083464D02*
D03*
X0051181Y0087401D02*
D03*
X0051181Y0083464D02*
D03*
X0046457Y0087401D02*
D03*
X0046457Y0083464D02*
D03*
X0079528Y0087401D02*
D03*
X0079528Y0083464D02*
D03*
X0074803Y0087401D02*
D03*
X0074803Y0083464D02*
D03*
X0070079Y0087401D02*
D03*
X0070079Y0083464D02*
D03*
X0065354Y0087401D02*
D03*
X0065354Y0083464D02*
D03*
X0117323Y0087401D02*
D03*
X0117323Y0083464D02*
D03*
X0112599Y0087401D02*
D03*
X0112599Y0083464D02*
D03*
X0107874Y0087401D02*
D03*
X0107874Y0083464D02*
D03*
X0103150Y0087401D02*
D03*
X0103150Y0083464D02*
D03*
X0136221Y0083464D02*
D03*
X0136221Y0087401D02*
D03*
X0131496Y0087401D02*
D03*
X0131496Y0083464D02*
D03*
X0126772Y0087401D02*
D03*
X0126772Y0083464D02*
D03*
X0122047Y0087401D02*
D03*
X0122047Y0083464D02*
D03*
X0155118Y0087401D02*
D03*
X0155118Y0083464D02*
D03*
X0150394Y0087401D02*
D03*
X0150394Y0083464D02*
D03*
X0145669Y0087401D02*
D03*
X0145669Y0083464D02*
D03*
X0140945Y0087401D02*
D03*
X0140945Y0083464D02*
D03*
X0169291Y0087401D02*
D03*
X0169291Y0083464D02*
D03*
X0164567Y0087401D02*
D03*
X0164567Y0083464D02*
D03*
X0159842Y0087401D02*
D03*
X0159842Y0083464D02*
D03*
X0041338Y0078149D02*
D03*
X0041338Y0082086D02*
D03*
X0178347Y0072047D02*
D03*
X0178347Y0068110D02*
D03*
X0092323Y0104724D02*
D03*
X0092323Y0108661D02*
D03*
X0179921Y0083464D02*
D03*
X0179921Y0087401D02*
D03*
X0041338Y0070472D02*
D03*
X0041338Y0074409D02*
D03*
X0179921Y0079527D02*
D03*
X0179921Y0075590D02*
D03*
X0185039Y0209842D02*
D03*
X0185039Y0205905D02*
D03*
X0174016Y0087401D02*
D03*
X0174016Y0083464D02*
D03*
D81*
X0074016Y0179823D02*
D03*
X0081102Y0179823D02*
D03*
X0081102Y0169783D02*
D03*
X0074016Y0169783D02*
D03*
X0088583Y0131594D02*
D03*
X0081496Y0131594D02*
D03*
X0081496Y0141634D02*
D03*
X0088583Y0141634D02*
D03*
X0088583Y0147736D02*
D03*
X0081496Y0147736D02*
D03*
X0081496Y0157776D02*
D03*
X0088583Y0157776D02*
D03*
X0184055Y0111909D02*
D03*
X0176968Y0111909D02*
D03*
X0176968Y0101870D02*
D03*
X0184055Y0101870D02*
D03*
X0165551Y0101870D02*
D03*
X0172638Y0101870D02*
D03*
X0172638Y0111909D02*
D03*
X0165551Y0111909D02*
D03*
X0115551Y0111909D02*
D03*
X0108465Y0111909D02*
D03*
X0108465Y0101870D02*
D03*
X0115551Y0101870D02*
D03*
X0097047Y0101870D02*
D03*
X0104134Y0101870D02*
D03*
X0104134Y0111909D02*
D03*
X0097047Y0111909D02*
D03*
X0138386Y0111909D02*
D03*
X0131299Y0111909D02*
D03*
X0131299Y0101870D02*
D03*
X0138386Y0101870D02*
D03*
X0119882Y0101870D02*
D03*
X0126969Y0101870D02*
D03*
X0126969Y0111909D02*
D03*
X0119882Y0111909D02*
D03*
X0161221Y0111909D02*
D03*
X0154134Y0111909D02*
D03*
X0154134Y0101870D02*
D03*
X0161221Y0101870D02*
D03*
X0142717Y0101870D02*
D03*
X0149803Y0101870D02*
D03*
X0149803Y0111909D02*
D03*
X0142717Y0111909D02*
D03*
D82*
X0081102Y0173228D02*
D03*
X0081102Y0176378D02*
D03*
X0074016Y0176378D02*
D03*
X0074016Y0173228D02*
D03*
X0081496Y0138189D02*
D03*
X0081496Y0135039D02*
D03*
X0088583Y0135039D02*
D03*
X0088583Y0138189D02*
D03*
X0081496Y0154331D02*
D03*
X0081496Y0151181D02*
D03*
X0088583Y0151181D02*
D03*
X0088583Y0154331D02*
D03*
X0184055Y0108464D02*
D03*
X0184055Y0105315D02*
D03*
X0176968Y0105315D02*
D03*
X0176968Y0108464D02*
D03*
X0165551Y0105315D02*
D03*
X0165551Y0108464D02*
D03*
X0172638Y0108464D02*
D03*
X0172638Y0105315D02*
D03*
X0115551Y0108464D02*
D03*
X0115551Y0105315D02*
D03*
X0108465Y0105315D02*
D03*
X0108465Y0108464D02*
D03*
X0097047Y0105315D02*
D03*
X0097047Y0108464D02*
D03*
X0104134Y0108464D02*
D03*
X0104134Y0105315D02*
D03*
X0138386Y0108464D02*
D03*
X0138386Y0105315D02*
D03*
X0131299Y0105315D02*
D03*
X0131299Y0108464D02*
D03*
X0119882Y0105315D02*
D03*
X0119882Y0108464D02*
D03*
X0126969Y0108464D02*
D03*
X0126969Y0105315D02*
D03*
X0161221Y0108464D02*
D03*
X0161221Y0105315D02*
D03*
X0154134Y0105315D02*
D03*
X0154134Y0108464D02*
D03*
X0142717Y0105315D02*
D03*
X0142717Y0108464D02*
D03*
X0149803Y0108464D02*
D03*
X0149803Y0105315D02*
D03*
D86*
X0062008Y0173819D02*
D03*
X0062008Y0176378D02*
D03*
X0062008Y0178937D02*
D03*
X0069488Y0178937D02*
D03*
X0069488Y0173819D02*
D03*
D92*
X0080315Y0214370D02*
D03*
X0076378Y0214370D02*
D03*
X0196457Y0198622D02*
D03*
X0192519Y0198622D02*
D03*
X0055357Y0193801D02*
D03*
X0059294Y0193801D02*
D03*
X0077953Y0187795D02*
D03*
X0074016Y0187795D02*
D03*
X0068897Y0183858D02*
D03*
X0072834Y0183858D02*
D03*
X0177953Y0133071D02*
D03*
X0181890Y0133071D02*
D03*
X0108661Y0214961D02*
D03*
X0112598Y0214961D02*
D03*
X0177362Y0202756D02*
D03*
X0181299Y0202756D02*
D03*
X0150000Y0213779D02*
D03*
X0153937Y0213779D02*
D03*
X0105524Y0126970D02*
D03*
X0101587Y0126970D02*
D03*
X0096260Y0149606D02*
D03*
X0100197Y0149606D02*
D03*
X0106299Y0148031D02*
D03*
X0110236Y0148031D02*
D03*
X0105512Y0176378D02*
D03*
X0109449Y0176378D02*
D03*
X0200787Y0216535D02*
D03*
X0196850Y0216535D02*
D03*
X0087598Y0215551D02*
D03*
X0083661Y0215551D02*
D03*
X0069685Y0201181D02*
D03*
X0073622Y0201181D02*
D03*
X0180709Y0139370D02*
D03*
X0184646Y0139370D02*
D03*
X0180709Y0143307D02*
D03*
X0184646Y0143307D02*
D03*
X0181299Y0206693D02*
D03*
X0177362Y0206693D02*
D03*
X0154232Y0130807D02*
D03*
X0150295Y0130807D02*
D03*
X0097638Y0175984D02*
D03*
X0101575Y0175984D02*
D03*
X0097638Y0144291D02*
D03*
X0101575Y0144291D02*
D03*
X0105905Y0199606D02*
D03*
X0109842Y0199606D02*
D03*
X0105118Y0184252D02*
D03*
X0109055Y0184252D02*
D03*
X0119980Y0130413D02*
D03*
X0123917Y0130413D02*
D03*
X0174213Y0118110D02*
D03*
X0170276Y0118110D02*
D03*
X0105709Y0118110D02*
D03*
X0101772Y0118110D02*
D03*
X0128543Y0118110D02*
D03*
X0124606Y0118110D02*
D03*
X0151378Y0118110D02*
D03*
X0147441Y0118110D02*
D03*
X0112205Y0094094D02*
D03*
X0108268Y0094094D02*
D03*
X0057153Y0097638D02*
D03*
X0061090Y0097638D02*
D03*
X0047964Y0097638D02*
D03*
X0044027Y0097638D02*
D03*
X0081957Y0097638D02*
D03*
X0085894Y0097638D02*
D03*
X0072768Y0097638D02*
D03*
X0068831Y0097638D02*
D03*
X0044488Y0179527D02*
D03*
X0040551Y0179527D02*
D03*
X0050394Y0179527D02*
D03*
X0054331Y0179527D02*
D03*
X0087402Y0091338D02*
D03*
X0083465Y0091338D02*
D03*
X0040551Y0129134D02*
D03*
X0044488Y0129134D02*
D03*
X0040551Y0141535D02*
D03*
X0044488Y0141535D02*
D03*
X0040551Y0145669D02*
D03*
X0044488Y0145669D02*
D03*
X0040551Y0153937D02*
D03*
X0044488Y0153937D02*
D03*
X0040551Y0149803D02*
D03*
X0044488Y0149803D02*
D03*
X0040551Y0158071D02*
D03*
X0044488Y0158071D02*
D03*
X0040551Y0137402D02*
D03*
X0044488Y0137402D02*
D03*
X0040551Y0133268D02*
D03*
X0044488Y0133268D02*
D03*
D93*
X0092362Y0212933D02*
D03*
X0072362Y0208933D02*
D03*
X0072362Y0216933D02*
D03*
D94*
X0130709Y0124409D02*
D03*
X0177953Y0128740D02*
D03*
X0172835Y0124016D02*
D03*
X0161023Y0124016D02*
D03*
X0149606Y0124016D02*
D03*
X0113386Y0124016D02*
D03*
X0096456Y0125197D02*
D03*
D95*
X0040945Y0216535D02*
D03*
D120*
X0090591Y0180512D02*
D03*
X0096811Y0180512D02*
D03*
D121*
X0193194Y0190863D02*
D03*
X0196934Y0181611D02*
D03*
X0110765Y0133112D02*
D03*
X0107025Y0142364D02*
D03*
X0047244Y0193976D02*
D03*
X0043504Y0203228D02*
D03*
X0052953Y0207401D02*
D03*
X0056693Y0198150D02*
D03*
X0189567Y0099016D02*
D03*
X0193307Y0089764D02*
D03*
X0193307Y0104659D02*
D03*
X0189567Y0113911D02*
D03*
X0189567Y0128806D02*
D03*
X0193307Y0119554D02*
D03*
X0188780Y0143701D02*
D03*
X0192520Y0134449D02*
D03*
D121*
X0189454Y0181611D02*
D03*
X0103285Y0133112D02*
D03*
X0039764Y0193976D02*
D03*
X0060433Y0207402D02*
D03*
X0197047Y0099016D02*
D03*
X0197047Y0113911D02*
D03*
X0197047Y0128806D02*
D03*
X0196260Y0143701D02*
D03*
D122*
X0040945Y0186614D02*
D03*
X0053937Y0186614D02*
D03*
X0078346Y0196850D02*
D03*
X0091339Y0196850D02*
D03*
D123*
X0073425Y0195275D02*
D03*
X0066732Y0195275D02*
D03*
D124*
X0195669Y0157480D02*
D03*
X0195669Y0168897D02*
D03*
D125*
X0133740Y0168516D02*
D03*
X0138071Y0168516D02*
D03*
X0142402Y0168516D02*
D03*
X0146732Y0168516D02*
D03*
X0151063Y0168516D02*
D03*
X0155394Y0168516D02*
D03*
X0159725Y0168516D02*
D03*
X0164055Y0168516D02*
D03*
D126*
X0173425Y0158280D02*
D03*
X0173425Y0190957D02*
D03*
X0119292Y0190957D02*
D03*
X0119292Y0158280D02*
D03*
D127*
X0108662Y0169488D02*
D03*
X0108662Y0154921D02*
D03*
D128*
X0155217Y0145669D02*
D03*
X0155217Y0138583D02*
D03*
X0165256Y0138583D02*
D03*
X0165256Y0145669D02*
D03*
X0086319Y0070669D02*
D03*
X0086319Y0077756D02*
D03*
X0096358Y0077756D02*
D03*
X0096358Y0070669D02*
D03*
X0058169Y0105118D02*
D03*
X0058169Y0112205D02*
D03*
X0048130Y0112205D02*
D03*
X0048130Y0105118D02*
D03*
X0048130Y0123622D02*
D03*
X0048130Y0116535D02*
D03*
X0058169Y0116535D02*
D03*
X0058169Y0123622D02*
D03*
X0086122Y0105118D02*
D03*
X0086122Y0112205D02*
D03*
X0076083Y0112205D02*
D03*
X0076083Y0105118D02*
D03*
X0076083Y0123622D02*
D03*
X0076083Y0116535D02*
D03*
X0086122Y0116535D02*
D03*
X0086122Y0123622D02*
D03*
X0048524Y0070669D02*
D03*
X0048524Y0077756D02*
D03*
X0058563Y0077756D02*
D03*
X0058563Y0070669D02*
D03*
X0067421Y0070669D02*
D03*
X0067421Y0077756D02*
D03*
X0077460Y0077756D02*
D03*
X0077460Y0070669D02*
D03*
X0105216Y0070669D02*
D03*
X0105216Y0077756D02*
D03*
X0115256Y0077756D02*
D03*
X0115256Y0070669D02*
D03*
X0124114Y0070669D02*
D03*
X0124114Y0077756D02*
D03*
X0134154Y0077756D02*
D03*
X0134154Y0070669D02*
D03*
X0143012Y0070669D02*
D03*
X0143012Y0077756D02*
D03*
X0153051Y0077756D02*
D03*
X0153051Y0070669D02*
D03*
X0161909Y0070669D02*
D03*
X0161909Y0077756D02*
D03*
X0171949Y0077756D02*
D03*
X0171949Y0070669D02*
D03*
X0195177Y0076378D02*
D03*
X0195177Y0083464D02*
D03*
X0185138Y0083464D02*
D03*
X0185138Y0076378D02*
D03*
D129*
X0158661Y0145669D02*
D03*
X0161811Y0145669D02*
D03*
X0161811Y0138583D02*
D03*
X0158661Y0138583D02*
D03*
X0092913Y0077756D02*
D03*
X0089764Y0077756D02*
D03*
X0089764Y0070669D02*
D03*
X0092913Y0070669D02*
D03*
X0054724Y0105118D02*
D03*
X0051575Y0105118D02*
D03*
X0051575Y0112205D02*
D03*
X0054724Y0112205D02*
D03*
X0051575Y0123622D02*
D03*
X0054724Y0123622D02*
D03*
X0054724Y0116535D02*
D03*
X0051575Y0116535D02*
D03*
X0082677Y0105118D02*
D03*
X0079527Y0105118D02*
D03*
X0079527Y0112205D02*
D03*
X0082677Y0112205D02*
D03*
X0079528Y0123622D02*
D03*
X0082677Y0123622D02*
D03*
X0082677Y0116535D02*
D03*
X0079528Y0116535D02*
D03*
X0055118Y0077756D02*
D03*
X0051969Y0077756D02*
D03*
X0051969Y0070669D02*
D03*
X0055118Y0070669D02*
D03*
X0074016Y0077756D02*
D03*
X0070866Y0077756D02*
D03*
X0070866Y0070669D02*
D03*
X0074016Y0070669D02*
D03*
X0111811Y0077756D02*
D03*
X0108661Y0077756D02*
D03*
X0108661Y0070669D02*
D03*
X0111811Y0070669D02*
D03*
X0130709Y0077756D02*
D03*
X0127559Y0077756D02*
D03*
X0127559Y0070669D02*
D03*
X0130709Y0070669D02*
D03*
X0149606Y0077756D02*
D03*
X0146457Y0077756D02*
D03*
X0146457Y0070669D02*
D03*
X0149606Y0070669D02*
D03*
X0168504Y0077756D02*
D03*
X0165354Y0077756D02*
D03*
X0165354Y0070669D02*
D03*
X0168504Y0070669D02*
D03*
X0191732Y0076378D02*
D03*
X0188583Y0076378D02*
D03*
X0188583Y0083464D02*
D03*
X0191732Y0083464D02*
D03*
D130*
X0180315Y0173228D02*
D03*
X0180315Y0166929D02*
D03*
X0126673Y0208957D02*
D03*
X0126673Y0215256D02*
D03*
X0041339Y0175197D02*
D03*
X0041339Y0168897D02*
D03*
X0185827Y0165748D02*
D03*
X0185827Y0172047D02*
D03*
D131*
X0105905Y0194685D02*
D03*
X0105905Y0188779D02*
D03*
D132*
X0096851Y0189764D02*
D03*
X0090551Y0189764D02*
D03*
X0096851Y0185138D02*
D03*
X0090551Y0185138D02*
D03*
D133*
X0048425Y0214370D02*
D03*
X0059842Y0214370D02*
D03*
D134*
X0184842Y0154173D02*
D03*
X0184842Y0160394D02*
D03*
X0113386Y0183819D02*
D03*
X0113386Y0177598D02*
D03*
D135*
X0050236Y0130118D02*
D03*
X0050236Y0132677D02*
D03*
X0050236Y0135236D02*
D03*
X0050236Y0137795D02*
D03*
X0050236Y0140354D02*
D03*
X0050236Y0142913D02*
D03*
X0050236Y0145472D02*
D03*
X0050236Y0148031D02*
D03*
X0050236Y0150590D02*
D03*
X0050236Y0153150D02*
D03*
X0050236Y0155708D02*
D03*
X0050236Y0158268D02*
D03*
X0073229Y0130118D02*
D03*
X0073229Y0132677D02*
D03*
X0073229Y0135236D02*
D03*
X0073229Y0137795D02*
D03*
X0073229Y0140354D02*
D03*
X0073229Y0142913D02*
D03*
X0073229Y0145472D02*
D03*
X0073229Y0148031D02*
D03*
X0073229Y0150590D02*
D03*
X0073229Y0153150D02*
D03*
X0073229Y0155708D02*
D03*
X0073229Y0158268D02*
D03*
D136*
X0193504Y0206299D02*
D03*
X0191536Y0206299D02*
D03*
X0191536Y0212598D02*
D03*
X0193504Y0212598D02*
D03*
D137*
X0189370Y0206496D02*
D03*
X0189370Y0208465D02*
D03*
X0189370Y0210433D02*
D03*
X0189370Y0212401D02*
D03*
X0195670Y0206496D02*
D03*
X0195670Y0212401D02*
D03*
X0195670Y0208465D02*
D03*
X0195670Y0210433D02*
D03*
M02*
