M48
INCH,TZ
T01C0.011800
T02C0.031500
T03C0.039200
%
T01
X3780Y7795
X3780Y7402
X3780Y21969
X3780Y17362
X3780Y17047
X3780Y15827
X3780Y15433
X3780Y15039
X3780Y14646
X3780Y14252
X3780Y13858
X3780Y13465
X3780Y13071
X3780Y10315
X3809Y3067
X3809Y2673
X3937Y6417
X4882Y6417
X5354Y6417
X5827Y6417
X6142Y21969
X6299Y6417
X6457Y21969
X6772Y21969
X6772Y6417
X7244Y6417
X7717Y6417
X8189Y6417
X8661Y6417
X9134Y6417
X9488Y5610
X9488Y5138
X9488Y4665
X9488Y4193
X9606Y6417
X9843Y21969
X10079Y6417
X10157Y21969
X10472Y21969
X10551Y6417
X10787Y21969
X11024Y6417
X11102Y21969
X11496Y6417
X11969Y6417
X12441Y6417
X12913Y6417
X13268Y21969
X13386Y6417
X13583Y21969
X13858Y6417
X13898Y21969
X14213Y21969
X14331Y6417
X14528Y21969
X14803Y6417
X14843Y21969
X15157Y21969
X15276Y6417
X15472Y21969
X15748Y6417
X15787Y21969
X16102Y21969
X16220Y6417
X16417Y21969
X16693Y6417
X16732Y21969
X17047Y21969
X17165Y6417
X17362Y21969
X17638Y6417
X17677Y21969
X17992Y21969
X18071Y6417
X18307Y21969
X18543Y6417
X18622Y21969
X18937Y21969
X19016Y6417
X19252Y21969
X19488Y6417
X19567Y21969
X19882Y21969
X19961Y6417
X20197Y19370
X20197Y19055
X20197Y17480
X20197Y17165
X20197Y16850
X20197Y15591
X20197Y15276
X20197Y11811
X20197Y7598
X20197Y21969
X20197Y20945
X20197Y20630
X20197Y20315
X20197Y20000
X20197Y19685
X20197Y18740
X20197Y18425
X20197Y18110
X20197Y17795
X20197Y16535
X20197Y16220
X20197Y15906
X20197Y14961
X20197Y14646
X20197Y14331
X20197Y14016
X20197Y13701
X20197Y13386
X20197Y13071
X20197Y12756
X20197Y12441
X20197Y12126
X20197Y11496
X20197Y11181
X20197Y10866
X20197Y10551
X20197Y10236
X20197Y7283
X3937Y4173
X3937Y2205
X3976Y5512
X4803Y4095
X4960Y3032
X5078Y2205
X5315Y5512
X5708Y4606
X5748Y3622
X6299Y2992
X6338Y2205
X6732Y5512
X6968Y4803
X7047Y2205
X7133Y4112
X7559Y2559
X8070Y3425
X8307Y2480
X8464Y5512
X8779Y2205
X9097Y4687
X9370Y3819
X9370Y2480
X3809Y3067
X3809Y2673
X9488Y5610
X9488Y5138
X9488Y4666
X9488Y4193
X3937Y6417
X3860Y6816
X3779Y7401
X3779Y7795
X4537Y8055
X5251Y8071
X5535Y8094
X6141Y7913
X6456Y7913
X7022Y8101
X7448Y8101
X8031Y7913
X8346Y7913
X8915Y8083
X9200Y8092
X9888Y7891
X10272Y7891
X10783Y8117
X11225Y8101
X11811Y7913
X12126Y7913
X12706Y8010
X13090Y8071
X13700Y7913
X14015Y7913
X14645Y8071
X14960Y8071
X15590Y7913
X15905Y7913
X16535Y8071
X16850Y8071
X17480Y7913
X17716Y8149
X17992Y9016
X18307Y8897
X18504Y8622
X18858Y8622
X18946Y9547
X18444Y9567
X18507Y9845
X18405Y10689
X18779Y10827
X18883Y11102
X18986Y10590
X18707Y11916
X18699Y12413
X18385Y12441
X18425Y12834
X18307Y13622
X17712Y13698
X17322Y13740
X16988Y13751
X17244Y13464
X17496Y13304
X17659Y14168
X17675Y14555
X17430Y14715
X17816Y14960
X17726Y15668
X17795Y15945
X17677Y16811
X17480Y17165
X17707Y17726
X17728Y18110
X18529Y17814
X18852Y17593
X19235Y17569
X18814Y19029
X18765Y19679
X18984Y19862
X18422Y20277
X17698Y20470
X17322Y20157
X17078Y20305
X16929Y20984
X16653Y20866
X17875Y21073
X18153Y20947
X18297Y21466
X18612Y21567
X19235Y21011
X15326Y21001
X15028Y21051
X15082Y20412
X15421Y20202
X16018Y19527
X15826Y19291
X15590Y19055
X14763Y18819
X14144Y18715
X14173Y19055
X13863Y18627
X13661Y18425
X13818Y17480
X14252Y17456
X15078Y17716
X15393Y17716
X15537Y17300
X16181Y17401
X16220Y18110
X16448Y18281
X16771Y17638
X16771Y16693
X15826Y16378
X15511Y16378
X15590Y15811
X15511Y14842
X15905Y14842
X16183Y15319
X16897Y15428
X16761Y14671
X16775Y14294
X15708Y14212
X15787Y13493
X16102Y13504
X15214Y13419
X15433Y12638
X15748Y12559
X16378Y12677
X16624Y12532
X16918Y12284
X16555Y11811
X16161Y11811
X15511Y11496
X15196Y11499
X14881Y11496
X14252Y11632
X13985Y11821
X14094Y12362
X14307Y12598
X14457Y12193
X13464Y12362
X13543Y12638
X12677Y12677
X12598Y12323
X12598Y11496
X12913Y11499
X13228Y11535
X13504Y11102
X13504Y10787
X13513Y10502
X13740Y9960
X14330Y9960
X14704Y10197
X14704Y10827
X14271Y10689
X15728Y10551
X15723Y10841
X16555Y10689
X16988Y10827
X16988Y10197
X16614Y9960
X16023Y9960
X15452Y9212
X14945Y9114
X14660Y9114
X13056Y9114
X12770Y9114
X12497Y9198
X12421Y10197
X12047Y9960
X11496Y9960
X11161Y10551
X11156Y10841
X10965Y11511
X10630Y11499
X10315Y11496
X10137Y10827
X9704Y10689
X9803Y9960
X10137Y10197
X10375Y9230
X10880Y9075
X11166Y9114
X9633Y9470
X9276Y9114
X8991Y9114
X8976Y9764
X8926Y10465
X8907Y11142
X8920Y11437
X8907Y11796
X8897Y12283
X8937Y12716
X8557Y12844
X8272Y12864
X8110Y12362
X8248Y11929
X7716Y11929
X7257Y12192
X7095Y12433
X6693Y12553
X6474Y12324
X6075Y12607
X6397Y12953
X6889Y13039
X6956Y13522
X6922Y13858
X6968Y14242
X6968Y14527
X6968Y15079
X6929Y15827
X7126Y16417
X6880Y16619
X7071Y17076
X7022Y17650
X6567Y18308
X6604Y18819
X5905Y19134
X5977Y18240
X5821Y17756
X5433Y17677
X5039Y17673
X4451Y18241
X4055Y18228
X3779Y17362
X3779Y17047
X3818Y16653
X3779Y15827
X3779Y15433
X3779Y15039
X3779Y14645
X3779Y14252
X3779Y13858
X3779Y13464
X3779Y13071
X3920Y12550
X4434Y12344
X4960Y12027
X5275Y12165
X5452Y11927
X6112Y11722
X6125Y11437
X6112Y11142
X6141Y10787
X5660Y10930
X5158Y10937
X5315Y10512
X5198Y10186
X5586Y10158
X5255Y9764
X5216Y9212
X5497Y9114
X6259Y9183
X6732Y9183
X7101Y9114
X7386Y9114
X7795Y9173
X8149Y9134
X7736Y9764
X7795Y10197
X8110Y10512
X7972Y10905
X8602Y10905
X8476Y10072
X6732Y10197
X6496Y9764
X7272Y10794
X7313Y11077
X7244Y11653
X7401Y12854
X7801Y13170
X7846Y14355
X7805Y14960
X7783Y15374
X7795Y15945
X7805Y16456
X7805Y17165
X7846Y18189
X7746Y18459
X8649Y18568
X8647Y18247
X8673Y19182
X8877Y19383
X9320Y19311
X9370Y18897
X9370Y18612
X9370Y17791
X9356Y17402
X8833Y17401
X8833Y17116
X9119Y17097
X9330Y16850
X9252Y16496
X9365Y16043
X10271Y16050
X10554Y16159
X10433Y16417
X10184Y16734
X10196Y15630
X10344Y14848
X10433Y14449
X10246Y14104
X9960Y13189
X9431Y13173
X9288Y13429
X9252Y12431
X9606Y12138
X9686Y11828
X10354Y12362
X10839Y12376
X10826Y12661
X10987Y13642
X11395Y13685
X11456Y13406
X11732Y13701
X12381Y13725
X12372Y13440
X12795Y13720
X13046Y13583
X13533Y14116
X12640Y14409
X12157Y14413
X12421Y14773
X12755Y15275
X13228Y15748
X12322Y15787
X11850Y16968
X11535Y16929
X11256Y16431
X10787Y15994
X11259Y14803
X9409Y15000
X9173Y14409
X8858Y14468
X8448Y14532
X8661Y16516
X10186Y17983
X10196Y18425
X10118Y19055
X10126Y19340
X10258Y19814
X10186Y20091
X10315Y20590
X9862Y21175
X10630Y21730
X11426Y21843
X11751Y21798
X12039Y21840
X12358Y21837
X12672Y21831
X12283Y20945
X11663Y20974
X11377Y20974
X11092Y20984
X11237Y19979
X11299Y19685
X10954Y19173
X11102Y18425
X10944Y17913
X11850Y17834
X12205Y17746
X12480Y17480
X12283Y18622
X11830Y18346
X12992Y19055
X12519Y19527
X12519Y20465
X12913Y20669
X13253Y21068
X14202Y20986
X13385Y19724
X13700Y16271
X14212Y16389
X14434Y16208
X14654Y16389
X14832Y16166
X14685Y15000
X14173Y14803
X14055Y15512
X11970Y12589
X11732Y12244
X11594Y11811
X11889Y11811
X11988Y10689
X12421Y10827
X12204Y6614
X12441Y6417
X12677Y6614
X12913Y6417
X13149Y6614
X13385Y6417
X13622Y6614
X13858Y6417
X14094Y6614
X14330Y6417
X14567Y6614
X14803Y6417
X15039Y6614
X15275Y6417
X15511Y6614
X15748Y6417
X15984Y6614
X16220Y6417
X16456Y6614
X16693Y6417
X16929Y6614
X17165Y6417
X17401Y6614
X17637Y6417
X18070Y6417
X18307Y6614
X18543Y6417
X18779Y6614
X19015Y6417
X19252Y6614
X18948Y7321
X18475Y7321
X17441Y9173
X16835Y9114
X16550Y9114
X17165Y11496
X17480Y11499
X17795Y11496
X18081Y11441
X19183Y14458
X16889Y18819
X16930Y19101
X9449Y19688
X9125Y20019
X9200Y20295
X8876Y20160
X8484Y20610
X8216Y20494
X7926Y20333
X7626Y20320
X7677Y20039
X7913Y19409
X8288Y19144
X8417Y20994
X7746Y20838
X6994Y20531
X6625Y20686
X6606Y20391
X6756Y19987
X6427Y20000
X5933Y20199
X5070Y19997
X4661Y19906
X4724Y20472
X3878Y20551
X3858Y20157
X4448Y21437
X4488Y21890
X5570Y21890
X6210Y21093
X6950Y21190
X7970Y21732
X8976Y21614
X4931Y19054
X4763Y18819
X5735Y17101
X5345Y15695
X6151Y15669
X6151Y14960
X6151Y14252
X6151Y13543
X5716Y13159
X5401Y13390
X5031Y12715
X3907Y11762
X4517Y11142
X4192Y10472
X3779Y10315
X4015Y9764
X3818Y9173
X4370Y8976
X4133Y8494
X4769Y9309
X4645Y10098
X4370Y7008
X4413Y6448
X4645Y6614
X4881Y6417
X5118Y6614
X5354Y6417
X5590Y6614
X5826Y6417
X6063Y6614
X6299Y6417
X6535Y6614
X6771Y6417
X7007Y6614
X7244Y6417
X7480Y6614
X7716Y6417
X7952Y6614
X8189Y6417
X8425Y6614
X8661Y6417
X8897Y6614
X9133Y6417
X9370Y6614
X9606Y6417
X9842Y6614
X10078Y6417
X10315Y6614
X10551Y6417
X10787Y6614
X11023Y6417
X11259Y6614
X11496Y6417
X11732Y6614
X11968Y6417
X4330Y16220
X19368Y16380
X19330Y17145
X19517Y17361
X20196Y17480
X20196Y17795
X20196Y18110
X20196Y18425
X20196Y18740
X20196Y19055
X20196Y19370
X20196Y19685
X20196Y20000
X20196Y20315
X20196Y20630
X20196Y20945
X20118Y21260
X19795Y20945
X19923Y20115
X19958Y18897
X19958Y17953
X19341Y18295
X20196Y17165
X20196Y16850
X20196Y16535
X20196Y16220
X20196Y15905
X20196Y15590
X20196Y15275
X20196Y14960
X20196Y14645
X20196Y14330
X20196Y14016
X20196Y13701
X20196Y13386
X20196Y13071
X20196Y12756
X20196Y12441
X20196Y12126
X20196Y11811
X20196Y11496
X20196Y11181
X20196Y10866
X20196Y10551
X20196Y10236
X19368Y10111
X19370Y9409
X19685Y9252
X19830Y9498
X19803Y8937
X19921Y8622
X20000Y8346
X20000Y7953
X20196Y7598
X20196Y7283
X19852Y7313
X19390Y7314
X19488Y6417
X19724Y6614
X19960Y6417
X20157Y6732
X19685Y10787
X19345Y10842
X19913Y13736
X19586Y15325
X19291Y15325
X19567Y21968
X19881Y21968
X20196Y21968
X19252Y21968
X18937Y21968
X18622Y21968
X18307Y21968
X17992Y21968
X17677Y21968
X17362Y21968
X17047Y21968
X16732Y21968
X16417Y21968
X16102Y21968
X15787Y21968
X15472Y21968
X15157Y21968
X14842Y21968
X14527Y21968
X14212Y21968
X13897Y21968
X13582Y21968
X13267Y21968
X11102Y21968
X10787Y21968
X10472Y21968
X10157Y21968
X9842Y21968
X7706Y21942
X6771Y21968
X6456Y21968
X6141Y21968
X3779Y21968
T02
X9645Y12519
X11338Y12401
X13070Y12441
X14960Y12401
X16102Y12401
X17283Y12401
X17795Y12874
T03
X4094Y21653
X7236Y20893
X7236Y21693
X9236Y21293
M30
